<svg width="48" height="48" viewBox="0 0 48 48" fill="none" xmlns="http://www.w3.org/2000/svg">
<path fill-rule="evenodd" clip-rule="evenodd" d="M9.69401 22.955C9.69401 25.6088 11.8511 27.7667 14.5038 27.7667C17.1565 27.7667 19.3136 25.6088 19.3136 22.955C19.3136 20.3013 17.1565 18.1434 14.5038 18.1434C11.8511 18.1434 9.69401 20.3013 9.69401 22.955ZM12.5119 22.955C12.5119 21.8566 13.4058 20.9623 14.5038 20.9623C15.6018 20.9623 16.4957 21.8566 16.4957 22.955C16.4957 24.0535 15.6018 24.9478 14.5038 24.9478C13.4058 24.9478 12.5119 24.0535 12.5119 22.955Z" fill="#95F4DE"/>
<path fill-rule="evenodd" clip-rule="evenodd" d="M30.896 43.3682C31.8677 43.7861 32.8976 44 33.9179 44H33.9373C35.3171 44 36.6969 43.6112 37.9115 42.853C39.363 41.937 40.4357 40.571 40.981 38.9997L41.7788 39.3925C41.9925 39.4994 42.2257 39.548 42.4589 39.548V39.5674C42.7407 39.5674 43.0225 39.4897 43.2654 39.3341C43.7221 39.0522 43.9942 38.5662 43.9942 38.0316V21.4786C44.0096 21.3032 43.9947 21.1224 43.9456 20.9429C43.897 20.7679 39.1941 4 23.1712 4C15.7476 4 11.171 7.71324 8.63489 10.8433C5.7393 14.4107 4 19.0765 4 23.305V28.3013C4 30.2746 5.17573 32.0632 6.99276 32.8603L30.896 43.3682ZM40.1653 19.5294L29.0547 18.1605C28.9349 18.1303 28.8095 18.1142 28.6805 18.1142H28.6789L24.1817 17.5601C23.7445 17.5018 23.3072 17.6379 22.9768 17.9295C22.6465 18.2211 22.4618 18.6391 22.4618 19.0765V28.9234C22.4618 29.5164 22.7922 30.0413 23.3169 30.3038L38.1908 37.6261C37.9293 38.7048 37.2566 39.6319 36.2791 40.2479C35.0159 41.045 33.5001 41.1519 32.1397 40.5492L8.22679 30.0413C7.52718 29.7303 7.0705 29.0498 7.0705 28.2916V23.2953C7.0705 12.2236 16.6804 7.07169 23.1712 7.08141C28.8652 7.08141 33.5681 9.50182 37.1633 14.2843C38.5875 16.1807 39.5588 18.1081 40.1653 19.5294ZM40.9237 22.7023L30.2158 21.3836V30.2682L40.9237 35.5431V22.7023ZM25.5323 20.8068L27.1453 21.0054V28.7557L25.5323 27.9611V20.8068Z" fill="#95F4DE"/>
</svg>
