<svg width="48" height="48" viewBox="0 0 48 48" fill="none" xmlns="http://www.w3.org/2000/svg">
<path d="M43.2302 38.66C42.8702 37.8 42.2002 37.12 41.3402 36.77C41.0702 36.66 40.7902 36.6 40.4902 36.56C40.4702 34.43 40.3402 33.09 39.5702 31.95C39.1702 31.35 38.6602 30.84 38.0502 30.43C36.6602 29.5 35.0102 29.5 31.9902 29.5H25.4902V25.5H26.6602C29.4002 25.5 31.0502 25.5 32.2802 24.28C33.2002 23.36 33.4202 22.19 33.4802 20.5H36.0002C36.8302 20.5 37.5002 19.83 37.5002 19C37.5002 18.17 36.8302 17.5 36.0002 17.5H33.5002V14.5H36.0002C36.8302 14.5 37.5002 13.83 37.5002 13C37.5002 12.17 36.8302 11.5 36.0002 11.5H33.4802C33.4202 9.81 33.2002 8.64 32.2802 7.72C31.3602 6.8 30.1902 6.57 28.5002 6.52V4C28.5002 3.17 27.8302 2.5 27.0002 2.5C26.1702 2.5 25.5002 3.17 25.5002 4V6.5H22.5002V4C22.5002 3.17 21.8302 2.5 21.0002 2.5C20.1702 2.5 19.5002 3.17 19.5002 4V6.52C17.8102 6.58 16.6402 6.8 15.7202 7.72C14.8002 8.64 14.5802 9.81 14.5202 11.5H12.0002C11.1702 11.5 10.5002 12.17 10.5002 13C10.5002 13.83 11.1702 14.5 12.0002 14.5H14.5002V17.5H12.0002C11.1702 17.5 10.5002 18.17 10.5002 19C10.5002 19.83 11.1702 20.5 12.0002 20.5H14.5202C14.5802 22.19 14.8002 23.36 15.7202 24.28C16.9402 25.5 18.5902 25.5 21.3302 25.5H22.5002V29.5H16.0002C12.9902 29.5 11.3302 29.5 9.94023 30.43C9.34023 30.83 8.83023 31.35 8.42023 31.95C7.65023 33.1 7.52023 34.44 7.50023 36.56C7.20023 36.6 6.92023 36.66 6.65023 36.77C5.79023 37.13 5.12023 37.8 4.76023 38.66C4.49023 39.3 4.49023 39.94 4.49023 41C4.49023 42.06 4.49023 42.7 4.76023 43.34C5.11023 44.19 5.80023 44.88 6.65023 45.23C7.29023 45.5 7.93023 45.5 8.99023 45.5C10.0502 45.5 10.6902 45.5 11.3302 45.23C12.1902 44.87 12.8602 44.2 13.2202 43.34C13.4902 42.7 13.4902 42.06 13.4902 41C13.4902 39.94 13.4902 39.3 13.2202 38.66C12.8602 37.8 12.1902 37.13 11.3302 36.77C11.0602 36.66 10.7902 36.6 10.4902 36.56C10.5102 35.03 10.5802 34.1 10.9102 33.61C11.0902 33.34 11.3302 33.1 11.6002 32.92C12.2302 32.5 13.5602 32.5 15.9902 32.5H22.4902V36.56C22.1902 36.6 21.9202 36.66 21.6502 36.77C20.7902 37.13 20.1202 37.8 19.7602 38.66C19.4902 39.3 19.4902 39.94 19.4902 41C19.4902 42.06 19.4902 42.7 19.7602 43.34C20.1102 44.19 20.8002 44.88 21.6502 45.23C22.2902 45.5 22.9302 45.5 23.9902 45.5C25.0502 45.5 25.6902 45.5 26.3302 45.23C27.1902 44.87 27.8702 44.2 28.2202 43.34C28.4902 42.69 28.4902 42.05 28.4902 40.99C28.4902 39.93 28.4902 39.29 28.2202 38.65C27.8602 37.79 27.1902 37.11 26.3302 36.76C26.0602 36.65 25.7802 36.59 25.4802 36.55V32.49H31.9802C34.4002 32.49 35.7402 32.49 36.3702 32.91C36.6502 33.09 36.8802 33.33 37.0602 33.6C37.3902 34.09 37.4602 35.02 37.4802 36.55C37.1802 36.59 36.9102 36.65 36.6402 36.76C35.7802 37.12 35.1002 37.79 34.7502 38.65C34.4802 39.3 34.4802 39.94 34.4802 41C34.4802 42.06 34.4802 42.7 34.7502 43.34C35.1002 44.19 35.7902 44.88 36.6402 45.23C37.2802 45.5 37.9202 45.5 38.9802 45.5C40.0402 45.5 40.6802 45.5 41.3202 45.23C42.1802 44.87 42.8602 44.2 43.2102 43.34C43.4802 42.69 43.4802 42.05 43.4802 40.99C43.4802 39.93 43.4802 39.29 43.2102 38.65L43.2302 38.66ZM17.8402 22.16C17.5002 21.82 17.5002 20.49 17.5002 18.66V13.33C17.5002 11.5 17.5002 10.18 17.8402 9.83C18.1802 9.49 19.5002 9.49 21.3302 9.49H26.6602C28.4902 9.49 29.8102 9.49 30.1502 9.83C30.4902 10.17 30.4902 11.49 30.4902 13.32V18.65C30.4902 20.48 30.4902 21.8 30.1502 22.14C29.8102 22.48 28.4902 22.48 26.6602 22.48H24.0102C24.0102 22.48 24.0002 22.48 23.9902 22.48C23.9802 22.48 23.9802 22.48 23.9702 22.48H21.3202C19.4902 22.48 18.1702 22.48 17.8302 22.14L17.8402 22.16ZM10.4602 42.19C10.4102 42.31 10.3102 42.41 10.2002 42.46C9.93023 42.54 8.08023 42.54 7.80023 42.46C7.68023 42.41 7.59023 42.31 7.54023 42.2C7.50023 42.06 7.50023 41.52 7.50023 41C7.50023 40.48 7.50023 39.94 7.54023 39.81C7.59023 39.69 7.69023 39.59 7.80023 39.54C7.92023 39.5 8.35023 39.48 8.81024 39.48C8.87023 39.48 8.94023 39.5 9.00023 39.5C9.06023 39.5 9.13023 39.49 9.19023 39.48C9.65023 39.48 10.0702 39.5 10.1902 39.54C10.3102 39.59 10.4102 39.69 10.4602 39.8C10.5002 39.94 10.5002 40.48 10.5002 41C10.5002 41.52 10.5002 42.06 10.4602 42.19ZM25.4602 42.19C25.4102 42.31 25.3102 42.41 25.2002 42.46C24.9302 42.54 23.0602 42.54 22.8102 42.46C22.6902 42.41 22.5902 42.31 22.5402 42.2C22.5002 42.06 22.5002 41.52 22.5002 41C22.5002 40.48 22.5002 39.94 22.5402 39.81C22.5902 39.69 22.6902 39.59 22.8002 39.54C22.9402 39.5 23.4802 39.5 24.0002 39.5C24.5202 39.5 25.0602 39.5 25.1902 39.54C25.3102 39.59 25.4102 39.69 25.4602 39.8C25.5002 39.94 25.5002 40.48 25.5002 41C25.5002 41.52 25.5002 42.06 25.4602 42.19ZM40.4602 42.19C40.4102 42.31 40.3102 42.41 40.2002 42.46C39.9302 42.54 38.0702 42.54 37.8102 42.46C37.6902 42.41 37.5902 42.31 37.5402 42.2C37.5002 42.06 37.5002 41.52 37.5002 41C37.5002 40.48 37.5002 39.94 37.5402 39.81C37.5902 39.69 37.6902 39.59 37.8002 39.54C37.9402 39.5 38.4802 39.5 39.0002 39.5C39.5202 39.5 40.0602 39.5 40.1902 39.54C40.3102 39.59 40.4102 39.69 40.4602 39.8C40.5002 39.94 40.5002 40.48 40.5002 41C40.5002 41.52 40.5002 42.06 40.4602 42.19Z" fill="#95F4DE"/>
</svg>
