<svg width="48" height="48" viewBox="0 0 48 48" fill="none" xmlns="http://www.w3.org/2000/svg">
<mask id="mask0_141_1252" style="mask-type:alpha" maskUnits="userSpaceOnUse" x="0" y="0" width="48" height="48">
<rect width="48" height="48" fill="#D9D9D9"/>
</mask>
<g mask="url(#mask0_141_1252)">
<path d="M20.9 31C21.7 31.8 22.7333 32.1917 24 32.175C25.2667 32.1583 26.2 31.7 26.8 30.8L38 14L21.2 25.2C20.3 25.8 19.825 26.7167 19.775 27.95C19.725 29.1833 20.1 30.2 20.9 31ZM24 8C25.9667 8 27.8583 8.275 29.675 8.825C31.4917 9.375 33.2 10.2 34.8 11.3L31 13.7C29.9 13.1333 28.7583 12.7083 27.575 12.425C26.3917 12.1417 25.2 12 24 12C19.5667 12 15.7917 13.5583 12.675 16.675C9.55833 19.7917 8 23.5667 8 28C8 29.4 8.19167 30.7833 8.575 32.15C8.95833 33.5167 9.5 34.8 10.2 36H37.8C38.5667 34.7333 39.125 33.4167 39.475 32.05C39.825 30.6833 40 29.2667 40 27.8C40 26.6 39.8583 25.4333 39.575 24.3C39.2917 23.1667 38.8667 22.0667 38.3 21L40.7 17.2C41.7 18.7667 42.4917 20.4333 43.075 22.2C43.6583 23.9667 43.9667 25.8 44 27.7C44.0333 29.6 43.8167 31.4167 43.35 33.15C42.8833 34.8833 42.2 36.5333 41.3 38.1C40.9333 38.7 40.4333 39.1667 39.8 39.5C39.1667 39.8333 38.5 40 37.8 40H10.2C9.5 40 8.83333 39.8333 8.2 39.5C7.56667 39.1667 7.06667 38.7 6.7 38.1C5.83333 36.6 5.16667 35.0083 4.7 33.325C4.23333 31.6417 4 29.8667 4 28C4 25.2333 4.525 22.6417 5.575 20.225C6.625 17.8083 8.05833 15.6917 9.875 13.875C11.6917 12.0583 13.8167 10.625 16.25 9.575C18.6833 8.525 21.2667 8 24 8Z" fill="#95F4DE"/>
</g>
</svg>
