<svg width="48" height="48" viewBox="0 0 48 48" fill="none" xmlns="http://www.w3.org/2000/svg">
<mask id="mask0_141_1229" style="mask-type:alpha" maskUnits="userSpaceOnUse" x="0" y="0" width="48" height="48">
<rect width="48" height="48" fill="#D9D9D9"/>
</mask>
<g mask="url(#mask0_141_1229)">
<path d="M22 44V34C22 32.1333 21.7167 30.75 21.15 29.85C20.5833 28.95 19.8333 28.0667 18.9 27.2L21.75 24.35C22.15 24.7167 22.5333 25.1083 22.9 25.525C23.2667 25.9417 23.6333 26.3833 24 26.85C24.4667 26.2167 24.9417 25.6583 25.425 25.175C25.9083 24.6917 26.4 24.2167 26.9 23.75C28.1667 22.5833 29.3167 21.2333 30.35 19.7C31.3833 18.1667 31.9333 15.4833 32 11.65L28.85 14.8L26 12L34 4L42 12L39.2 14.8L36 11.65C35.9333 16.4167 35.2 19.8083 33.8 21.825C32.4 23.8417 31 25.4833 29.6 26.75C28.5333 27.7167 27.6667 28.6583 27 29.575C26.3333 30.4917 26 31.9667 26 34V44H22ZM12.4 16.35C12.2667 15.6833 12.175 14.95 12.125 14.15C12.075 13.35 12.0333 12.5167 12 11.65L8.8 14.8L6 12L14 4L22 12L19.15 14.8L16 11.7C16 12.4 16.0333 13.0583 16.1 13.675C16.1667 14.2917 16.2333 14.8667 16.3 15.4L12.4 16.35ZM16.7 25.15C16.0333 24.45 15.3917 23.6333 14.775 22.7C14.1583 21.7667 13.6167 20.6167 13.15 19.25L17 18.3C17.3333 19.2 17.7167 19.9667 18.15 20.6C18.5833 21.2333 19.05 21.8 19.55 22.3L16.7 25.15Z" fill="#95F4DE"/>
</g>
</svg>
