<svg width="48" height="48" viewBox="0 0 48 48" fill="none" xmlns="http://www.w3.org/2000/svg">
<path d="M24.9725 6.14277L25.1867 6H26.4003L26.5073 6.10708C26.5787 6.17847 26.6144 6.26175 26.6144 6.35694C26.6144 6.42832 26.4954 6.57109 26.2575 6.78525C25.615 7.40394 25.0558 7.96313 24.5799 8.46284C21.3913 12.0084 18.9879 16.7199 17.3699 22.5974C16.5608 25.4767 16.0373 28.1775 15.7993 30.6998C15.6804 32.1037 15.6685 33.3173 15.7637 34.3405C15.9302 36.8866 16.5608 39.0877 17.6554 40.9438C17.822 41.2293 17.8815 41.4197 17.8339 41.5149C17.7387 41.6338 17.4531 41.6933 16.9772 41.6933H16.4061L16.2277 41.5506C15.8469 41.146 15.3829 40.456 14.8356 39.4803C14.0266 37.9812 13.5031 36.2798 13.2651 34.3762C12.8368 31.259 13.1461 27.6421 14.1931 23.5254C15.7161 17.7669 18.1194 13.0673 21.4032 9.42656C22.4978 8.18919 23.64 7.13029 24.8298 6.24985C24.8773 6.20226 24.9249 6.16657 24.9725 6.14277Z" fill="#95F4DE"/>
<path d="M44.0657 6C43.6612 6 43.4351 6.0119 43.3875 6.03569C43.2685 6.10708 43.209 6.21416 43.209 6.35694C43.209 6.38073 43.2804 6.51161 43.4232 6.74956C44.5178 8.60561 45.1484 10.7948 45.3149 13.3171C45.4101 14.3879 45.3982 15.6134 45.2793 16.9935C45.0175 19.5397 44.494 22.2286 43.7087 25.0602C42.0906 30.9615 39.6873 35.6731 36.4987 39.1948C36.0942 39.6707 35.535 40.2418 34.8211 40.9081C34.5831 41.1222 34.4642 41.265 34.4642 41.3364C34.4642 41.4316 34.4999 41.5149 34.5713 41.5863L34.6783 41.6933H35.8919L36.1061 41.5506C36.1537 41.5268 36.2012 41.4911 36.2488 41.4435C37.4386 40.563 38.5808 39.5041 39.6754 38.2668C42.9592 34.6261 45.3625 29.9145 46.8854 24.1322C47.9325 20.0632 48.2418 16.4462 47.8135 13.2814C47.5517 11.3778 47.0282 9.68831 46.243 8.21299C45.6957 7.23737 45.2317 6.5473 44.8509 6.14277L44.6725 6H44.0657Z" fill="#95F4DE"/>
<path d="M35.5084 6.10707C35.3181 6.01189 35.0206 5.9881 34.6161 6.03569C34.5447 6.05948 34.4852 6.08328 34.4377 6.10707C33.8666 6.32123 33.5096 6.66627 33.3669 7.14218C33.3669 7.26116 33.236 8.05831 32.9742 9.53363C32.7601 11.0328 32.6292 11.8061 32.5816 11.8537C32.5816 11.9251 32.1533 11.5206 31.2966 10.6401C30.44 9.78349 29.9641 9.33137 29.8689 9.28378C29.5596 9.1886 29.274 9.1886 29.0123 9.28378C28.7981 9.35517 28.5958 9.46225 28.4055 9.60502C27.8106 10.0809 27.5726 10.5925 27.6916 11.1398C27.7154 11.2588 27.7392 11.3302 27.763 11.354C27.8344 11.4968 28.465 11.9251 29.6547 12.639L31.4037 13.7098L29.155 14.7092C27.5845 15.4706 26.7874 15.8632 26.7636 15.887C26.5256 16.0774 26.3472 16.3154 26.2282 16.6009C26.0854 16.9578 26.0854 17.2672 26.2282 17.5289C26.5137 18.1 26.9658 18.2904 27.5845 18.1C27.7035 18.0524 28.4174 17.6122 29.7261 16.7794C31.0349 15.8989 31.6893 15.4706 31.6893 15.4944L30.904 17.7788C30.3805 19.4921 30.1188 20.3249 30.1188 20.2773C30.0712 20.4915 30.1069 20.6937 30.2258 20.8841C30.4876 21.3362 30.904 21.4909 31.4751 21.3481C32.0462 21.2054 32.4507 20.9079 32.6887 20.4558C32.7839 20.2654 32.9504 19.3969 33.1884 17.8502L33.581 15.4587L34.866 16.7437C35.7226 17.6003 36.1985 18.0524 36.2937 18.1C36.3651 18.1238 36.5198 18.1357 36.7577 18.1357C36.9957 18.1357 37.2098 18.0881 37.4002 17.993C37.5668 17.9216 37.7095 17.8264 37.8285 17.7074C38.3996 17.2077 38.6138 16.6961 38.471 16.1726C38.4472 16.1012 38.4353 16.0536 38.4353 16.0298C38.3639 15.887 37.7214 15.4587 36.5079 14.7449C35.3419 14.031 34.7827 13.6741 34.8303 13.6741C34.8779 13.6265 35.6274 13.2814 37.079 12.639C38.3401 12.0679 39.1135 11.6871 39.399 11.4968C39.9701 11.0684 40.1724 10.5568 40.0058 9.96195C39.863 9.50984 39.5418 9.25998 39.0421 9.21239H38.8636C38.6495 9.21239 37.8404 9.6883 36.4365 10.6401L34.4733 11.9251C34.4733 11.8537 34.747 11.0447 35.2943 9.49794C35.8178 7.92743 36.0795 7.05889 36.0795 6.89233C36.032 6.5116 35.8416 6.24985 35.5084 6.10707Z" fill="#95F4DE"/>
<path d="M13.9204 7.60618C13.5635 7.60618 13.3255 7.61808 13.2065 7.64187C11.7312 7.97501 10.6247 8.89114 9.88705 10.3903C9.43494 11.3659 8.97092 13.0911 8.49501 15.5658L8.13808 17.3148V17.3862H4.71152L4.60444 17.4932C4.53305 17.5646 4.43787 17.8383 4.31889 18.3142C4.19992 18.7901 4.16422 19.0637 4.21181 19.1351C4.30699 19.3017 4.93758 19.385 6.10356 19.385C7.14659 19.385 7.69267 19.3958 7.74181 19.4174C7.6921 19.5315 7.13412 22.4356 6.06787 28.1298L5.354 31.3422C4.87809 33.2221 4.52116 34.9116 4.2832 36.4107C4.11663 37.4101 3.87868 38.0288 3.56933 38.2668C3.47415 38.3381 3.33138 38.3738 3.14101 38.3738C2.83167 38.3738 2.74839 38.3262 2.89116 38.2311C3.31948 37.9693 3.61692 37.5648 3.78349 37.0175L3.85488 36.7319C4.02145 35.9467 3.80729 35.3994 3.2124 35.09C2.61751 34.8045 1.98693 34.8164 1.32065 35.1257C1.15408 35.1971 0.951822 35.3518 0.713867 35.5898C0.523502 35.7563 0.380729 35.9586 0.285547 36.1965C0.0951822 36.5773 0 36.9937 0 37.4458C0 38.0169 0.166569 38.5404 0.499707 39.0163C0.523502 39.0639 0.559196 39.0996 0.606787 39.1234C1.22547 39.8135 2.05832 40.1347 3.10532 40.0871C3.48605 40.0633 3.84298 39.9681 4.17612 39.8016C5.3659 39.2543 6.34151 38.1002 7.10297 36.3393C7.69786 35.0068 8.31655 32.7938 8.95903 29.7004L10.0298 24.1679L10.9579 19.4564C10.9579 19.4088 11.6122 19.385 12.921 19.385C14.2297 19.385 14.9198 19.3612 14.9912 19.3136C15.0864 19.266 15.1935 18.9805 15.3124 18.457C15.4314 17.9334 15.4433 17.6122 15.3481 17.4932L15.2054 17.3862H13.2779C11.993 17.3862 11.3505 17.3743 11.3505 17.3505C11.3505 17.1601 11.6241 15.7562 12.1714 13.1386C12.5759 11.1398 12.8258 10.0452 12.921 9.85486C12.9924 9.6645 13.1232 9.49793 13.3136 9.35515C13.385 9.30756 13.504 9.28377 13.6705 9.28377C13.9561 9.33136 14.0394 9.39085 13.9204 9.46223C13.4921 9.72398 13.1946 10.1285 13.0281 10.6758L12.9567 10.9614C12.7901 11.7466 13.0043 12.2939 13.5992 12.6032C14.194 12.8888 14.8246 12.8769 15.4909 12.5676C15.6575 12.4962 15.8597 12.3415 16.0977 12.1035C16.2881 11.937 16.4308 11.7347 16.526 11.4968C16.7164 11.116 16.8116 10.7115 16.8116 10.2832C16.8116 9.23618 16.3475 8.47472 15.4195 7.99881C14.9674 7.76085 14.4677 7.62997 13.9204 7.60618Z" fill="#95F4DE"/>
</svg>
