<svg width="48" height="48" viewBox="0 0 48 48" fill="none" xmlns="http://www.w3.org/2000/svg">
<mask id="mask0_157_664" style="mask-type:alpha" maskUnits="userSpaceOnUse" x="0" y="0" width="48" height="48">
<rect width="48" height="48" fill="#D9D9D9"/>
</mask>
<g mask="url(#mask0_157_664)">
<path d="M17.6 21.9L21.9 17.55L19.1 14.7L16.9 16.9L14.1 14.1L16.25 11.9L14 9.65L9.65 14L17.6 21.9ZM34 38.35L38.35 34L36.1 31.75L33.9 33.9L31.1 31.1L33.25 28.9L30.4 26.1L26.1 30.4L34 38.35ZM14.5 42H6V33.5L14.75 24.75L4 14L14 4L24.8 14.8L32.35 7.2C32.75 6.8 33.2 6.5 33.7 6.3C34.2 6.1 34.7167 6 35.25 6C35.7833 6 36.3 6.1 36.8 6.3C37.3 6.5 37.75 6.8 38.15 7.2L40.8 9.9C41.2 10.3 41.5 10.75 41.7 11.25C41.9 11.75 42 12.2667 42 12.8C42 13.3333 41.9 13.8417 41.7 14.325C41.5 14.8083 41.2 15.25 40.8 15.65L33.25 23.25L44 34L34 44L23.25 33.25L14.5 42ZM10 38H12.8L32.4 18.45L29.55 15.6L10 35.2V38Z" fill="#95F4DE"/>
</g>
</svg>
