<svg width="48" height="48" viewBox="0 0 48 48" fill="none" xmlns="http://www.w3.org/2000/svg">
<path fill-rule="evenodd" clip-rule="evenodd" d="M15.9316 2C14.5769 2 13.5093 2.65344 12.7371 3.46266C11.9928 4.24265 11.4327 5.2515 10.99 6.26915C10.1042 8.30518 9.4578 10.9355 8.90223 13.3692C8.79293 13.848 8.68713 14.3191 8.58362 14.78C8.13996 16.7555 7.7384 18.5435 7.28435 19.9455C7.01629 20.7732 6.7748 21.3167 6.57721 21.6287H4C2.89543 21.6287 2 22.5241 2 23.6287C2 24.7332 2.89543 25.6287 4 25.6287H19.2531C19.8163 30.1477 20.4008 34.6663 21.1311 38.1593C21.5304 40.0695 21.9995 41.8076 22.5898 43.108C22.8832 43.7541 23.2597 44.4138 23.7657 44.9388C24.288 45.4806 25.0756 46 26.1107 46C27.9384 46 28.9939 44.57 29.5327 43.5593C30.1298 42.4392 30.5687 40.9729 30.919 39.4153C31.6265 36.2694 32.1004 32.1332 32.5289 28.138C32.5779 27.6808 32.6263 27.2255 32.6744 26.7732L32.6747 26.771C32.7154 26.3878 32.756 26.0068 32.7964 25.6287H40.7887C40.8666 25.6304 40.9451 25.6304 41.0242 25.6287H44C45.1046 25.6287 46 24.7332 46 23.6287C46 22.5241 45.1046 21.6287 44 21.6287H41.0088C41.0036 21.6287 40.9984 21.6287 40.9932 21.6287H40.8454C40.6596 21.6201 40.5712 21.571 40.5116 21.5291C40.412 21.4589 40.2502 21.297 40.0622 20.9324C39.6557 20.1442 39.3925 18.9648 39.119 17.4401C39.0874 17.2641 39.0555 17.0819 39.0229 16.8952C38.8023 15.6352 38.5457 14.1695 38.1094 13.0073C37.8511 12.3192 37.466 11.548 36.8372 10.9324C36.1521 10.2616 35.2491 9.84941 34.184 9.84941C33.1999 9.84941 32.4688 10.3522 32.0062 10.852C31.5637 11.3301 31.255 11.9146 31.0276 12.4543C30.5688 13.5434 30.2277 14.9767 29.9485 16.5159C29.6746 18.0255 29.4376 19.7739 29.2175 21.6287H22.7857C22.2487 17.3582 21.6811 13.1382 20.977 9.83323C20.5696 7.92138 20.0898 6.18012 19.4846 4.87657C19.1836 4.22812 18.7979 3.56828 18.2816 3.04481C17.7474 2.5031 16.9571 2 15.9316 2ZM23.2843 25.6287C23.8299 29.9894 24.3784 34.1455 25.0464 37.3407C25.4126 39.092 25.7911 40.433 26.174 41.3231C26.4583 40.6782 26.7437 39.7504 27.0165 38.5377C27.6647 35.6553 28.1182 31.7538 28.5517 27.7114C28.6005 27.2565 28.649 26.7998 28.6976 26.3429C28.7229 26.1048 28.7482 25.8665 28.7735 25.6287H23.2843ZM18.7539 21.6287C18.2368 17.5425 17.7061 13.6768 17.0648 10.6668C16.6731 8.82862 16.267 7.44488 15.8566 6.56093C15.7865 6.40993 15.7224 6.28718 15.6659 6.18847C15.6546 6.1997 15.6429 6.21159 15.6309 6.22418C15.3509 6.51763 15.0158 7.04227 14.6579 7.86482C13.9426 9.50916 13.3665 11.786 12.8019 14.2594C12.7033 14.6914 12.6049 15.1304 12.506 15.5715C12.0609 17.5563 11.6068 19.5815 11.0898 21.1779C11.0411 21.3283 10.9906 21.4788 10.9382 21.6287H18.7539ZM33.2461 21.6287H36.0217C35.6126 20.4752 35.374 19.2175 35.1818 18.1463C35.1464 17.9488 35.1124 17.7569 35.0794 17.5705L35.0784 17.5649C34.8724 16.4013 34.7041 15.4511 34.4655 14.7048C34.268 15.3462 34.073 16.1894 33.8842 17.23C33.6493 18.525 33.442 20.016 33.2461 21.6287ZM15.9316 6L15.9269 5.99998L15.9301 5.99998L15.9316 6ZM25.7041 42.1203C25.704 42.1191 25.712 42.1107 25.7285 42.0989C25.7126 42.1157 25.7043 42.1216 25.7041 42.1203Z" fill="#95F4DE"/>
</svg>
