<svg width="201" height="40" viewBox="0 0 201 40" fill="none" xmlns="http://www.w3.org/2000/svg">
<path d="M35.4923 14.288L28.7065 6.88H10.0471V10.27H27.2035L30.8827 14.288L27.2035 18.306H13.4531V15.982H26.4439V12.592H10.0471V21.694H27.2035L30.8827 25.712L27.2035 29.73H10.0471V33.12H28.7065L35.4923 25.712L30.2598 20L35.4923 14.288Z" fill="white"/>
<path d="M26.0541 24.0179H10.0471V27.4079H26.0541V24.0179Z" fill="white"/>
<path d="M32.032 33.1201H36.6396L43.4253 25.7121L35.657 17.2321L33.3542 19.7481L38.8158 25.7121L32.032 33.1201Z" fill="white"/>
<path d="M50.8323 28.7478C50.4023 28.3278 50.1873 27.7878 50.1873 27.1258V10.6218H59.097C60.7668 10.6218 62.1071 11.0198 63.1218 11.8138C64.1366 12.6078 64.643 13.6578 64.643 14.9618V16.3278C64.643 16.9538 64.4903 17.5418 64.1848 18.0958C63.8794 18.6498 63.4574 19.0958 62.9189 19.4358V19.4638C63.799 19.7498 64.5023 20.2318 65.0328 20.9098C65.5613 21.5878 65.8265 22.3558 65.8265 23.2138V24.5538C65.8265 26.0358 65.3161 27.2118 64.2913 28.0778C63.2685 28.9438 61.8861 29.3778 60.1459 29.3778H52.5021C51.8189 29.3778 51.2643 29.1678 50.8323 28.7478ZM59.2577 18.6318C59.9208 18.6318 60.4594 18.4178 60.8733 17.9898C61.2872 17.5618 61.4922 17.0078 61.4922 16.3298V15.2298C61.4922 14.6598 61.2631 14.2038 60.805 13.8638C60.3468 13.5258 59.742 13.3558 58.9885 13.3558H53.336V18.6338H59.2577V18.6318ZM59.8766 26.6438C60.7548 26.6438 61.442 26.4478 61.9363 26.0538C62.4306 25.6618 62.6778 25.1158 62.6778 24.4198V23.2138C62.6778 22.6078 62.4628 22.1198 62.0327 21.7538C61.6007 21.3878 61.028 21.2038 60.3107 21.2038H53.338V26.6438H59.8807H59.8766Z" fill="white"/>
<path d="M68.5171 10.6218H78.2346C79.7778 10.6218 81.0257 11.0418 81.9761 11.8818C82.9266 12.7218 83.4028 13.8278 83.4028 15.2038V17.1058C83.4028 18.0338 83.1215 18.8518 82.5548 19.5578C81.9902 20.2638 81.2045 20.7858 80.1998 21.1258V21.1798C80.7745 21.5198 81.2367 21.9538 81.5863 22.4798C81.9359 23.0058 82.2374 23.6898 82.4885 24.5298L83.9956 29.3798H80.7383L79.2855 24.7438C79.0524 23.9398 78.6927 23.3238 78.2085 22.8958C77.7242 22.4678 77.1596 22.2538 76.5125 22.2538H71.6678V29.3818H68.5191V10.6218H68.5171ZM77.5353 19.5438C78.3612 19.5438 79.0203 19.3198 79.5146 18.8738C80.0089 18.4278 80.2541 17.8458 80.2541 17.1318V15.2838C80.2541 14.7118 80.0652 14.2478 79.6894 13.8898C79.3137 13.5318 78.8093 13.3538 78.1824 13.3538H71.6678V19.5438H77.5373H77.5353Z" fill="white"/>
<path d="M89.1658 28.7219C88.1249 28.1419 87.3171 27.3199 86.7424 26.2579C86.1677 25.1959 85.8804 23.9679 85.8804 22.5739V17.4299C85.8804 16.0359 86.1677 14.8079 86.7424 13.7459C87.3171 12.6839 88.1249 11.8619 89.1658 11.2819C90.2066 10.7019 91.4103 10.4099 92.7727 10.4099H95.626C96.9904 10.4099 98.1961 10.6999 99.247 11.2819C100.296 11.8619 101.108 12.6839 101.682 13.7459C102.255 14.8079 102.544 16.0359 102.544 17.4299V22.5739C102.544 23.9679 102.257 25.1959 101.682 26.2579C101.108 27.3199 100.296 28.1419 99.247 28.7219C98.1981 29.3019 96.9904 29.5939 95.626 29.5939H92.7727C91.4083 29.5939 90.2066 29.3039 89.1658 28.7219ZM95.626 26.8339C96.7372 26.8339 97.6455 26.4319 98.3448 25.6279C99.044 24.8239 99.3937 23.7699 99.3937 22.4659V17.5359C99.3937 16.2319 99.048 15.1779 98.3568 14.3739C97.6656 13.5699 96.7553 13.1679 95.624 13.1679H92.7968C91.6655 13.1679 90.7552 13.5699 90.064 14.3739C89.3727 15.1779 89.0271 16.2319 89.0271 17.5359V22.4659C89.0271 23.7699 89.3727 24.8239 90.064 25.6279C90.7552 26.4319 91.6655 26.8339 92.7968 26.8339H95.624H95.626Z" fill="white"/>
<path d="M108.332 28.9219C107.956 28.6179 107.695 28.1099 107.552 27.3939L104.269 10.6219H107.445L109.949 24.9019H110.003L114.175 11.6119H115.358C116.202 11.6119 116.775 12.0939 117.081 13.0579L120.661 24.8739H120.716L123.219 10.6199H126.396L123.085 27.3919C122.942 28.0719 122.695 28.5699 122.345 28.8919C121.996 29.2139 121.515 29.3739 120.904 29.3739H119.612L115.413 15.7619H115.358L111.052 29.3739H109.76C109.186 29.3739 108.711 29.2219 108.334 28.9179L108.332 28.9219Z" fill="white"/>
<path d="M128.818 10.6218H131.645L141.173 24.3398V10.6218H144.242V29.3778H141.389L131.886 15.7138V29.3778H128.818V10.6218Z" fill="white"/>
<path d="M148.873 27.9839C147.796 26.9119 147.258 25.4479 147.258 23.5899H150.354C150.354 24.5899 150.62 25.3799 151.148 25.9599C151.677 26.5399 152.408 26.8319 153.342 26.8319H156.33C157.208 26.8319 157.918 26.6399 158.456 26.2559C158.995 25.8719 159.264 25.3679 159.264 24.7419V23.5639C159.264 23.0819 159.075 22.6799 158.699 22.3579C158.324 22.0359 157.785 21.8139 157.084 21.6879L152.185 20.8559C150.66 20.6059 149.488 20.1059 148.672 19.3559C147.857 18.6059 147.449 17.6499 147.449 16.4899V15.0159C147.449 14.1059 147.696 13.3019 148.19 12.6039C148.684 11.9059 149.38 11.3679 150.276 10.9819C151.174 10.5979 152.215 10.4059 153.399 10.4059H156.441C157.554 10.4059 158.537 10.6339 159.389 11.0899C160.241 11.5459 160.9 12.1919 161.368 13.0319C161.834 13.8719 162.069 14.8359 162.069 15.9259H159.001C159.001 15.1039 158.764 14.4399 158.287 13.9299C157.811 13.4219 157.198 13.1659 156.443 13.1659H153.401C152.557 13.1659 151.879 13.3499 151.367 13.7159C150.857 14.0819 150.599 14.5779 150.599 15.2019V16.1659C150.599 16.6659 150.778 17.0819 151.138 17.4119C151.498 17.7419 152.016 17.9619 152.699 18.0679L157.598 18.9259C159.141 19.1939 160.331 19.6899 161.165 20.4119C162.001 21.1359 162.417 22.0599 162.417 23.1859V24.9279C162.417 25.8379 162.166 26.6479 161.663 27.3519C161.161 28.0579 160.452 28.6079 159.537 28.9999C158.623 29.3919 157.572 29.5899 156.389 29.5899H153.292C151.425 29.5899 149.954 29.0539 148.877 27.9819L148.873 27.9839Z" fill="white"/>
<path d="M165.564 10.6218H168.712V29.3778H165.564V10.6218Z" fill="white"/>
<path d="M172.643 10.6218H175.496L181.85 22.1958L188.041 10.6218H190.894V29.3778H187.798V16.4358L183.357 24.6358C183.106 25.0638 182.863 25.3718 182.63 25.5598C182.397 25.7478 182.135 25.8418 181.85 25.8418H180.962L175.713 16.4378V29.3798H172.645V10.6218H172.643Z" fill="white"/>
</svg>
