<?xml version="1.0" encoding="utf-8"?>
<!-- Generator: Adobe Illustrator 25.4.1, SVG Export Plug-In . SVG Version: 6.00 Build 0)  -->
<svg version="1.1" id="Laag_1" xmlns="http://www.w3.org/2000/svg" xmlns:xlink="http://www.w3.org/1999/xlink" x="0px" y="0px"
	 viewBox="0 0 1500 375.1" enable-background="new 0 0 1500 375.1" xml:space="preserve">
<g>
	<g>
		<g>
			<path fill="#0F1116" d="M603.4,93.2v20.2c0,30.3-14.5,44.3-46.2,44.3h-56.6v65.7h-30.7V49h87.3C588.9,49,603.4,63,603.4,93.2z
				 M548.5,131.1c18,0,24.1-5.7,24.1-22.4V97.9c0-16.7-6.1-22.4-24.1-22.4h-48v55.6H548.5z"/>
			<path fill="#0F1116" d="M644.8,49h87.8c31.5,0,46.2,14,46.2,44.3v18.9c0,26.8-11.8,40.8-36.4,43.5l51.4,67.6h-36.2l-52.4-67.1
				h-29.8v67.1h-30.7V49z M723.7,129.6c18.2,0,24.3-5.4,24.3-22.1v-9.6c0-16.7-6.1-22.4-24.3-22.4h-48.2v54.1H723.7z"/>
			<path fill="#0F1116" d="M965.3,90.8v91c0,30-14.5,44-46.2,44h-46.7c-31.7,0-46.5-14-46.5-44v-91c0-30.3,14.8-44.3,46.5-44.3h46.7
				C950.8,46.5,965.3,60.5,965.3,90.8z M910.5,73.1H881c-18.2,0-24.3,5.7-24.3,22.4v81.7c0,16.7,6.1,22.4,24.3,22.4h29.5
				c18.2,0,24.1-5.7,24.1-22.4V95.5C934.6,78.7,928.7,73.1,910.5,73.1z"/>
			<path fill="#0F1116" d="M1010.2,181.8v-91c0-30.3,14.8-44.3,46.5-44.3h46.7c31.7,0,46.2,14,46.2,43.8V93l-30.7,3.7V95
				c0-16.2-5.9-21.9-24.1-21.9h-29.5c-18.2,0-24.3,5.7-24.3,22.4v81.7c0,16.7,6.1,22.4,24.3,22.4h29.5c18.2,0,24.1-5.7,24.1-22.1
				v-1.7l30.7,3.7v2.7c0,29.8-14.5,43.8-46.2,43.8h-46.7C1024.9,225.8,1010.2,211.8,1010.2,181.8z"/>
			<path fill="#0F1116" d="M1283.9,225.8h-43.3c-31.7,0-46.5-14-46.5-44V49h30.7v128.1c0,16.7,6.1,22.4,24.3,22.4h26.1
				c18,0,24.1-5.7,24.1-22.4V49h30.7v132.8C1330.1,211.8,1315.6,225.8,1283.9,225.8z"/>
			<path fill="#0F1116" d="M1408.3,75.5v45h81.4v26.3h-81.4V197h91.7v26.3h-122.5V49H1500v26.6H1408.3z"/>
		</g>
		<g>
			<path fill="#0F1116" d="M469.8,318.6c0-0.4,0-0.4,0.1-0.6l6.9-0.8v0.4c0,3.8,1.4,5,5.5,5h6.8c4.1,0,5.5-1.3,5.5-5.1v-1
				c0-3.1-1.1-4-5.4-4.6l-9.7-1.4c-7-1-9.5-3.4-9.5-9.2v-3.5c0-6.9,3.4-10.1,10.5-10.1h10.4c7.2,0,10.5,3.2,10.5,10v0.6l-7,0.8v-0.4
				c0-3.7-1.4-5-5.5-5h-6.3c-4.1,0-5.6,1.3-5.6,5.1v0.7c0,3.1,1,3.9,5.5,4.6l9.7,1.4c7.1,1,9.5,3.4,9.5,9.3v3.7
				c0,6.8-3.3,10-10.5,10h-10.8C473.2,328.6,469.8,325.4,469.8,318.6z"/>
			<path fill="#0F1116" d="M514.3,288.3h7V328h-7V288.3z"/>
			<path fill="#0F1116" d="M573.5,288.3V328h-7v-28.2l-11.2,17.3h-2.7l-11.3-17.4V328h-7v-39.7h6.9l12.7,19.6l12.7-19.6H573.5z"/>
			<path fill="#0F1116" d="M607.2,328.6h-9.9c-7.2,0-10.6-3.2-10.6-10v-30.2h7v29.2c0,3.8,1.4,5.1,5.5,5.1h5.9
				c4.1,0,5.5-1.3,5.5-5.1v-29.2h7v30.2C617.7,325.4,614.4,328.6,607.2,328.6z"/>
			<path fill="#0F1116" d="M630.9,288.3h7V322h20v6h-27V288.3z"/>
			<path fill="#0F1116" d="M681.4,288.3h10.1l13.7,39.7H698l-3.5-10.5h-16l-3.5,10.5h-7.2L681.4,288.3z M692.4,311.5l-5.9-17.6
				l-5.9,17.6H692.4z"/>
			<path fill="#0F1116" d="M721.8,294.3h-12.5v-6h32.1v6h-12.6V328h-7V294.3z"/>
			<path fill="#0F1116" d="M784.2,297.8v20.7c0,6.8-3.3,10-10.5,10H763c-7.2,0-10.6-3.2-10.6-10v-20.7c0-6.9,3.4-10.1,10.6-10.1
				h10.6C780.9,287.7,784.2,290.9,784.2,297.8z M771.7,293.8H765c-4.1,0-5.5,1.3-5.5,5.1v18.6c0,3.8,1.4,5.1,5.5,5.1h6.7
				c4.1,0,5.5-1.3,5.5-5.1v-18.6C777.2,295.1,775.8,293.8,771.7,293.8z"/>
			<path fill="#0F1116" d="M797.1,288.3h20c7.2,0,10.5,3.2,10.5,10.1v4.3c0,6.1-2.7,9.3-8.3,9.9L831,328h-8.2l-11.9-15.3h-6.8V328
				h-7V288.3z M815.1,306.7c4.1,0,5.5-1.2,5.5-5v-2.2c0-3.8-1.4-5.1-5.5-5.1h-11v12.3H815.1z"/>
			<path fill="#0F1116" d="M898.1,288.3V328h-7v-28.2l-11.2,17.3h-2.7L866,299.7V328h-7v-39.7h6.9l12.7,19.6l12.7-19.6H898.1z"/>
			<path fill="#0F1116" d="M942.8,297.8v20.7c0,6.8-3.3,10-10.5,10h-10.6c-7.2,0-10.6-3.2-10.6-10v-20.7c0-6.9,3.4-10.1,10.6-10.1
				h10.6C939.5,287.7,942.8,290.9,942.8,297.8z M930.3,293.8h-6.7c-4.1,0-5.5,1.3-5.5,5.1v18.6c0,3.8,1.4,5.1,5.5,5.1h6.7
				c4.1,0,5.5-1.3,5.5-5.1v-18.6C935.8,295.1,934.5,293.8,930.3,293.8z"/>
			<path fill="#0F1116" d="M966.5,294.3h-12.5v-6h32.1v6h-12.6V328h-7V294.3z"/>
			<path fill="#0F1116" d="M997.5,288.3h7V328h-7V288.3z"/>
			<path fill="#0F1116" d="M1049.1,297.8v20.7c0,6.8-3.3,10-10.5,10H1028c-7.2,0-10.6-3.2-10.6-10v-20.7c0-6.9,3.4-10.1,10.6-10.1
				h10.6C1045.8,287.7,1049.1,290.9,1049.1,297.8z M1036.6,293.8h-6.7c-4.1,0-5.5,1.3-5.5,5.1v18.6c0,3.8,1.4,5.1,5.5,5.1h6.7
				c4.1,0,5.5-1.3,5.5-5.1v-18.6C1042.1,295.1,1040.8,293.8,1036.6,293.8z"/>
			<path fill="#0F1116" d="M1062,288.3h6.9l17.9,28.2v-28.2h7V328h-6.9l-18-28.3V328h-7V288.3z"/>
			<path fill="#0F1116" d="M1121.8,288.3h7.1l8.2,33.2l8.2-33.2h9.4l8.2,33.2l8.2-33.2h7.1l-10.5,39.7h-9.6l-8.1-32.6l-8.1,32.6
				h-9.6L1121.8,288.3z"/>
			<path fill="#0F1116" d="M1220.3,297.8v20.7c0,6.8-3.3,10-10.5,10h-10.6c-7.2,0-10.6-3.2-10.6-10v-20.7c0-6.9,3.4-10.1,10.6-10.1
				h10.6C1217,287.7,1220.3,290.9,1220.3,297.8z M1207.8,293.8h-6.7c-4.1,0-5.5,1.3-5.5,5.1v18.6c0,3.8,1.4,5.1,5.5,5.1h6.7
				c4.1,0,5.5-1.3,5.5-5.1v-18.6C1213.3,295.1,1212,293.8,1207.8,293.8z"/>
			<path fill="#0F1116" d="M1233.2,288.3h20c7.2,0,10.5,3.2,10.5,10.1v4.3c0,6.1-2.7,9.3-8.3,9.9l11.7,15.4h-8.2l-11.9-15.3h-6.8
				V328h-7V288.3z M1251.2,306.7c4.1,0,5.5-1.2,5.5-5v-2.2c0-3.8-1.4-5.1-5.5-5.1h-11v12.3H1251.2z"/>
			<path fill="#0F1116" d="M1278.7,288.3h7v16.5h5.1l12.2-16.5h8.2l-14.2,19.5l15.3,20.2h-8.2l-13.2-17.2h-5.2V328h-7V288.3z"/>
			<path fill="#0F1116" d="M1330.7,294.3v11.3h18.5v6h-18.5V328h-7v-39.7h27.9v6H1330.7z"/>
			<path fill="#0F1116" d="M1363.4,288.3h7V322h20v6h-27V288.3z"/>
			<path fill="#0F1116" d="M1433.2,297.8v20.7c0,6.8-3.3,10-10.5,10h-10.6c-7.2,0-10.6-3.2-10.6-10v-20.7c0-6.9,3.4-10.1,10.6-10.1
				h10.6C1429.9,287.7,1433.2,290.9,1433.2,297.8z M1420.7,293.8h-6.7c-4.1,0-5.5,1.3-5.5,5.1v18.6c0,3.8,1.4,5.1,5.5,5.1h6.7
				c4.1,0,5.5-1.3,5.5-5.1v-18.6C1426.2,295.1,1424.9,293.8,1420.7,293.8z"/>
			<path fill="#0F1116" d="M1443.6,288.3h7.1l8.2,33.2l8.2-33.2h9.4l8.2,33.2l8.2-33.2h7.1l-10.5,39.7h-9.6l-8.1-32.6l-8.1,32.6
				h-9.6L1443.6,288.3z"/>
		</g>
	</g>
	<path fill="#0F1116" d="M329.3,269.3L307,72.4c8.6-6.6,13.5-14,13.5-21.9C320.4,22.6,259,0,183.1,0C107.3,0,45.8,22.6,45.8,50.5
		c0,7.8,4.8,15.2,13.5,21.9L36.9,269.3C13.7,280.3,0,294.1,0,309c0,36.5,82,66,183.1,66c101.1,0,183.1-29.6,183.1-66
		C366.2,294.1,352.5,280.3,329.3,269.3z M283.1,61c0,10.2-17.2,19.2-43.3,24.5l5.1,10.1c17-3.2,32.1-7.5,44.1-12.9L306.7,239
		l0.4,3.2L202,31.7C248.2,34.3,283.1,46.4,283.1,61z M59.7,237.2L77.3,82.7c12,5.3,27,9.7,44,12.9l5.1-10.1
		C100.3,80.1,83.2,71.1,83.2,61c0-14.5,34.9-26.6,81-29.3L59.2,241.8L59.7,237.2z M183.1,330.9c-64.1,0-116.8-14.8-123.5-33.9
		c-0.5-1.3-0.3-2.8,0.3-4l13.7-29.2l0,0L182.1,32.1c0.4-0.8,1.6-0.8,2,0l120.3,256.7c0,0,0,0,0,0l2,4.3c0.6,1.3,0.7,2.8,0.3,4.1
		C299.7,316.2,247,330.9,183.1,330.9z"/>
</g>
</svg>
