<svg width="48" height="48" viewBox="0 0 48 48" fill="none" xmlns="http://www.w3.org/2000/svg">
<mask id="mask0_141_1214" style="mask-type:alpha" maskUnits="userSpaceOnUse" x="0" y="0" width="48" height="48">
<rect width="48" height="48" fill="#D9D9D9"/>
</mask>
<g mask="url(#mask0_141_1214)">
<path d="M18 30V18H30V30H18ZM22 26H26V22H22V26ZM18 42V38H14C12.9 38 11.9583 37.6083 11.175 36.825C10.3917 36.0417 10 35.1 10 34V30H6V26H10V22H6V18H10V14C10 12.9 10.3917 11.9583 11.175 11.175C11.9583 10.3917 12.9 10 14 10H18V6H22V10H26V6H30V10H34C35.1 10 36.0417 10.3917 36.825 11.175C37.6083 11.9583 38 12.9 38 14V18H42V22H38V26H42V30H38V34C38 35.1 37.6083 36.0417 36.825 36.825C36.0417 37.6083 35.1 38 34 38H30V42H26V38H22V42H18ZM34 34V14H14V34H34Z" fill="#95F4DE"/>
</g>
</svg>
