<svg width="48" height="48" viewBox="0 0 48 48" fill="none" xmlns="http://www.w3.org/2000/svg">
<path d="M31.0492 8.12473L31.2363 8H32.2965L32.3901 8.09355C32.4525 8.15592 32.4836 8.22868 32.4836 8.31183C32.4836 8.3742 32.3797 8.49893 32.1718 8.68603C31.6105 9.22654 31.122 9.71508 30.7062 10.1516C27.9205 13.2492 25.8208 17.3654 24.4072 22.5002C23.7004 25.0157 23.243 27.3752 23.0351 29.5788C22.9312 30.8054 22.9208 31.8656 23.0039 32.7595C23.1495 34.9839 23.7004 36.9069 24.6566 38.5284C24.8022 38.7779 24.8541 38.9442 24.8126 39.0273C24.7294 39.1313 24.4799 39.1833 24.0642 39.1833H23.5652L23.4093 39.0585C23.0767 38.7051 22.6713 38.1022 22.1932 37.2499C21.4863 35.9402 21.029 34.4538 20.8211 32.7907C20.4469 30.0674 20.7172 26.9075 21.6319 23.311C22.9624 18.2801 25.062 14.1743 27.9309 10.9936C28.8872 9.91257 29.885 8.98747 30.9245 8.21828C30.9661 8.17671 31.0076 8.14552 31.0492 8.12473Z" fill="#95F4DE"/>
<path d="M44.5628 8C44.2094 8 44.0119 8.0104 43.9703 8.03119C43.8664 8.09355 43.8144 8.1871 43.8144 8.31183C43.8144 8.33262 43.8768 8.44696 44.0015 8.65485C44.9578 10.2764 45.5087 12.189 45.6542 14.3926C45.7374 15.3281 45.727 16.3987 45.623 17.6044C45.3944 19.8288 44.937 22.178 44.251 24.6519C42.8373 29.8075 40.7377 33.9237 37.952 37.0004C37.5985 37.4162 37.11 37.9151 36.4863 38.4972C36.2785 38.6843 36.1745 38.8091 36.1745 38.8714C36.1745 38.9546 36.2057 39.0273 36.2681 39.0897L36.3616 39.1833H37.4218L37.6089 39.0585C37.6505 39.0377 37.6921 39.0066 37.7337 38.965C38.7731 38.1958 39.771 37.2707 40.7273 36.1897C43.5961 33.009 45.6958 28.8928 47.0263 23.8411C47.941 20.2862 48.2112 17.1263 47.837 14.3614C47.6084 12.6983 47.151 11.2223 46.465 9.93336C45.9868 9.08102 45.5815 8.47814 45.2488 8.12473L45.0929 8H44.5628Z" fill="#95F4DE"/>
<path d="M38.3204 18.5399C37.5097 17.75 36.4079 17.4589 35.015 17.6668C33.9964 17.7915 33.144 18.1657 32.458 18.7894C31.668 19.517 31.1171 20.4941 30.8053 21.7206C30.7637 21.9285 30.7429 22.2404 30.7429 22.6561C30.7429 23.0719 30.7637 23.3733 30.8053 23.5604C31.0963 24.5791 31.6888 25.2547 32.5827 25.5874C32.7698 25.6705 33.1232 25.7641 33.643 25.868C34.0587 25.9512 34.3914 26.0343 34.6408 26.1175C35.1605 26.3254 35.4932 26.6684 35.6387 27.1465C35.6803 27.4376 35.6803 27.739 35.6387 28.0508C35.4516 28.7161 35.1294 29.2358 34.672 29.61C33.9444 30.1713 33.0505 30.3688 31.9902 30.2025C31.4705 30.1401 31.034 29.9634 30.6805 29.6724L30.4934 29.5476L30.7117 29.4229C30.8365 29.3605 30.9612 29.2774 31.0859 29.1734C31.6472 28.6329 31.8759 28.0508 31.772 27.4272C31.668 26.8451 31.2938 26.5021 30.6494 26.3981C30.5038 26.3773 30.3271 26.3773 30.1192 26.3981C29.4124 26.5229 28.9135 26.8971 28.6225 27.5207C28.4354 27.8741 28.3522 28.2795 28.373 28.7369C28.373 29.0487 28.3938 29.267 28.4354 29.3917C28.4769 29.6204 28.6225 29.9218 28.8719 30.296C29.3293 30.9613 30.1712 31.4186 31.3978 31.6681C31.4393 31.6681 31.4809 31.6785 31.5225 31.6993C32.2085 31.7616 32.8426 31.7513 33.4247 31.6681C34.381 31.5226 35.2229 31.2003 35.9505 30.7014C36.4287 30.3688 36.8548 29.9426 37.229 29.4229C37.6032 28.8824 37.8735 28.3627 38.0398 27.8637C38.2061 27.3232 38.2997 26.8347 38.3204 26.3981C38.3204 25.8992 38.2685 25.4834 38.1645 25.1508C37.8735 24.2361 37.2914 23.5604 36.4183 23.1239C36.1688 22.9992 35.6491 22.8432 34.8591 22.6561C34.2147 22.5106 33.8197 22.3547 33.6741 22.1884C33.5078 22.0013 33.4039 21.7414 33.3623 21.4088C33.3623 21.1178 33.4039 20.8371 33.487 20.5669C33.7781 19.7977 34.2666 19.3195 34.9527 19.1324C35.4516 19.0077 35.9297 19.0389 36.3871 19.226C36.7821 19.4131 36.9796 19.5482 36.9796 19.6314C36.9588 19.6521 36.9172 19.6833 36.8548 19.7249C36.6262 19.8289 36.4079 20.0679 36.2 20.4421C36.0753 20.7124 36.0129 21.0034 36.0129 21.3153C36.0545 21.8558 36.3455 22.1884 36.886 22.3131C37.1147 22.3755 37.3538 22.3755 37.6032 22.3131C38.5595 22.0844 39.0377 21.4088 39.0377 20.2862C39.0377 19.8704 38.9441 19.4858 38.757 19.1324C38.6531 18.9038 38.5075 18.7063 38.3204 18.5399Z" fill="#95F4DE"/>
<path d="M13.0123 9.40323L12.3575 9.43442C10.0291 9.66309 7.80472 10.6402 5.68426 12.3656C4.85271 13.0725 4.15628 13.7689 3.59498 14.4549C3.28315 14.8291 2.91935 15.3073 2.50357 15.8894C1.13151 17.989 0.320742 20.203 0.0712762 22.5314C0.0712762 22.5938 0.0608817 22.6769 0.0400928 22.7809C-0.0222738 23.7163 -0.0118793 24.444 0.0712762 24.9637C0.196009 26.1279 0.507841 27.1777 1.00677 28.1132C1.3394 28.7784 1.75517 29.3605 2.2541 29.8595C3.33512 31.0028 4.74876 31.7201 6.49503 32.0111C7.38895 32.0943 8.18932 32.0839 8.89614 31.9799C10.6008 31.7304 12.0041 31.1172 13.1059 30.1401L13.3553 29.8906L13.5424 30.1089C13.584 30.1713 13.6464 30.244 13.7295 30.3272C14.3116 30.9509 14.7274 31.3043 14.9769 31.3874C15.0808 31.429 15.1744 31.3874 15.2575 31.2627C15.2991 31.2211 15.5798 30.1505 16.0995 28.0508C16.64 25.9511 16.9206 24.8805 16.9414 24.8389C17.0038 24.7766 17.0558 24.735 17.0973 24.7142C17.2636 24.6518 17.6794 24.6207 18.3447 24.6207C18.7397 24.6207 18.9579 24.5479 18.9995 24.4024L19.2802 23.1862C19.2802 23.1239 19.2386 23.0511 19.1554 22.9679L19.0619 22.8744H18.7812C17.4715 22.9783 15.1328 22.9887 11.765 22.9056H11.1101C10.7567 22.8848 10.5385 22.9368 10.4553 23.0615L10.1435 24.2776C10.1435 24.4232 10.2058 24.5167 10.3306 24.5583C10.4137 24.5999 10.8295 24.6207 11.5779 24.6207L13.0435 24.683C13.3969 24.7246 13.5736 24.7662 13.5736 24.8078C13.5736 24.7662 13.3034 25.8264 12.7629 27.9885C12.5758 28.4458 12.2639 28.8512 11.8274 29.2046C10.58 30.2233 9.09363 30.5455 7.36816 30.1713C7.22264 30.1505 7.07711 30.1193 6.93159 30.0777C5.4348 29.6412 4.41614 28.7161 3.87563 27.3024C3.62617 26.658 3.50143 25.8576 3.50143 24.9013C3.50143 23.5708 3.78208 21.8765 4.34338 19.8184C5.2373 16.7209 6.60937 14.4653 8.45957 13.0517C9.27034 12.3864 10.185 11.8875 11.2037 11.5549C12.056 11.2846 12.8668 11.1599 13.636 11.1807C14.031 11.1807 14.322 11.2015 14.5091 11.243C15.8812 11.6172 16.6816 12.823 16.9102 14.8603C17.0142 15.8374 16.983 16.8664 16.8167 17.9474C16.7751 18.2385 16.7959 18.4256 16.8791 18.5087L16.9726 18.6023H17.6274C18.168 18.6023 18.459 18.5399 18.5006 18.4152C18.5006 18.4776 18.8748 17.0119 19.6232 14.0184C20.33 11.1079 20.673 9.63191 20.6522 9.59033C20.6106 9.4656 20.4547 9.40323 20.1845 9.40323H19.935L18.75 10.5882L17.5651 11.742C17.5443 11.742 17.4611 11.6276 17.3156 11.399C16.297 10.0685 14.8729 9.40323 13.0435 9.40323H13.0123Z" fill="#95F4DE"/>
</svg>
