<svg width="393" height="50" viewBox="0 0 393 50" fill="none" xmlns="http://www.w3.org/2000/svg">
<rect width="393" height="50" fill="#171617"/>
<path d="M50.619 20.7159L45.5297 15.1599H31.5352V17.7024H44.4024L47.1618 20.7159L44.4024 23.7294H34.0896V21.9864H43.8328V19.4439H31.5352V26.2704H44.4024L47.1618 29.2839L44.4024 32.2974H31.5352V34.8399H45.5297L50.619 29.2839L46.6947 24.9999L50.619 20.7159Z" fill="white"/>
<path d="M43.5404 28.0134H31.5352V30.5559H43.5404V28.0134Z" fill="white"/>
<path d="M48.0239 34.8398H51.4796L56.5689 29.2838L50.7427 22.9238L49.0156 24.8108L53.1118 29.2838L48.0239 34.8398Z" fill="white"/>
<path d="M62.1244 31.5611C61.8019 31.2461 61.6406 30.8411 61.6406 30.3446V17.9666H68.3229C69.5753 17.9666 70.5805 18.2651 71.3416 18.8606C72.1026 19.4561 72.4824 20.2436 72.4824 21.2216V22.2461C72.4824 22.7156 72.3679 23.1566 72.1388 23.5721C71.9097 23.9876 71.5932 24.3221 71.1893 24.5771V24.5981C71.8494 24.8126 72.3769 25.1741 72.7748 25.6826C73.1711 26.1911 73.3701 26.7671 73.3701 27.4106V28.4156C73.3701 29.5271 72.9873 30.4091 72.2187 31.0586C71.4516 31.7081 70.4147 32.0336 69.1096 32.0336H63.3768C62.8644 32.0336 62.4484 31.8761 62.1244 31.5611ZM68.4435 23.9741C68.9408 23.9741 69.3447 23.8136 69.6552 23.4926C69.9656 23.1716 70.1193 22.7561 70.1193 22.2476V21.4226C70.1193 20.9951 69.9475 20.6531 69.6039 20.3981C69.2603 20.1446 68.8067 20.0171 68.2415 20.0171H64.0022V23.9756H68.4435V23.9741ZM68.9077 29.9831C69.5662 29.9831 70.0817 29.8361 70.4524 29.5406C70.8231 29.2466 71.0085 28.8371 71.0085 28.3151V27.4106C71.0085 26.9561 70.8472 26.5901 70.5247 26.3156C70.2007 26.0411 69.7712 25.9031 69.2332 25.9031H64.0037V29.9831H68.9107H68.9077Z" fill="white"/>
<path d="M75.3882 17.9666H82.6763C83.8337 17.9666 84.7696 18.2816 85.4825 18.9116C86.1953 19.5416 86.5525 20.3711 86.5525 21.4031V22.8296C86.5525 23.5256 86.3415 24.1391 85.9165 24.6686C85.493 25.1981 84.9038 25.5896 84.1502 25.8446V25.8851C84.5812 26.1401 84.9279 26.4656 85.1901 26.8601C85.4523 27.2546 85.6784 27.7676 85.8668 28.3976L86.9971 32.0351H84.5541L83.4645 28.5581C83.2897 27.9551 83.0199 27.4931 82.6567 27.1721C82.2935 26.8511 81.87 26.6906 81.3848 26.6906H77.7513V32.0366H75.3897V17.9666H75.3882ZM82.1519 24.6581C82.7713 24.6581 83.2656 24.4901 83.6363 24.1556C84.0071 23.8211 84.1909 23.3846 84.1909 22.8491V21.4631C84.1909 21.0341 84.0492 20.6861 83.7674 20.4176C83.4856 20.1491 83.1073 20.0156 82.6371 20.0156H77.7513V24.6581H82.1534H82.1519Z" fill="white"/>
<path d="M90.8747 31.5414C90.094 31.1064 89.4882 30.4899 89.0572 29.6934C88.6262 28.8969 88.4106 27.9759 88.4106 26.9304V23.0724C88.4106 22.0269 88.6262 21.1059 89.0572 20.3094C89.4882 19.5129 90.094 18.8964 90.8747 18.4614C91.6553 18.0264 92.5581 17.8074 93.5799 17.8074H95.7199C96.7432 17.8074 97.6474 18.0249 98.4356 18.4614C99.2223 18.8964 99.8311 19.5129 100.262 20.3094C100.692 21.1059 100.909 22.0269 100.909 23.0724V26.9304C100.909 27.9759 100.693 28.8969 100.262 29.6934C99.8311 30.4899 99.2223 31.1064 98.4356 31.5414C97.6489 31.9764 96.7432 32.1954 95.7199 32.1954H93.5799C92.5566 32.1954 91.6553 31.9779 90.8747 31.5414ZM95.7199 30.1254C96.5533 30.1254 97.2345 29.8239 97.7589 29.2209C98.2834 28.6179 98.5456 27.8274 98.5456 26.8494V23.1519C98.5456 22.1739 98.2864 21.3834 97.768 20.7804C97.2495 20.1774 96.5668 19.8759 95.7184 19.8759H93.5979C92.7495 19.8759 92.0668 20.1774 91.5483 20.7804C91.0299 21.3834 90.7707 22.1739 90.7707 23.1519V26.8494C90.7707 27.8274 91.0299 28.6179 91.5483 29.2209C92.0668 29.8239 92.7495 30.1254 93.5979 30.1254H95.7184H95.7199Z" fill="white"/>
<path d="M105.249 31.6913C104.967 31.4633 104.771 31.0823 104.664 30.5453L102.202 17.9663H104.584L106.462 28.6763H106.503L109.631 18.7088H110.519C111.152 18.7088 111.582 19.0703 111.811 19.7933L114.496 28.6553H114.537L116.415 17.9648H118.797L116.314 30.5438C116.207 31.0538 116.021 31.4273 115.759 31.6688C115.497 31.9103 115.137 32.0303 114.679 32.0303H113.71L110.56 21.8213H110.519L107.289 32.0303H106.32C105.889 32.0303 105.534 31.9163 105.25 31.6883L105.249 31.6913Z" fill="white"/>
<path d="M120.613 17.9666H122.734L129.88 28.2551V17.9666H132.181V32.0336H130.041L122.915 21.7856V32.0336H120.613V17.9666Z" fill="white"/>
<path d="M135.656 30.9879C134.848 30.1839 134.444 29.0859 134.444 27.6924H136.766C136.766 28.4424 136.965 29.0349 137.362 29.4699C137.758 29.9049 138.306 30.1239 139.007 30.1239H141.248C141.907 30.1239 142.439 29.9799 142.843 29.6919C143.247 29.4039 143.449 29.0259 143.449 28.5564V27.6729C143.449 27.3114 143.307 27.0099 143.025 26.7684C142.743 26.5269 142.339 26.3604 141.813 26.2659L138.139 25.6419C136.995 25.4544 136.117 25.0794 135.505 24.5169C134.893 23.9544 134.587 23.2374 134.587 22.3674V21.2619C134.587 20.5794 134.772 19.9764 135.143 19.4529C135.514 18.9294 136.035 18.5259 136.707 18.2364C137.381 17.9484 138.162 17.8044 139.049 17.8044H141.331C142.166 17.8044 142.903 17.9754 143.542 18.3174C144.181 18.6594 144.675 19.1439 145.026 19.7739C145.376 20.4039 145.552 21.1269 145.552 21.9444H143.251C143.251 21.3279 143.073 20.8299 142.716 20.4474C142.359 20.0664 141.899 19.8744 141.333 19.8744H139.051C138.418 19.8744 137.91 20.0124 137.526 20.2869C137.143 20.5614 136.95 20.9334 136.95 21.4014V22.1244C136.95 22.4994 137.084 22.8114 137.354 23.0589C137.624 23.3064 138.013 23.4714 138.525 23.5509L142.199 24.1944C143.357 24.3954 144.249 24.7674 144.874 25.3089C145.501 25.8519 145.813 26.5449 145.813 27.3894V28.6959C145.813 29.3784 145.625 29.9859 145.248 30.5139C144.871 31.0434 144.339 31.4559 143.653 31.7499C142.968 32.0439 142.18 32.1924 141.292 32.1924H138.97C137.569 32.1924 136.466 31.7904 135.659 30.9864L135.656 30.9879Z" fill="white"/>
<path d="M148.173 17.9666H150.534V32.0336H148.173V17.9666Z" fill="white"/>
<path d="M153.482 17.9666H155.622L160.388 26.6471L165.031 17.9666H167.171V32.0336H164.849V22.3271L161.518 28.4771C161.33 28.7981 161.147 29.0291 160.973 29.1701C160.798 29.3111 160.602 29.3816 160.388 29.3816H159.722L155.785 22.3286V32.0351H153.484V17.9666H153.482Z" fill="white"/>
<mask id="mask0_114_692" style="mask-type:alpha" maskUnits="userSpaceOnUse" x="345" y="13" width="24" height="24">
<rect x="345" y="13" width="24" height="24" fill="#D9D9D9"/>
</mask>
<g mask="url(#mask0_114_692)">
<path d="M348 31V29H366V31H348ZM348 26V24H366V26H348ZM348 21V19H366V21H348Z" fill="#FFD053"/>
</g>
</svg>
