<?xml version="1.0" encoding="UTF-8"?>
<svg id="BG" xmlns="http://www.w3.org/2000/svg" version="1.1" xmlns:xlink="http://www.w3.org/1999/xlink" viewBox="0 0 3840 2160">
  <!-- Generator: Adobe Illustrator 29.7.0, SVG Export Plug-In . SVG Version: 2.1.1 Build 138)  -->
  <defs>
    <clipPath id="clippath">
      <rect width="3840" height="2160" fill="none"/>
    </clipPath>
    <linearGradient id="linear-gradient" x1="1920" y1="1260.945" x2="1920" y2="2230.495" gradientUnits="userSpaceOnUse">
      <stop offset="0" stop-color="#000"/>
      <stop offset=".268" stop-color="#454545"/>
      <stop offset="1" stop-color="#fff"/>
    </linearGradient>
  </defs>
  <g clip-path="url(#clippath)">
    <rect width="3840" height="2160"/>
    <path d="M-1466.143,2172.505l-168.674,57.99h9.059l163.082-56.153h132.973l-24.792,56.153h11.371l25.28-57.99,155.241-54.782h126.991l-16.531,54.782-156.552,57.99h11.372l151.28-56.153h130.725l-13.054,56.153h11.371l13.158-57.99,143.789-54.782h126.991l-5.08,54.782-144.43,57.99h11.371l139.542-56.153h130.725l-1.316,56.153h11.371l1.035-57.99,132.338-54.782h126.992l6.372,54.782-132.308,57.99h11.371l127.804-56.153H-86.553l10.422,56.153h11.371l-11.087-57.99,120.886-54.782h126.991l17.823,54.782-120.186,57.99h11.371l116.065-56.153h130.725l22.16,56.153h11.372l-23.209-57.99,109.435-54.782h126.991l29.274,54.782-108.063,57.99h11.371l104.327-56.153h130.725l33.899,56.153h11.371l-35.331-57.99,97.983-54.782h126.991l40.726,54.782-95.941,57.99h11.371l92.589-56.153h130.725l45.637,56.153h11.372l-47.453-57.99,86.532-54.782h126.991l52.178,54.782-83.82,57.99h11.371l80.851-56.153h130.725l57.374,56.153h11.371l-59.575-57.99,75.08-54.782h126.992l63.629,54.782-71.697,57.99h11.371l69.113-56.153h130.725l69.113,56.153h11.371l-71.697-57.99,63.629-54.782h126.991l75.081,54.782-59.575,57.99h11.372l57.375-56.153h130.725l80.851,56.153h11.372l-83.819-57.99,52.177-54.782h126.991l86.532,54.782-47.453,57.99h11.372l45.637-56.153h130.724l92.589,56.153h11.372l-95.942-57.99,40.726-54.782h126.991l97.983,54.782-35.331,57.99h11.372l33.898-56.153h130.725l104.327,56.153h11.371l-108.064-57.99,29.274-54.782h126.991l109.435,54.782-23.209,57.99h11.371l22.161-56.153h130.725l116.065,56.153h11.371l-120.186-57.99,17.823-54.782h126.991l120.887,54.782-11.087,57.99h11.371l10.422-56.153h130.724l127.804,56.153h11.371l-132.308-57.99,6.372-54.782h126.991l132.338,54.782,1.036,57.99h11.371l-1.316-56.153h130.725l139.542,56.153h11.371l-144.43-57.99-5.08-54.782h126.992l143.789,54.782,13.158,57.99h11.371l-13.054-56.153h130.725l151.28,56.153h11.371l-156.552-57.99-16.532-54.782h126.991l155.241,54.782,25.279,57.99h11.371l-24.792-56.153h132.973l163.082,56.153h9.059l-168.675-57.99-28.869-56.515-159.023-53.379-22.237-50.497-145.899-47.843-16.792-45.392-134.549-43.125-12.287-41.023-124.656-39.072-8.534-37.256-115.971-35.565-5.391-33.985-108.298-32.509-2.745-31.127-101.479-29.831-.508-28.615-95.385-27.471,1.39-26.395-89.913-25.381,3.007-24.423-84.978-23.52,4.387-22.665-80.507-21.856,5.567-21.09-76.442-20.363,6.579-19.674-72.732-19.018,7.447-18.395-71.486-18.354h-75.272l-65.875-17.22h-77.666l-11.88,17.22h-71.626l-62.275-17.22h-77.666l-15.48,17.22h-71.626l-58.676-17.22h-77.666l-19.079,17.22h-71.626l-55.076-17.22h-77.666l-22.679,17.22h-71.626l-51.476-17.22h-77.666l-26.279,17.22h-71.626l-47.877-17.22h-77.666l-29.878,17.22h-71.626l-44.277-17.22h-77.666l-33.478,17.22h-71.626l-40.677-17.22h-77.666l-37.078,17.22h-71.626l-37.078-17.22h-77.667l-40.677,17.22h-71.626l-33.478-17.22h-77.666l-44.277,17.22h-71.626l-29.878-17.22h-77.666l-47.877,17.22h-71.626l-26.279-17.22h-77.666l-51.476,17.22h-71.626l-22.679-17.22h-77.666l-55.076,17.22h-71.627l-19.079-17.22h-77.666l-58.676,17.22h-71.627l-15.48-17.22h-77.666l-62.275,17.22h-71.626l-11.88-17.22h-77.666l-65.875,17.22h-75.272l-71.486,18.354,7.447,18.395-72.732,19.018,6.579,19.674-76.442,20.363,5.567,21.09-80.507,21.856,4.387,22.665-84.978,23.52,3.007,24.423-89.913,25.381,1.39,26.395-95.385,27.471-.508,28.615-101.479,29.831-2.745,31.127-108.298,32.509-5.391,33.985-115.972,35.565-8.534,37.256-124.656,39.072-12.287,41.023-134.549,43.125-16.792,45.392-145.899,47.843-22.237,50.497-159.023,53.379-28.869,56.515ZM-1157.058,2114.259l18.877-51.649,142.151-48.946h120.129l-11.323,48.946-143.072,51.649h-126.763ZM699.491,1596.307h92.606l25.662,28.909-73.077,30.124h-96.499l-22.7-30.124,74.008-28.909ZM619.952,1624.256h-94.449l-19.755-28.871,74.864-27.73h90.717l22.694,27.73-74.071,28.871ZM799.107,1595.385l69.067-27.73h90.717l28.491,27.73-68.035,28.871h-94.449l-25.79-28.871ZM993.042,1596.307h92.606l31.706,28.909-66.781,30.124h-96.499l-28.997-30.124,67.965-28.909ZM1092.466,1595.385l63.27-27.73h90.717l34.287,27.73-62,28.871h-94.449l-31.825-28.871ZM1286.594,1596.307h92.606l37.749,28.909-60.483,30.124h-96.499l-35.294-30.124,61.921-28.909ZM1385.825,1595.385l57.474-27.73h90.717l40.084,27.73-55.966,28.871h-94.449l-37.86-28.871ZM1580.146,1596.307h92.606l43.792,28.909-54.186,30.124h-96.499l-41.592-30.124,55.878-28.909ZM1679.184,1595.385l51.677-27.73h90.717l45.88,27.73-49.93,28.871h-94.45l-43.895-28.871ZM1873.698,1596.307h92.606l49.835,28.909-47.889,30.124h-96.499l-47.889-30.124,49.835-28.909ZM1972.543,1595.385l45.881-27.73h90.717l51.677,27.73-43.895,28.871h-94.449l-49.93-28.871ZM2167.249,1596.307h92.606l55.878,28.909-41.592,30.124h-96.499l-54.186-30.124,43.792-28.909ZM2265.902,1595.385l40.084-27.73h90.717l57.474,27.73-37.86,28.871h-94.449l-55.965-28.871ZM2460.801,1596.307h92.606l61.922,28.909-35.295,30.124h-96.499l-60.483-30.124,37.749-28.909ZM2559.26,1595.385l34.288-27.73h90.717l63.27,27.73-31.825,28.871h-94.449l-62.001-28.871ZM2754.352,1596.307h92.606l67.965,28.909-28.997,30.124h-96.499l-66.78-30.124,31.706-28.909ZM2852.619,1595.385l28.491-27.73h90.717l69.067,27.73-25.79,28.871h-94.449l-68.035-28.871ZM3047.904,1596.307h92.606l74.008,28.909-22.7,30.124h-96.499l-73.077-30.124,25.663-28.909ZM3145.978,1595.385l22.694-27.73h90.717l74.864,27.73-19.755,28.871h-94.449l-74.071-28.871ZM3341.456,1596.307h92.606l80.051,28.909-16.403,30.124h-96.499l-79.375-30.124,19.62-28.909ZM3339.59,1594.464l-74.921-27.694,19.942-26.621h88.903l75.591,26.621-17.03,27.694h-92.485ZM3257.667,1565.887h-90.6l-70.085-26.587,22.734-25.578h87.16l70.856,25.578-20.065,26.587ZM3161.727,1566.77l-22.819,27.694h-92.485l-69.132-27.694,25.507-26.621h88.903l70.026,26.621ZM2970.474,1565.887h-90.6l-64.527-26.587,28.081-25.578h87.16l65.509,25.578-25.623,26.587ZM2874.35,1566.77l-28.608,27.694h-92.485l-63.343-27.694,31.072-26.621h88.903l64.461,26.621ZM2683.282,1565.887h-90.6l-58.97-26.587,33.428-25.578h87.16l60.162,25.578-31.18,26.587ZM2586.973,1566.77l-34.398,27.694h-92.484l-57.554-27.694,36.637-26.621h88.903l58.896,26.621ZM2396.089,1565.887h-90.6l-53.412-26.587,38.775-25.578h87.16l54.815,25.578-36.738,26.587ZM2299.596,1566.77l-40.186,27.694h-92.485l-51.764-27.694,42.201-26.621h88.903l53.331,26.621ZM2108.897,1565.887h-90.6l-47.854-26.587,44.122-25.578h87.16l49.469,25.578-42.296,26.587ZM2012.219,1566.77l-45.975,27.694h-92.485l-45.975-27.694,47.766-26.621h88.903l47.766,26.621ZM1821.705,1565.887h-90.601l-42.296-26.587,49.468-25.578h87.161l44.122,25.578-47.854,26.587ZM1724.841,1566.77l-51.765,27.694h-92.485l-40.186-27.694,53.331-26.621h88.903l42.201,26.621ZM1534.512,1565.887h-90.6l-36.738-26.587,54.815-25.578h87.16l38.775,25.578-53.412,26.587ZM1437.464,1566.77l-57.554,27.694h-92.485l-34.397-27.694,58.896-26.621h88.903l36.636,26.621ZM1247.319,1565.887h-90.6l-31.181-26.587,60.162-25.578h87.16l33.428,25.578-58.969,26.587ZM1150.087,1566.77l-63.343,27.694h-92.485l-28.608-27.694,64.461-26.621h88.903l31.072,26.621ZM960.127,1565.887h-90.6l-25.623-26.587,65.509-25.578h87.16l28.081,25.578-64.527,26.587ZM862.709,1566.77l-69.132,27.694h-92.485l-22.819-27.694,70.026-26.621h88.903l25.507,26.621ZM672.934,1565.887h-90.6l-20.065-26.587,70.856-25.578h87.16l22.735,25.578-70.085,26.587ZM575.332,1566.77l-74.921,27.694h-92.485l-17.03-27.694,75.591-26.621h88.903l19.942,26.621ZM498.546,1596.307l19.619,28.909-79.375,30.124h-96.5l-16.403-30.124,80.051-28.909h92.607ZM436.759,1657.348l19.162,31.505-84.344,32.89h-100.879l-15.592-32.89,85.02-31.505h96.632ZM444.317,1656.344l79.314-30.165h94.576l22.563,30.165-78.501,31.462h-98.64l-19.311-31.462ZM646.439,1657.348h96.632l25.748,31.505-77.469,32.89h-100.878l-22.467-32.89,78.434-31.505ZM750.419,1656.344l73.008-30.165h94.576l28.868,30.165-71.925,31.462h-98.64l-25.888-31.462ZM952.75,1657.348h96.632l32.334,31.505-70.594,32.89h-100.878l-29.342-32.89,71.849-31.505ZM1056.52,1656.344l66.703-30.165h94.576l35.174,30.165-65.348,31.462h-98.64l-32.465-31.462ZM1259.062,1657.348h96.632l38.92,31.505-63.718,32.89h-100.878l-36.217-32.89,65.263-31.505ZM1362.622,1656.344l60.397-30.165h94.576l41.48,30.165-58.772,31.462h-98.64l-39.041-31.462ZM1565.373,1657.348h96.632l45.505,31.505-56.843,32.89h-100.878l-43.093-32.89,58.677-31.505ZM1668.723,1656.344l54.091-30.165h94.577l47.785,30.165-52.195,31.462h-98.641l-45.618-31.462ZM1871.685,1657.348h96.632l52.091,31.505-49.968,32.89h-100.878l-49.968-32.89,52.091-31.505ZM1974.825,1656.344l47.785-30.165h94.576l54.091,30.165-45.618,31.462h-98.64l-52.195-31.462ZM2177.996,1657.348h96.632l58.677,31.505-43.093,32.89h-100.878l-56.843-32.89,45.505-31.505ZM2280.927,1656.344l41.48-30.165h94.576l60.397,30.165-39.041,31.462h-98.64l-58.771-31.462ZM2484.308,1657.348h96.631l65.263,31.505-36.218,32.89h-100.878l-63.719-32.89,38.92-31.505ZM2587.028,1656.344l35.174-30.165h94.576l66.702,30.165-32.465,31.462h-98.64l-65.348-31.462ZM2790.619,1657.348h96.632l71.849,31.505-29.342,32.89h-100.878l-70.594-32.89,32.334-31.505ZM2893.129,1656.344l28.868-30.165h94.576l73.009,30.165-25.888,31.462h-98.64l-71.925-31.462ZM3096.93,1657.348h96.632l78.434,31.505-22.467,32.89h-100.878l-77.469-32.89,25.748-31.505ZM3199.231,1656.344l22.562-30.165h94.576l79.314,30.165-19.311,31.462h-98.64l-78.501-31.462ZM3403.242,1657.348h96.631l85.02,31.505-15.592,32.89h-100.878l-84.344-32.89,19.163-31.505ZM3505.332,1656.344l16.257-30.165h94.576l85.62,30.165-12.735,31.462h-98.64l-85.078-31.462ZM3519.443,1624.256l-80.106-28.871,16.898-27.73h90.717l80.66,27.73-13.719,28.871h-94.449ZM3454.259,1565.887l-75.643-26.587,17.388-25.578h87.16l76.202,25.578-14.507,26.587h-90.6ZM3394.181,1512.088l-71.618-24.565,17.756-23.667h83.872l72.176,23.667-15.133,24.565h-87.053ZM3389.191,1512.904l-17.509,25.546h-88.791l-70.91-25.546,20.156-24.595h85.484l71.569,24.595ZM3205.286,1512.088h-87.052l-66.483-24.565,22.703-23.667h83.872l67.229,23.667-20.269,24.565ZM3113.074,1512.904l-22.849,25.546h-88.791l-65.569-25.546,25.297-24.595h85.484l66.427,24.595ZM2929.34,1512.088h-87.052l-61.348-24.565,27.65-23.667h83.872l62.282,23.667-25.404,24.565ZM2836.956,1512.904l-28.189,25.546h-88.791l-60.229-25.546,30.439-24.595h85.484l61.286,24.595ZM2653.393,1512.088h-87.052l-56.213-24.565,32.598-23.667h83.872l57.334,23.667-30.538,24.565ZM2560.84,1512.904l-33.529,25.546h-88.791l-54.89-25.546,35.58-24.595h85.484l56.145,24.595ZM2377.447,1512.088h-87.052l-51.078-24.565,37.545-23.667h83.872l52.387,23.667-35.673,24.565ZM2284.722,1512.904l-38.869,25.546h-88.791l-49.549-25.546,40.721-24.595h85.484l51.003,24.595ZM2101.5,1512.088h-87.052l-45.943-24.565,42.493-23.667h83.872l47.44,23.667-40.808,24.565ZM2008.605,1512.904l-44.209,25.546h-88.791l-44.209-25.546,45.862-24.595h85.484l45.862,24.595ZM1825.554,1512.088h-87.053l-40.808-24.565,47.44-23.667h83.872l42.492,23.667-45.943,24.565ZM1732.488,1512.904l-49.549,25.546h-88.791l-38.869-25.546,51.004-24.595h85.484l40.721,24.595ZM1549.606,1512.088h-87.052l-35.673-24.565,52.387-23.667h83.872l37.545,23.667-51.078,24.565ZM1456.37,1512.904l-54.889,25.546h-88.791l-33.529-25.546,56.145-24.595h85.484l35.58,24.595ZM1273.66,1512.088h-87.052l-30.539-24.565,57.334-23.667h83.872l32.598,23.667-56.213,24.565ZM1180.254,1512.904l-60.23,25.546h-88.791l-28.189-25.546,61.286-24.595h85.484l30.439,24.595ZM997.713,1512.088h-87.052l-25.403-24.565,62.282-23.667h83.872l27.65,23.667-61.348,24.565ZM904.136,1512.904l-65.569,25.546h-88.791l-22.849-25.546,66.427-24.595h85.484l25.297,24.595ZM721.767,1512.088h-87.052l-20.268-24.565,67.229-23.667h83.872l22.703,23.667-66.483,24.565ZM628.019,1512.904l-70.91,25.546h-88.791l-17.508-25.546,71.568-24.595h85.485l20.156,24.595ZM445.82,1512.088h-87.053l-15.133-24.565,72.176-23.667h83.872l17.756,23.667-71.618,24.565ZM443.997,1513.721l17.388,25.578-75.643,26.587h-90.601l-14.507-26.587,76.202-25.578h87.161ZM383.767,1567.655l16.897,27.73-80.106,28.871h-94.45l-13.719-28.871,80.66-27.73h90.717ZM318.412,1626.178l16.257,30.165-85.078,31.462h-98.641l-12.734-31.462,85.62-30.165h94.577ZM247.249,1689.902l15.43,32.936-90.647,34.417h-103.221l-11.507-34.417,91.165-32.936h98.779ZM268.334,1723.935h101.023l18.536,34.467-89.919,36.054h-105.674l-14.553-36.054,90.586-34.467ZM377.307,1722.838l84.28-32.936h98.778l22.315,32.936-83.452,34.417h-103.22l-18.701-34.417ZM588.566,1723.935h101.023l25.741,34.467-82.382,36.054h-105.673l-22.089-36.054,83.381-34.467ZM697.309,1722.838l77.395-32.936h98.778l29.2,32.936-76.258,34.417h-103.22l-25.896-34.417ZM908.797,1723.935h101.023l32.946,34.467-74.846,36.054h-105.673l-29.626-36.054,76.176-34.467ZM1017.31,1722.838l70.51-32.936h98.778l36.085,32.936-69.063,34.417h-103.22l-33.091-34.417ZM1229.027,1723.935h101.023l40.151,34.467-67.309,36.054h-105.673l-37.162-36.054,68.971-34.467ZM1337.311,1722.838l63.625-32.936h98.778l42.97,32.936-61.869,34.417h-103.22l-40.285-34.417ZM1549.258,1723.935h101.023l47.356,34.467-59.772,36.054h-105.673l-44.699-36.054,61.766-34.467ZM1657.313,1722.838l56.74-32.936h98.779l49.855,32.936-54.674,34.417h-103.221l-47.479-34.417ZM1869.489,1723.935h101.023l54.561,34.467-52.236,36.054h-105.673l-52.236-36.054,54.561-34.467ZM1977.315,1722.838l49.855-32.936h98.778l56.74,32.936-47.48,34.417h-103.22l-54.674-34.417ZM2189.72,1723.935h101.023l61.766,34.467-44.699,36.054h-105.673l-59.772-36.054,47.356-34.467ZM2297.316,1722.838l42.97-32.936h98.778l63.625,32.936-40.285,34.417h-103.22l-61.868-34.417ZM2509.951,1723.935h101.022l68.971,34.467-37.163,36.054h-105.673l-67.309-36.054,40.151-34.467ZM2617.317,1722.838l36.085-32.936h98.778l70.51,32.936-33.09,34.417h-103.22l-69.063-34.417ZM2830.182,1723.935h101.023l76.176,34.467-29.626,36.054h-105.673l-74.846-36.054,32.946-34.467ZM2937.319,1722.838l29.2-32.936h98.778l77.395,32.936-25.896,34.417h-103.22l-76.258-34.417ZM3150.413,1723.935h101.023l83.381,34.467-22.089,36.054h-105.673l-82.382-36.054,25.741-34.467ZM3257.32,1722.838l22.315-32.936h98.778l84.28,32.936-18.702,34.417h-103.22l-83.452-34.417ZM3470.643,1723.935h101.022l90.586,34.467-14.553,36.054h-105.673l-89.919-36.054,18.536-34.467ZM3577.322,1722.838l15.431-32.936h98.778l91.165,32.936-11.506,34.417h-103.22l-90.647-34.417ZM3790.874,1723.935h101.023l97.791,34.467-7.016,36.054h-105.673l-97.456-36.054,11.331-34.467ZM3788.196,1721.743l-91.219-32.89,12.576-31.505h96.632l91.606,31.505-8.717,32.89h-100.878ZM3707.102,1655.341l-85.672-30.124,13.576-28.909h92.606l86.094,28.909-10.105,30.124h-96.499ZM3632.756,1594.464l-80.71-27.694,14.377-26.621h88.903l81.156,26.621-11.241,27.694h-92.485ZM3564.349,1538.45l-76.25-25.546,15.015-24.595h85.484l76.71,24.595-12.168,25.546h-88.791ZM3501.195,1486.739l-72.222-23.639,15.519-22.791h82.319l72.689,22.791-12.925,23.639h-85.381ZM3422.402,1462.345h-83.772l-67.972-22.764,18.024-21.963h80.823l68.525,21.963-15.628,22.764ZM3333.795,1463.1l-17.867,23.639h-85.38l-67.281-23.639,20.283-22.791h82.319l67.926,22.791ZM3156.854,1462.345h-83.772l-63.214-22.764,22.615-21.963h80.823l63.934,21.963-20.386,22.764ZM3068.089,1463.1l-22.808,23.639h-85.381l-62.339-23.639,25.047-22.791h82.319l63.161,22.791ZM2891.305,1462.345h-83.772l-58.455-22.764,27.206-21.963h80.823l59.343,21.963-25.145,22.764ZM2802.383,1463.1l-27.749,23.639h-85.381l-57.397-23.639,29.812-22.791h82.319l58.397,22.791ZM2625.757,1462.345h-83.772l-53.697-22.764,31.797-21.963h80.823l54.752,21.963-29.903,22.764ZM2536.677,1463.1l-32.691,23.639h-85.381l-52.456-23.639,34.576-22.791h82.319l53.633,22.791ZM2360.209,1462.345h-83.772l-48.938-22.764,36.388-21.963h80.823l50.161,21.963-34.662,22.764ZM2270.97,1463.1l-37.632,23.639h-85.381l-47.515-23.639,39.34-22.791h82.319l48.868,22.791ZM2094.661,1462.345h-83.772l-44.179-22.764,40.979-21.963h80.823l45.57,21.963-39.421,22.764ZM2005.264,1463.1l-42.573,23.639h-85.381l-42.573-23.639,44.104-22.791h82.319l44.104,22.791ZM1829.113,1462.345h-83.773l-39.421-22.764,45.57-21.963h80.823l40.979,21.963-44.179,22.764ZM1739.558,1463.1l-47.515,23.639h-85.381l-37.632-23.639,48.869-22.791h82.319l39.34,22.791ZM1563.564,1462.345h-83.772l-34.662-22.764,50.161-21.963h80.822l36.388,21.963-48.938,22.764ZM1473.852,1463.1l-52.456,23.639h-85.381l-32.69-23.639,53.632-22.791h82.319l34.576,22.791ZM1298.016,1462.345h-83.772l-29.903-22.764,54.752-21.963h80.823l31.797,21.963-53.696,22.764ZM1208.146,1463.1l-57.398,23.639h-85.381l-27.749-23.639,58.397-22.791h82.319l29.812,22.791ZM1032.467,1462.345h-83.772l-25.145-22.764,59.343-21.963h80.823l27.206,21.963-58.455,22.764ZM942.439,1463.1l-62.339,23.639h-85.381l-22.808-23.639,63.161-22.791h82.319l25.047,22.791ZM766.919,1462.345h-83.772l-20.386-22.764,63.934-21.963h80.822l22.615,21.963-63.214,22.764ZM676.733,1463.1l-67.28,23.639h-85.381l-17.866-23.639,67.925-22.791h82.319l20.283,22.791ZM501.371,1462.345h-83.773l-15.628-22.764,68.525-21.963h80.823l18.024,21.963-67.972,22.764ZM411.027,1463.1l-72.222,23.639h-85.381l-12.925-23.639,72.689-22.791h82.319l15.519,22.791ZM336.887,1488.31l15.015,24.595-76.25,25.546h-88.791l-12.169-25.546,76.71-24.595h85.485ZM273.578,1540.149l14.377,26.621-80.71,27.694h-92.485l-11.241-27.694,81.156-26.621h88.903ZM204.994,1596.307l13.576,28.909-85.672,30.124H36.399l-10.106-30.124,86.094-28.909h92.607ZM130.448,1657.348l12.577,31.505-91.219,32.89H-49.074l-8.717-32.89,91.606-31.505h96.632ZM49.127,1723.935l11.331,34.467-97.456,36.054h-105.674l-7.016-36.054,97.791-34.467H49.127ZM-39.937,1796.863l9.782,37.868-104.509,39.698h-110.948l-4.929-39.698,104.771-37.868H-39.937ZM-31.303,1795.659l97.399-36.108h103.372l14.373,36.108-96.919,37.81H-21.325l-9.978-37.81ZM189.706,1796.863h105.833l17.697,37.868-96.211,39.698h-110.948l-13.227-39.698,96.855-37.868ZM303.921,1795.659l89.851-36.108h103.371l21.92,36.108-89.016,37.81h-108.246l-17.882-37.81ZM525.182,1796.863h105.832l25.613,37.868-87.912,39.698h-110.947l-21.525-39.698,88.94-37.868ZM639.145,1795.659l82.303-36.108h103.371l29.468,36.108-81.112,37.81h-108.246l-25.785-37.81ZM860.658,1796.863h105.832l33.529,37.868-79.614,39.698h-110.947l-29.824-39.698,81.024-37.868ZM974.369,1795.659l74.756-36.108h103.371l37.016,36.108-73.208,37.81h-108.246l-33.689-37.81ZM1196.133,1796.863h105.832l41.445,37.868-71.316,39.698h-110.947l-38.122-39.698,73.108-37.868ZM1309.593,1795.659l67.208-36.108h103.371l44.564,36.108-65.305,37.81h-108.246l-41.593-37.81ZM1531.609,1796.863h105.832l49.361,37.868-63.017,39.698h-110.947l-46.421-39.698,65.192-37.868ZM1644.817,1795.659l59.66-36.108h103.372l52.112,36.108-57.4,37.81h-108.247l-49.497-37.81ZM1867.085,1796.863h105.832l57.276,37.868-54.719,39.698h-110.947l-54.719-39.698,57.276-37.868ZM1980.041,1795.659l52.112-36.108h103.371l59.66,36.108-49.497,37.81h-108.246l-57.4-37.81ZM2202.56,1796.863h105.832l65.192,37.868-46.421,39.698h-110.947l-63.017-39.698,49.361-37.868ZM2315.265,1795.659l44.564-36.108h103.371l67.208,36.108-41.593,37.81h-108.246l-65.304-37.81ZM2538.036,1796.863h105.832l73.108,37.868-38.122,39.698h-110.947l-71.316-39.698,41.445-37.868ZM2650.488,1795.659l37.017-36.108h103.371l74.755,36.108-33.689,37.81h-108.246l-73.208-37.81ZM2873.511,1796.863h105.832l81.024,37.868-29.824,39.698h-110.947l-79.614-39.698,33.529-37.868ZM2985.712,1795.659l29.468-36.108h103.371l82.304,36.108-25.786,37.81h-108.246l-81.112-37.81ZM3208.987,1796.863h105.832l88.94,37.868-21.525,39.698h-110.947l-87.912-39.698,25.613-37.868ZM3320.936,1795.659l21.92-36.108h103.371l89.851,36.108-17.882,37.81h-108.246l-89.015-37.81ZM3544.462,1796.863h105.832l96.856,37.868-13.227,39.698h-110.947l-96.211-39.698,17.698-37.868ZM3656.16,1795.659l14.373-36.108h103.371l97.399,36.108-9.978,37.81h-108.246l-96.92-37.81ZM3879.938,1796.863h105.832l104.771,37.868-4.929,39.698h-110.947l-104.509-39.698,9.782-37.868ZM3991.384,1795.659l6.825-36.108h103.372l104.947,36.108-2.074,37.81h-108.246l-104.823-37.81ZM3995.164,1757.256l-97.841-34.417,8.545-32.936h98.779l98.05,32.936-4.312,34.417h-103.22ZM3903.088,1687.805l-91.655-31.462,9.951-30.165h94.576l91.925,30.165-6.158,31.462h-98.64ZM3818.836,1624.256l-86.141-28.871,11.101-27.73h90.717l86.457,27.73-7.684,28.871h-94.45ZM3741.451,1565.887l-81.201-26.587,12.041-25.578h87.161l81.549,25.578-8.949,26.587h-90.601ZM3670.127,1512.088l-76.753-24.565,12.808-23.667h83.872l77.124,23.667-9.998,24.565h-87.053ZM3604.178,1462.345l-72.731-22.764,13.433-21.963h80.823l73.116,21.963-10.869,22.764h-83.772ZM3543.019,1416.214l-69.078-21.155,13.938-20.436h77.987l69.473,20.436-11.591,21.155h-80.73ZM3538.477,1416.915l-13.54,21.937h-82.223l-68.568-21.937,15.913-21.179h79.38l69.039,21.179ZM3367.844,1416.214h-80.73l-64.656-21.155,18.21-20.436h77.987l65.201,20.436-16.013,21.155ZM3282.425,1416.915l-18.126,21.937h-82.223l-63.983-21.937,20.34-21.179h79.379l64.612,21.179ZM3111.939,1416.214h-80.73l-60.234-21.155,22.482-20.436h77.987l60.93,20.436-20.435,21.155ZM3026.373,1416.915l-22.711,21.937h-82.223l-59.397-21.937,24.767-21.179h79.38l60.184,21.179ZM2856.033,1416.214h-80.73l-55.812-21.155,26.754-20.436h77.987l56.658,20.436-24.857,21.155ZM2770.322,1416.915l-27.297,21.937h-82.223l-54.811-21.937,29.194-21.179h79.38l55.757,21.179ZM2600.128,1416.214h-80.73l-51.39-21.155,31.026-20.436h77.987l52.386,20.436-29.279,21.155ZM2514.27,1416.915l-31.883,21.937h-82.223l-50.226-21.937,33.622-21.179h79.379l51.33,21.179ZM2344.223,1416.214h-80.73l-46.968-21.155,35.298-20.436h77.987l48.114,20.436-33.701,21.155ZM2258.218,1416.915l-36.468,21.937h-82.223l-45.64-21.937,38.049-21.179h79.38l46.903,21.179ZM2088.318,1416.214h-80.73l-42.546-21.155,39.57-20.436h77.987l43.842,20.436-38.124,21.155ZM2002.166,1416.915l-41.054,21.937h-82.223l-41.054-21.937,42.476-21.179h79.38l42.476,21.179ZM1832.413,1416.214h-80.73l-38.123-21.155,43.842-20.436h77.988l39.57,20.436-42.546,21.155ZM1746.114,1416.915l-45.64,21.937h-82.223l-36.469-21.937,46.903-21.179h79.38l38.049,21.179ZM1576.507,1416.214h-80.73l-33.701-21.155,48.114-20.436h77.987l35.298,20.436-46.968,21.155ZM1490.062,1416.915l-50.226,21.937h-82.223l-31.883-21.937,51.33-21.179h79.38l33.621,21.179ZM1320.603,1416.214h-80.73l-29.279-21.155,52.386-20.436h77.987l31.026,20.436-51.39,21.155ZM1234.011,1416.915l-54.811,21.937h-82.223l-27.297-21.937,55.757-21.179h79.38l29.194,21.179ZM1064.698,1416.214h-80.73l-24.857-21.155,56.658-20.436h77.987l26.754,20.436-55.812,21.155ZM977.959,1416.915l-59.397,21.937h-82.223l-22.711-21.937,60.184-21.179h79.38l24.767,21.179ZM808.792,1416.214h-80.73l-20.435-21.155,60.93-20.436h77.987l22.482,20.436-60.234,21.155ZM721.907,1416.915l-63.983,21.937h-82.223l-18.126-21.937,64.612-21.179h79.38l20.34,21.179ZM552.887,1416.214h-80.73l-16.013-21.155,65.201-20.436h77.988l18.21,20.436-64.656,21.155ZM465.855,1416.915l-68.569,21.937h-82.223l-13.54-21.937,69.039-21.179h79.38l15.913,21.179ZM296.982,1416.214h-80.73l-11.591-21.155,69.473-20.436h77.987l13.939,20.436-69.078,21.155ZM295.12,1417.618l13.433,21.963-72.731,22.764h-83.772l-10.869-22.764,73.116-21.963h80.823ZM233.818,1463.857l12.809,23.667-76.753,24.565h-87.052l-9.998-24.565,77.124-23.667h83.872ZM167.709,1513.721l12.041,25.578-81.201,26.587H7.949l-8.949-26.587,81.549-25.578h87.16ZM96.204,1567.655l11.101,27.73-86.141,28.871h-94.449l-7.684-28.871,86.457-27.73h90.717ZM18.615,1626.178l9.951,30.165-91.655,31.462h-98.64l-6.158-31.462,91.925-30.165H18.615ZM-65.868,1689.902l8.545,32.936-97.841,34.417h-103.22l-4.312-34.417,98.05-32.936h98.778ZM-158.208,1759.552l6.825,36.108-104.823,37.81h-108.246l-2.074-37.81,104.947-36.108h103.372ZM-259.555,1835.995l4.715,39.76-112.752,41.73h-113.786l.65-41.73,112.762-39.76h108.412ZM-249.027,1877.082h111.122l7.853,41.797-112.54,43.923h-116.775l-2.36-43.923,112.699-41.797ZM-128.762,1875.754l104.45-39.76h108.413l13.026,39.76-104.029,41.73h-113.787l-8.073-41.73ZM103.217,1877.082h111.123l16.59,41.797-103.358,43.923H10.796l-11.541-43.923,103.962-41.797ZM223.205,1875.754l96.139-39.76h108.412l21.337,39.76-95.306,41.73h-113.786l-16.797-41.73ZM455.462,1877.082h111.122l25.327,41.797-94.176,43.923h-116.775l-20.723-43.923,95.225-41.797ZM575.172,1875.754l87.828-39.76h108.412l29.648,39.76-86.582,41.73h-113.786l-25.52-41.73ZM807.706,1877.082h111.122l34.065,41.797-84.995,43.923h-116.775l-29.905-43.923,86.488-41.797ZM927.139,1875.754l79.516-39.76h108.413l37.96,39.76-77.859,41.73h-113.786l-34.243-41.73ZM1159.951,1877.082h111.122l42.802,41.797-75.813,43.923h-116.775l-39.086-43.923,77.751-41.797ZM1279.106,1875.754l71.205-39.76h108.412l46.271,39.76-69.136,41.73h-113.786l-42.966-41.73ZM1512.195,1877.082h111.122l51.539,41.797-66.631,43.923h-116.775l-48.268-43.923,69.013-41.797ZM1631.073,1875.754l62.894-39.76h108.413l54.582,39.76-60.413,41.73h-113.787l-51.689-41.73ZM1864.44,1877.082h111.122l60.276,41.797-57.45,43.923h-116.775l-57.45-43.923,60.276-41.797ZM1983.04,1875.754l54.582-39.76h108.412l62.894,39.76-51.69,41.73h-113.786l-60.413-41.73ZM2216.684,1877.082h111.122l69.013,41.797-48.268,43.923h-116.775l-66.631-43.923,51.539-41.797ZM2335.007,1875.754l46.271-39.76h108.412l71.205,39.76-42.966,41.73h-113.786l-69.136-41.73ZM2568.928,1877.082h111.122l77.751,41.797-39.087,43.923h-116.774l-75.813-43.923,42.802-41.797ZM2686.973,1875.754l37.96-39.76h108.413l79.516,39.76-34.243,41.73h-113.786l-77.86-41.73ZM2921.173,1877.082h111.122l86.488,41.797-29.904,43.923h-116.775l-84.995-43.923,34.064-41.797ZM3038.94,1875.754l29.648-39.76h108.412l87.828,39.76-25.52,41.73h-113.786l-86.582-41.73ZM3273.417,1877.082h111.122l95.225,41.797-20.723,43.923h-116.775l-94.176-43.923,25.327-41.797ZM3390.907,1875.754l21.337-39.76h108.413l96.139,39.76-16.797,41.73h-113.786l-95.306-41.73ZM3625.661,1877.082h111.122l103.962,41.797-11.541,43.923h-116.774l-103.358-43.923,16.59-41.797ZM3742.873,1875.754l13.026-39.76h108.413l104.45,39.76-8.073,41.73h-113.786l-104.029-41.73ZM3977.905,1877.082h111.122l112.699,41.797-2.359,43.923h-116.775l-112.54-43.923,7.853-41.797ZM4094.84,1875.754l4.714-39.76h108.413l112.762,39.76.65,41.73h-113.787l-112.752-41.73ZM4330.15,1877.082h111.122l121.436,41.797,6.822,43.923h-116.775l-121.721-43.923-.885-41.797ZM4326.355,1874.429l-112.808-39.698,1.866-37.868h105.832l112.687,37.868,3.37,39.698h-110.947ZM4211.971,1794.457l-104.992-36.054,4.126-34.467h101.023l104.996,34.467.521,36.054h-105.673ZM4107.968,1721.743l-98.094-32.89,5.991-31.505h96.632l98.192,31.505-1.841,32.89h-100.878ZM4012.994,1655.341l-91.969-30.124,7.533-28.909h92.606l92.137,28.909-3.808,30.124h-96.499ZM3925.922,1594.464l-86.499-27.694,8.812-26.621h88.903l86.72,26.621-5.452,27.694h-92.485ZM3845.806,1538.45l-81.59-25.546,9.874-24.595h85.484l81.851,24.595-6.828,25.546h-88.791ZM3771.843,1486.739l-77.163-23.639,10.755-22.791h82.319l77.453,22.791-7.983,23.639h-85.381ZM3703.352,1438.853l-73.154-21.937,11.485-21.179h79.38l73.466,21.179-8.954,21.937h-82.223ZM3639.746,1394.382l-69.51-20.413,12.091-19.731h76.643l69.836,19.731-9.77,20.413h-79.29ZM3564.047,1373.316h-77.901l-65.749-19.71,14.345-19.063h75.344l66.149,19.063-12.188,19.71ZM3481.731,1373.969l-14.037,20.413h-79.29l-65.243-20.413,16.215-19.731h76.643l65.711,19.731ZM3317.109,1373.316h-77.901l-61.629-19.71,18.33-19.063h75.344l62.164,19.063-16.308,19.71ZM3234.657,1373.969l-18.304,20.413h-79.29l-60.976-20.413,20.34-19.731h76.643l61.587,19.731ZM3070.171,1373.316h-77.901l-57.509-19.71,22.315-19.063h75.344l58.179,19.063-20.428,19.71ZM2987.583,1373.969l-22.571,20.413h-79.29l-56.708-20.413,24.465-19.731h76.643l57.462,19.731ZM2823.233,1373.316h-77.901l-53.389-19.71,26.3-19.063h75.344l54.194,19.063-24.548,19.71ZM2740.508,1373.969l-26.838,20.413h-79.29l-52.441-20.413,28.589-19.731h76.643l53.337,19.731ZM2576.296,1373.316h-77.901l-49.269-19.71,30.285-19.063h75.344l50.209,19.063-28.668,19.71ZM2493.434,1373.969l-31.106,20.413h-79.29l-48.174-20.413,32.714-19.731h76.643l49.213,19.731ZM2329.358,1373.316h-77.901l-45.149-19.71,34.269-19.063h75.344l46.224,19.063-32.788,19.71ZM2246.36,1373.969l-35.372,20.413h-79.29l-43.907-20.413,36.839-19.731h76.643l45.088,19.731ZM2082.42,1373.316h-77.901l-41.029-19.71,38.254-19.063h75.344l42.239,19.063-36.908,19.71ZM1999.285,1373.969l-39.64,20.413h-79.29l-39.64-20.413,40.963-19.731h76.643l40.963,19.731ZM1835.482,1373.316h-77.902l-36.908-19.71,42.239-19.063h75.345l38.254,19.063-41.028,19.71ZM1752.211,1373.969l-43.907,20.413h-79.29l-35.373-20.413,45.088-19.731h76.643l36.839,19.731ZM1588.544,1373.316h-77.901l-32.788-19.71,46.224-19.063h75.344l34.27,19.063-45.149,19.71ZM1505.136,1373.969l-48.174,20.413h-79.29l-31.105-20.413,49.213-19.731h76.643l32.714,19.731ZM1341.606,1373.316h-77.901l-28.668-19.71,50.209-19.063h75.344l30.284,19.063-49.269,19.71ZM1258.062,1373.969l-52.441,20.413h-79.29l-26.838-20.413,53.337-19.731h76.643l28.59,19.731ZM1094.669,1373.316h-77.901l-24.548-19.71,54.194-19.063h75.344l26.299,19.063-53.389,19.71ZM1010.988,1373.969l-56.708,20.413h-79.29l-22.571-20.413,57.462-19.731h76.643l24.465,19.731ZM847.731,1373.316h-77.901l-20.428-19.71,58.179-19.063h75.344l22.315,19.063-57.509,19.71ZM763.914,1373.969l-60.975,20.413h-79.291l-18.304-20.413,61.587-19.731h76.643l20.34,19.731ZM600.793,1373.316h-77.901l-16.308-19.71,62.164-19.063h75.345l18.33,19.063-61.629,19.71ZM516.839,1373.969l-65.243,20.413h-79.291l-14.037-20.413,65.711-19.731h76.643l16.215,19.731ZM353.855,1373.316h-77.901l-12.187-19.71,66.149-19.063h75.344l14.345,19.063-65.749,19.71ZM269.764,1373.969l-69.51,20.413h-79.29l-9.77-20.413,69.836-19.731h76.643l12.091,19.731ZM198.318,1395.737l11.486,21.179-73.154,21.937H54.426l-8.954-21.937,73.466-21.179h79.38ZM134.566,1440.309l10.755,22.791-77.163,23.639H-17.223l-7.984-23.639,77.454-22.791h82.319ZM65.911,1488.31l9.874,24.595-81.59,25.546h-88.791l-6.828-25.546,81.851-24.595h85.484ZM-8.235,1540.149l8.812,26.621-86.499,27.694h-92.485l-5.452-27.694,86.72-26.621H-8.235ZM-88.558,1596.307l7.533,28.909-91.969,30.124h-96.499l-3.808-30.124,92.137-28.909h92.606ZM-175.864,1657.348l5.991,31.505-98.095,32.89h-100.878l-1.841-32.89,98.192-31.505h96.632ZM-271.104,1723.935l4.126,34.467-104.992,36.054h-105.673l.521-36.054,104.996-34.467h101.023ZM-375.413,1796.863l1.866,37.868-112.808,39.698h-110.947l3.37-39.698,112.687-37.868h105.832ZM-490.149,1877.082l-.885,41.797-121.721,43.923h-116.775l6.822-43.923,121.437-41.797h111.122ZM-616.959,1965.742l-4.248,46.372-131.964,48.862h-123.249l11.031-48.862,131.461-46.372h116.969ZM-606.938,1964.271l121.676-43.995h113.97l2.118,43.995-121.822,46.294h-119.925l3.982-46.294ZM-363.15,1965.742h116.969l5.446,46.372-121.75,48.862h-123.249l.817-48.862,121.768-46.372ZM-236.468,1964.271l112.479-43.995H-10.018l11.314,43.995-112.144,46.294h-119.925l-5.695-46.294ZM7.627,1965.742h116.969l15.139,46.372-111.536,48.862h-123.249l-9.397-48.862,112.074-46.372ZM134.003,1964.271l103.282-43.995h113.97l20.511,43.995-102.467,46.294h-119.924l-15.372-46.294ZM378.405,1965.742h116.969l24.833,46.372-101.322,48.862h-123.249l-19.611-48.862,102.381-46.372ZM504.473,1964.271l94.085-43.995h113.97l29.708,43.995-92.79,46.294h-119.925l-25.049-46.294ZM749.183,1965.742h116.968l34.527,46.372-91.109,48.862h-123.249l-29.825-48.862,92.687-46.372ZM874.943,1964.271l84.889-43.995h113.97l38.905,43.995-83.113,46.294h-119.925l-34.727-46.294ZM1119.961,1965.742h116.969l44.22,46.372-80.895,48.862h-123.249l-40.039-48.862,82.994-46.372ZM1245.413,1964.271l75.692-43.995h113.97l48.102,43.995-73.436,46.294h-119.924l-44.404-46.294ZM1490.738,1965.742h116.969l53.913,46.372-70.681,48.862h-123.249l-50.253-48.862,73.3-46.372ZM1615.883,1964.271l66.495-43.995h113.971l57.298,43.995-63.758,46.294h-119.925l-54.081-46.294ZM1861.516,1965.742h116.969l63.607,46.372-60.467,48.862h-123.249l-60.467-48.862,63.607-46.372ZM1986.354,1964.271l57.298-43.995h113.97l66.496,43.995-54.081,46.294h-119.924l-63.758-46.294ZM2232.294,1965.742h116.969l73.3,46.372-50.253,48.862h-123.249l-70.681-48.862,53.913-46.372ZM2356.824,1964.271l48.102-43.995h113.97l75.692,43.995-44.404,46.294h-119.925l-73.435-46.294ZM2603.072,1965.742h116.968l82.994,46.372-40.039,48.862h-123.248l-80.895-48.862,44.22-46.372ZM2727.294,1964.271l38.905-43.995h113.97l84.889,43.995-34.727,46.294h-119.925l-83.113-46.294ZM2973.849,1965.742h116.969l92.687,46.372-29.825,48.862h-123.249l-91.109-48.862,34.526-46.372ZM3097.764,1964.271l29.708-43.995h113.97l94.086,43.995-25.05,46.294h-119.924l-92.79-46.294ZM3344.627,1965.742h116.969l102.381,46.372-19.611,48.862h-123.249l-101.322-48.862,24.833-46.372ZM3468.235,1964.271l20.511-43.995h113.97l103.283,43.995-15.373,46.294h-119.925l-102.467-46.294ZM3715.405,1965.742h116.968l112.075,46.372-9.397,48.862h-123.248l-111.537-48.862,15.14-46.372ZM3838.704,1964.271l11.315-43.995h113.97l112.479,43.995-5.695,46.294h-119.924l-112.145-46.294ZM4086.182,1965.742h116.969l121.768,46.372.817,48.862h-123.249l-121.75-48.862,5.446-46.372ZM4209.175,1964.271l2.118-43.995h113.971l121.676,43.995,3.982,46.294h-119.925l-121.821-46.294ZM4456.96,1965.742h116.969l131.461,46.372,11.031,48.862h-123.249l-131.964-48.862-4.248-46.372ZM4579.645,1964.271l-7.079-43.995h113.97l130.873,43.995,13.659,46.294h-119.924l-131.498-46.294ZM4568.283,1917.485l-121.475-41.73-3.597-39.76h108.412l121.073,39.76,9.373,41.73h-113.786ZM4439.335,1833.469l-112.727-37.81-.723-36.108h103.371l112.495,36.108,5.829,37.81h-108.246ZM4322.36,1757.256l-105.036-34.417,1.66-32.936h98.778l104.935,32.936,2.882,34.417h-103.22ZM4215.767,1687.805l-98.231-31.462,3.645-30.165h94.576l98.231,30.165.419,31.462h-98.64ZM4118.23,1624.256l-92.176-28.871,5.304-27.73h90.717l92.254,27.73-1.649,28.871h-94.449ZM4028.644,1565.887l-86.758-26.587,6.694-25.578h87.16l86.896,25.578-3.392,26.587h-90.6ZM3946.074,1512.088l-81.888-24.565,7.861-23.667h83.872l82.071,23.667-4.864,24.565h-87.052ZM3869.726,1462.345l-77.489-22.764,8.842-21.963h80.823l77.708,21.963-6.111,22.764h-83.772ZM3798.924,1416.214l-73.5-21.155,9.666-20.436h77.987l73.745,20.436-7.169,21.155h-80.73ZM3733.083,1373.316l-69.869-19.71,10.36-19.063h75.344l70.134,19.063-8.068,19.71h-77.901ZM3671.701,1333.323l-66.552-18.408,10.942-17.824h72.874l66.831,17.824-8.831,18.408h-75.264ZM3667.535,1333.932l-10.455,19.043h-76.56l-66.184-19.043,12.59-18.428h74.089l66.52,18.428ZM3508.387,1333.323h-75.264l-62.704-18.408,14.668-17.824h72.875l63.105,17.824-12.679,18.408ZM3428.83,1333.932l-14.435,19.043h-76.56l-62.203-19.043,16.442-18.428h74.089l62.667,18.428ZM3269.809,1333.323h-75.264l-58.856-18.408,18.394-17.824h72.874l59.379,17.824-16.527,18.408ZM3190.125,1333.932l-18.416,19.043h-76.559l-58.223-19.043,20.294-18.428h74.088l58.816,18.428ZM3031.232,1333.323h-75.264l-55.008-18.408,22.12-17.824h72.874l55.653,17.824-20.376,18.408ZM2951.42,1333.932l-22.397,19.043h-76.56l-54.242-19.043,24.146-18.428h74.089l54.963,18.428ZM2792.654,1333.323h-75.264l-51.16-18.408,25.846-17.824h72.874l51.927,17.824-24.224,18.408ZM2712.715,1333.932l-26.377,19.043h-76.56l-50.261-19.043,27.998-18.428h74.089l51.111,18.428ZM2554.077,1333.323h-75.264l-47.312-18.408,29.572-17.824h72.874l48.201,17.824-28.072,18.408ZM2474.01,1333.932l-30.358,19.043h-76.56l-46.281-19.043,31.851-18.428h74.088l47.259,18.428ZM2315.499,1333.323h-75.264l-43.464-18.408,33.297-17.824h72.874l44.475,17.824-31.919,18.408ZM2235.305,1333.932l-34.339,19.043h-76.56l-42.3-19.043,35.703-18.428h74.089l43.407,18.428ZM2076.921,1333.323h-75.264l-39.616-18.408,37.023-17.824h72.874l40.749,17.824-35.768,18.408ZM1996.6,1333.932l-38.319,19.043h-76.56l-38.319-19.043,39.555-18.428h74.089l39.555,18.428ZM1838.344,1333.323h-75.264l-35.767-18.408,40.749-17.824h72.875l37.023,17.824-39.616,18.408ZM1757.894,1333.932l-42.3,19.043h-76.56l-34.339-19.043,43.407-18.428h74.089l35.703,18.428ZM1599.766,1333.323h-75.264l-31.92-18.408,44.475-17.824h72.874l33.298,17.824-43.464,18.408ZM1519.189,1333.932l-46.281,19.043h-76.56l-30.358-19.043,47.259-18.428h74.089l31.85,18.428ZM1361.188,1333.323h-75.264l-28.072-18.408,48.201-17.824h72.874l29.572,17.824-47.312,18.408ZM1280.484,1333.932l-50.262,19.043h-76.56l-26.377-19.043,51.111-18.428h74.089l27.999,18.428ZM1122.61,1333.323h-75.264l-24.223-18.408,51.927-17.824h72.874l25.845,17.824-51.16,18.408ZM1041.779,1333.932l-54.242,19.043h-76.56l-22.397-19.043,54.963-18.428h74.089l24.146,18.428ZM884.033,1333.323h-75.264l-20.375-18.408,55.653-17.824h72.874l22.12,17.824-55.008,18.408ZM803.074,1333.932l-58.223,19.043h-76.56l-18.416-19.043,58.815-18.428h74.089l20.294,18.428ZM645.455,1333.323h-75.264l-16.527-18.408,59.379-17.824h72.875l18.394,17.824-58.856,18.408ZM564.369,1333.932l-62.203,19.043h-76.56l-14.436-19.043,62.668-18.428h74.089l16.442,18.428ZM406.877,1333.323h-75.264l-12.679-18.408,63.105-17.824h72.874l14.668,17.824-62.704,18.408ZM325.663,1333.932l-66.184,19.043h-76.56l-10.455-19.043,66.52-18.428h74.089l12.59,18.428ZM168.299,1333.323h-75.264l-8.831-18.408,66.831-17.824h72.874l10.942,17.824-66.552,18.408ZM166.427,1334.543l10.36,19.063-69.869,19.71H29.016l-8.068-19.71,70.134-19.063h75.344ZM104.911,1374.623l9.667,20.436-73.501,21.155H-39.653l-7.169-21.155,73.745-20.436h77.987ZM38.922,1417.618l8.842,21.963-77.49,22.764h-83.772l-6.11-22.764,77.708-21.963H38.922ZM-32.046,1463.857l7.861,23.667-81.888,24.565h-87.052l-4.864-24.565,82.071-23.667H-32.046ZM-108.579,1513.721l6.694,25.578-86.759,26.587h-90.6l-3.392-26.587,86.896-25.578h87.16ZM-191.358,1567.655l5.304,27.73-92.176,28.871h-94.449l-1.649-28.871,92.254-27.73h90.717ZM-281.18,1626.178l3.645,30.165-98.232,31.462h-98.64l.419-31.462,98.231-30.165h94.576ZM-378.985,1689.902l1.66,32.936-105.036,34.417h-103.22l2.882-34.417,104.935-32.936h98.778ZM-485.884,1759.552l-.723,36.108-112.727,37.81h-108.246l5.83-37.81,112.495-36.108h103.371ZM-603.21,1835.995l-3.597,39.76-121.476,41.73h-113.786l9.373-41.73,121.073-39.76h108.412ZM-732.566,1920.275l-7.079,43.995-131.499,46.294h-119.924l13.659-46.294,130.873-43.995h113.97ZM-910.07,2170.672h-130.483l16.197-54.682,143.037-51.74h123.465l-8.383,51.74-143.832,54.682ZM-755.235,2114.259l8.081-51.649,131.919-48.946h120.129l-1.091,48.946-132.275,51.649h-126.763ZM-496.453,2170.672h-130.483l4.766-54.682,132.221-51.74h123.465l2.432,51.74-132.401,54.682ZM-353.411,2114.259l-2.716-51.649,121.688-48.946h120.13l9.14,48.946-121.478,51.649h-126.764ZM-82.838,2170.672h-130.484l-6.665-54.682,121.405-51.74H24.885l13.248,51.74-120.971,54.682ZM48.413,2114.259l-13.513-51.649,111.456-48.946h120.129l19.372,48.946-110.682,51.649H48.413ZM330.778,2170.672h-130.483l-18.095-54.682,110.59-51.74h123.465l24.064,51.74-109.54,54.682ZM450.237,2114.259l-24.309-51.649,101.224-48.946h120.129l29.603,48.946-99.885,51.649h-126.763ZM744.394,2170.672h-130.483l-29.526-54.682,99.774-51.74h123.464l34.88,51.74-98.11,54.682ZM852.06,2114.259l-35.106-51.649,90.993-48.946h120.129l39.835,48.946-89.089,51.649h-126.763ZM1158.01,2170.672h-130.483l-40.956-54.682,88.958-51.74h123.465l45.695,51.74-86.679,54.682ZM1253.884,2114.259l-45.902-51.649,80.761-48.946h120.129l50.067,48.946-78.292,51.649h-126.762ZM1571.626,2170.672h-130.483l-52.387-54.682,78.143-51.74h123.465l56.511,51.74-75.248,54.682ZM1655.707,2114.259l-56.699-51.649,70.53-48.946h120.13l60.298,48.946-67.495,51.649h-126.764ZM1985.242,2170.672h-130.483l-63.818-54.682,67.327-51.74h123.465l67.327,51.74-63.818,54.682ZM2057.531,2114.259l-67.496-51.649,60.298-48.946h120.129l70.53,48.946-56.699,51.649h-126.762ZM2398.858,2170.672h-130.483l-75.248-54.682,56.511-51.74h123.465l78.142,51.74-52.387,54.682ZM2459.355,2114.259l-78.292-51.649,50.067-48.946h120.129l80.761,48.946-45.902,51.649h-126.763ZM2812.474,2170.672h-130.482l-86.679-54.682,45.696-51.74h123.464l88.959,51.74-40.957,54.682ZM2861.178,2114.259l-89.089-51.649,39.835-48.946h120.129l90.993,48.946-35.105,51.649h-126.763ZM3226.09,2170.672h-130.483l-98.109-54.682,34.879-51.74h123.465l99.774,51.74-29.526,54.682ZM3263.002,2114.259l-99.885-51.649,29.603-48.946h120.129l101.225,48.946-24.309,51.649h-126.763ZM3639.706,2170.672h-130.483l-109.54-54.682,24.064-51.74h123.465l110.59,51.74-18.095,54.682ZM3664.825,2114.259l-110.682-51.649,19.372-48.946h120.129l111.456,48.946-13.513,51.649h-126.763ZM4053.321,2170.672h-130.482l-120.971-54.682,13.248-51.74h123.464l121.406,51.74-6.665,54.682ZM4066.649,2114.259l-121.479-51.649,9.141-48.946h120.129l121.688,48.946-2.716,51.649h-126.763ZM4466.937,2170.672h-130.483l-132.401-54.682,2.432-51.74h123.465l132.221,51.74,4.766,54.682ZM4468.472,2114.259l-132.275-51.649-1.091-48.946h120.129l131.919,48.946,8.081,51.649h-126.763ZM4880.553,2170.672h-130.483l-143.832-54.682-8.383-51.74h123.465l143.037,51.74,16.197,54.682ZM4870.296,2114.259l-143.071-51.649-11.323-48.946h120.129l142.151,48.946,18.877,51.649h-126.763ZM5268.724,2115.99l27.689,54.682h-132.727l-155.263-54.682-19.199-51.74h125.588l153.912,51.74ZM5087.925,2012.113l21.3,48.862h-125.368l-142.178-48.862-13.941-46.372h118.98l141.208,46.372ZM4925.649,1918.879l16.053,43.923h-118.783l-130.903-43.923-9.621-41.797h113.033l130.221,41.797ZM4779.187,1834.731l11.713,39.698h-112.855l-121.106-39.698-6.05-37.868h107.652l120.646,37.868ZM4646.336,1758.403l8.098,36.054h-107.491l-112.529-36.054-3.079-34.467h102.76l112.241,34.467ZM4525.283,1688.853l5.071,32.89h-102.613l-104.97-32.89-.595-31.505h98.293l104.814,31.505ZM4414.522,1625.217l2.523,30.124h-98.159l-98.266-30.124,1.49-28.909h94.199l98.213,28.909ZM4312.795,1566.77l.369,27.694h-94.075l-92.289-27.694,3.248-26.621h90.432l92.316,26.621ZM4219.04,1512.904l-1.459,25.546h-90.318l-86.93-25.546,4.733-24.595h86.954l87.02,24.595ZM4132.355,1463.1l-3.016,23.639h-86.849l-82.105-23.639,5.991-22.791h83.735l82.244,22.791ZM4051.97,1416.915l-4.344,21.937h-83.637l-77.74-21.937,7.059-21.179h80.745l77.917,21.179ZM3977.221,1373.969l-5.48,20.413h-80.654l-73.777-20.413,7.966-19.731h77.961l73.983,19.731ZM3907.536,1333.932l-6.453,19.043h-77.876l-70.165-19.043,8.738-18.428h75.363l70.393,18.428ZM3775.312,1279.27l67.106,17.249-7.288,17.805h-75.284l-66.86-17.805,9.394-17.249h72.932ZM3561.043,1262.015h72.989l62.741,16.42-9.636,17.514h-72.799l-64.551-17.514,11.255-16.42ZM3546.8,1279.27l63.48,17.249-11.03,17.805h-74.011l-63.138-17.805,13-17.249h71.699ZM3337.372,1262.015h72.989l59.309,16.42-13.296,17.514h-72.799l-60.89-17.514,14.688-16.42ZM3319.522,1279.27l59.874,17.249-14.752,17.805h-74.011l-59.416-17.805,16.605-17.249h71.699ZM3113.7,1262.015h72.989l55.877,16.42-16.958,17.514h-72.799l-57.229-17.514,18.12-16.42ZM3092.243,1279.27l56.269,17.249-18.474,17.805h-74.011l-55.694-17.805,20.211-17.249h71.699ZM2890.029,1262.015h72.989l52.444,16.42-20.618,17.514h-72.799l-53.568-17.514,21.552-16.42ZM2864.965,1279.27l52.663,17.249-22.196,17.805h-74.011l-51.972-17.805,23.817-17.249h71.699ZM2666.357,1262.015h72.989l49.012,16.42-24.28,17.514h-72.799l-49.907-17.514,24.985-16.42ZM2637.686,1279.27l49.057,17.249-25.918,17.805h-74.011l-48.25-17.805,27.423-17.249h71.699ZM2442.685,1262.015h72.989l45.579,16.42-27.941,17.514h-72.799l-46.246-17.514,28.417-16.42ZM2410.407,1279.27l45.452,17.249-29.64,17.805h-74.011l-44.528-17.805,31.029-17.249h71.699ZM2219.014,1262.015h72.989l42.147,16.42-31.602,17.514h-72.799l-42.585-17.514,31.85-16.42ZM2183.129,1279.27l41.846,17.249-33.362,17.805h-74.011l-40.806-17.805,34.634-17.249h71.699ZM1995.342,1262.015h72.989l38.715,16.42-35.263,17.514h-72.799l-38.924-17.514,35.282-16.42ZM1955.85,1279.27l38.24,17.249-37.084,17.805h-74.011l-37.084-17.805,38.24-17.249h71.699ZM1771.67,1262.015h72.989l35.282,16.42-38.924,17.514h-72.8l-35.263-17.514,38.714-16.42ZM1728.571,1279.27l34.634,17.249-40.806,17.805h-74.011l-33.362-17.805,41.846-17.249h71.699ZM1547.998,1262.015h72.989l31.85,16.42-42.585,17.514h-72.799l-31.602-17.514,42.147-16.42ZM1501.293,1279.27l31.028,17.249-44.528,17.805h-74.011l-29.64-17.805,45.451-17.249h71.699ZM1324.327,1262.015h72.989l28.417,16.42-46.246,17.514h-72.799l-27.941-17.514,45.579-16.42ZM1274.014,1279.27l27.423,17.249-48.25,17.805h-74.011l-25.918-17.805,49.057-17.249h71.699ZM1100.655,1262.015h72.989l24.985,16.42-49.907,17.514h-72.799l-24.279-17.514,49.011-16.42ZM1046.736,1279.27l23.817,17.249-51.972,17.805h-74.011l-22.196-17.805,52.663-17.249h71.699ZM876.983,1262.015h72.989l21.552,16.42-53.568,17.514h-72.799l-20.619-17.514,52.444-16.42ZM819.457,1279.27l20.211,17.249-55.694,17.805h-74.011l-18.474-17.805,56.269-17.249h71.7ZM653.312,1262.015h72.988l18.12,16.42-57.228,17.514h-72.799l-16.958-17.514,55.877-16.42ZM592.179,1279.27l16.605,17.249-59.416,17.805h-74.011l-14.752-17.805,59.875-17.249h71.7ZM429.64,1262.015h72.989l14.688,16.42-60.89,17.514h-72.799l-13.296-17.514,59.309-16.42ZM364.9,1279.27l13,17.249-63.138,17.805h-74.011l-11.03-17.805,63.48-17.249h71.699ZM205.968,1262.015h72.989l11.255,16.42-64.551,17.514h-72.799l-9.635-17.514,62.741-16.42ZM-2.417,1296.519l67.105-17.249h72.932l9.394,17.249-66.86,17.805H4.871l-7.288-17.805ZM-67.535,1333.932l70.393-18.428h75.363l8.738,18.428-70.164,19.043H-61.083l-6.453-19.043ZM-137.22,1373.969l73.983-19.731H14.724l7.966,19.731-73.777,20.413h-80.654l-5.479-20.413ZM-211.969,1416.915l77.917-21.179H-53.307l7.059,21.179-77.74,21.937h-83.637l-4.343-21.937ZM-292.355,1463.1l82.244-22.791h83.735l5.991,22.791-82.105,23.639h-86.849l-3.015-23.639ZM-379.04,1512.904l87.02-24.595h86.955l4.732,24.595-86.93,25.546h-90.318l-1.459-25.546ZM-472.795,1566.77l92.315-26.621h90.432l3.248,26.621-92.289,27.694h-94.075l.369-27.694ZM-574.522,1625.217l98.213-28.909h94.199l1.49,28.909-98.266,30.124h-98.159l2.523-30.124ZM-685.282,1688.853l104.813-31.505h98.294l-.595,31.505-104.97,32.89h-102.613l5.071-32.89ZM-806.336,1758.403l112.24-34.467h102.76l-3.079,34.467-112.529,36.054h-107.491l8.098-36.054ZM-939.187,1834.731l120.646-37.868h107.652l-6.05,37.868-121.106,39.698h-112.855l11.713-39.698ZM-1085.648,1918.879l130.221-41.797h113.033l-9.622,41.797-130.903,43.923h-118.783l16.054-43.923ZM-1247.925,2012.113l141.207-46.372h118.98l-13.941,46.372-142.178,48.862h-125.369l21.3-48.862ZM-1274.812,2064.249h125.588l-19.199,51.74-155.263,54.682h-132.727l27.689-54.682,153.911-51.74Z" fill="url(#linear-gradient)"/>
  </g>
</svg>