<?xml version="1.0" encoding="UTF-8"?>
<svg xmlns="http://www.w3.org/2000/svg" version="1.1" xmlns:xlink="http://www.w3.org/1999/xlink" viewBox="0 0 2599 1733">
  <!-- Generator: Adobe Illustrator 29.7.0, SVG Export Plug-In . SVG Version: 2.1.1 Build 138)  -->
  <defs>
    <style>
      .st0 {
        fill: url(#radial-gradient);
      }

      .st0, .st1 {
        mix-blend-mode: multiply;
      }

      .st1 {
        fill: #707070;
      }

      .st2 {
        isolation: isolate;
      }

      .st3 {
        fill: #212121;
      }

      .st4 {
        clip-path: url(#clippath);
      }
    </style>
    <clipPath id="clippath">
      <rect class="st3" width="2598.08" height="1732.05"/>
    </clipPath>
    <radialGradient id="radial-gradient" cx="1299.04" cy="866.03" fx="1299.04" fy="866.03" r="1641.54" gradientUnits="userSpaceOnUse">
      <stop offset="0" stop-color="#fff"/>
      <stop offset=".1" stop-color="#f9f9f9"/>
      <stop offset=".22" stop-color="#eaeaea"/>
      <stop offset=".36" stop-color="#d1d1d1"/>
      <stop offset=".51" stop-color="#aeaeae"/>
      <stop offset=".66" stop-color="#818181"/>
      <stop offset=".81" stop-color="#4a4a4a"/>
      <stop offset=".97" stop-color="#0a0a0a"/>
      <stop offset="1" stop-color="#000"/>
    </radialGradient>
  </defs>
  <g class="st2">
    <g id="Layer_1">
      <g>
        <g>
          <rect class="st3" width="2598.08" height="1732.05"/>
          <g class="st4">
            <g>
              <path class="st1" d="M965.83,286.37l110.75,191.82-110.75,191.82h-221.49l-110.74-191.82,110.74-191.82h221.49M970.01,279.13h-229.85l-114.93,199.06,114.93,199.06h229.85l114.93-199.06-114.93-199.06h0Z"/>
              <path class="st1" d="M966.72,284.83l111.64,193.36-111.64,193.36h-223.27l-111.64-193.36,111.64-193.36h223.27M970.01,279.13h-229.85l-114.93,199.06,114.93,199.06h229.85l114.93-199.06-114.93-199.06h0Z"/>
              <path class="st1" d="M965.83,699.69l110.75,191.82-110.75,191.82h-221.49l-110.74-191.82,110.74-191.82h221.49M970.01,692.44h-229.85l-114.93,199.06,114.93,199.06h229.85l114.93-199.06-114.93-199.06h0Z"/>
              <path class="st1" d="M966.72,698.14l111.64,193.36-111.64,193.36h-223.27l-111.64-193.36,111.64-193.36h223.27M970.01,692.44h-229.85l-114.93,199.06,114.93,199.06h229.85l114.93-199.06-114.93-199.06h0Z"/>
              <path class="st1" d="M1324.78,79.84l110.74,191.82-110.74,191.82h-221.49l-110.74-191.82,110.74-191.82h221.49M1328.96,72.59h-229.86l-114.93,199.06,114.93,199.06h229.86l114.93-199.06-114.93-199.06h0Z"/>
              <path class="st1" d="M1325.67,78.29l111.64,193.36-111.64,193.36h-223.28l-111.64-193.36,111.64-193.36h223.28M1328.96,72.59h-229.86l-114.93,199.06,114.93,199.06h229.86l114.93-199.06-114.93-199.06h0Z"/>
              <path class="st1" d="M1324.78,493.15l110.74,191.82-110.74,191.82h-221.49l-110.74-191.82,110.74-191.82h221.49M1328.96,485.9h-229.86l-114.93,199.06,114.93,199.06h229.86l114.93-199.06-114.93-199.06h0Z"/>
              <path class="st1" d="M1325.67,491.6l111.64,193.36-111.64,193.36h-223.28l-111.64-193.36,111.64-193.36h223.28M1328.96,485.9h-229.86l-114.93,199.06,114.93,199.06h229.86l114.93-199.06-114.93-199.06h0Z"/>
              <path class="st1" d="M1683.72,286.37l110.75,191.82-110.75,191.82h-221.49l-110.74-191.82,110.74-191.82h221.49M1687.91,279.13h-229.85l-114.93,199.06,114.93,199.06h229.85l114.93-199.06-114.93-199.06h0Z"/>
              <path class="st1" d="M1684.62,284.83l111.64,193.36-111.64,193.36h-223.27l-111.64-193.36,111.64-193.36h223.27M1687.91,279.13h-229.85l-114.93,199.06,114.93,199.06h229.85l114.93-199.06-114.93-199.06h0Z"/>
              <path class="st1" d="M1683.72,699.69l110.75,191.82-110.75,191.82h-221.49l-110.74-191.82,110.74-191.82h221.49M1687.91,692.44h-229.85l-114.93,199.06,114.93,199.06h229.85l114.93-199.06-114.93-199.06h0Z"/>
              <path class="st1" d="M1684.62,698.14l111.64,193.36-111.64,193.36h-223.27l-111.64-193.36,111.64-193.36h223.27M1687.91,692.44h-229.85l-114.93,199.06,114.93,199.06h229.85l114.93-199.06-114.93-199.06h0Z"/>
              <path class="st1" d="M2042.67,79.84l110.74,191.82-110.74,191.82h-221.49l-110.75-191.82,110.75-191.82h221.49M2046.85,72.59h-229.85l-114.93,199.06,114.93,199.06h229.85l114.93-199.06-114.93-199.06h0Z"/>
              <path class="st1" d="M2043.57,78.29l111.64,193.36-111.64,193.36h-223.27l-111.64-193.36,111.64-193.36h223.27M2046.85,72.59h-229.85l-114.93,199.06,114.93,199.06h229.85l114.93-199.06-114.93-199.06h0Z"/>
              <path class="st1" d="M965.83,1114.42l110.75,191.82-110.75,191.82h-221.49l-110.74-191.82,110.74-191.82h221.49M970.01,1107.18h-229.85l-114.93,199.06,114.93,199.06h229.85l114.93-199.06-114.93-199.06h0Z"/>
              <path class="st1" d="M966.72,1112.88l111.64,193.36-111.64,193.36h-223.27l-111.64-193.36,111.64-193.36h223.27M970.01,1107.18h-229.85l-114.93,199.06,114.93,199.06h229.85l114.93-199.06-114.93-199.06h0Z"/>
              <polygon class="st1" points="686.81 1811.71 633.59 1719.55 744.34 1527.73 965.83 1527.73 1076.57 1719.55 1023.36 1811.71 1031.73 1811.71 1084.94 1719.55 970.01 1520.49 740.16 1520.49 625.23 1719.55 678.44 1811.71 686.81 1811.71"/>
              <polygon class="st1" points="685.02 1811.71 631.81 1719.55 743.45 1526.19 966.72 1526.19 1078.36 1719.55 1025.15 1811.71 1031.73 1811.71 1084.94 1719.55 970.01 1520.49 740.16 1520.49 625.23 1719.55 678.44 1811.71 685.02 1811.71"/>
              <path class="st1" d="M1324.78,907.88l110.74,191.82-110.74,191.82h-221.49l-110.74-191.82,110.74-191.82h221.49M1328.96,900.64h-229.86l-114.93,199.06,114.93,199.06h229.86l114.93-199.06-114.93-199.06h0Z"/>
              <path class="st1" d="M1325.67,906.34l111.64,193.36-111.64,193.36h-223.28l-111.64-193.36,111.64-193.36h223.28M1328.96,900.64h-229.86l-114.93,199.06,114.93,199.06h229.86l114.93-199.06-114.93-199.06h0Z"/>
              <path class="st1" d="M1324.78,1321.2l110.74,191.82-110.74,191.82h-221.49l-110.74-191.82,110.74-191.82h221.49M1328.96,1313.95h-229.86l-114.93,199.06,114.93,199.06h229.86l114.93-199.06-114.93-199.06h0Z"/>
              <path class="st1" d="M1325.67,1319.65l111.64,193.36-111.64,193.36h-223.28l-111.64-193.36,111.64-193.36h223.28M1328.96,1313.95h-229.86l-114.93,199.06,114.93,199.06h229.86l114.93-199.06-114.93-199.06h0Z"/>
              <path class="st1" d="M1683.72,1114.42l110.75,191.82-110.75,191.82h-221.49l-110.74-191.82,110.74-191.82h221.49M1687.91,1107.18h-229.85l-114.93,199.06,114.93,199.06h229.85l114.93-199.06-114.93-199.06h0Z"/>
              <path class="st1" d="M1684.62,1112.88l111.64,193.36-111.64,193.36h-223.27l-111.64-193.36,111.64-193.36h223.27M1687.91,1107.18h-229.85l-114.93,199.06,114.93,199.06h229.85l114.93-199.06-114.93-199.06h0Z"/>
              <polygon class="st1" points="1059.54 1811.71 1103.29 1735.93 1324.78 1735.93 1368.53 1811.71 1376.89 1811.71 1328.96 1728.69 1099.1 1728.69 1051.17 1811.71 1059.54 1811.71"/>
              <polygon class="st1" points="1057.75 1811.71 1102.39 1734.39 1325.67 1734.39 1370.31 1811.71 1376.89 1811.71 1328.96 1728.69 1099.1 1728.69 1051.17 1811.71 1057.75 1811.71"/>
              <path class="st1" d="M1687.64,1781.65l-162.3-281.11,162.3-281.1h324.59l162.29,281.1-162.29,281.11h-324.59M1681.51,1792.26h336.85l168.43-291.72-168.43-291.72h-336.85l-168.43,291.72,168.43,291.72h0Z"/>
              <path class="st1" d="M1686.33,1783.91l-163.61-283.37,163.61-283.37h327.21l163.6,283.37-163.6,283.37h-327.21M1681.51,1792.26h336.85l168.43-291.72-168.43-291.72h-336.85l-168.43,291.72,168.43,291.72h0Z"/>
              <path class="st1" d="M1687.64,1175.94l-162.3-281.1,162.3-281.11h324.59l162.29,281.11-162.29,281.1h-324.59M1681.51,1186.56h336.85l168.43-291.72-168.43-291.72h-336.85l-168.43,291.72,168.43,291.72h0Z"/>
              <path class="st1" d="M1686.33,1178.21l-163.61-283.37,163.61-283.37h327.21l163.6,283.37-163.6,283.37h-327.21M1681.51,1186.56h336.85l168.43-291.72-168.43-291.72h-336.85l-168.43,291.72,168.43,291.72h0Z"/>
              <polygon class="st1" points="1004.21 1811.71 999.31 1803.22 1161.6 1522.12 1486.19 1522.12 1648.49 1803.22 1643.59 1811.71 1655.85 1811.71 1660.75 1803.22 1492.32 1511.5 1155.47 1511.5 987.05 1803.22 991.95 1811.71 1004.21 1811.71"/>
              <polygon class="st1" points="1001.59 1811.71 996.69 1803.22 1160.29 1519.85 1487.5 1519.85 1651.11 1803.22 1646.21 1811.71 1655.85 1811.71 1660.75 1803.22 1492.32 1511.5 1155.47 1511.5 987.05 1803.22 991.95 1811.71 1001.59 1811.71"/>
              <path class="st1" d="M1161.6,1478.62l-162.3-281.11,162.3-281.11h324.59l162.3,281.11-162.3,281.11h-324.59M1155.47,1489.24h336.85l168.42-291.72-168.42-291.72h-336.85l-168.42,291.72,168.42,291.72h0Z"/>
              <path class="st1" d="M1160.29,1480.89l-163.6-283.37,163.6-283.37h327.21l163.6,283.37-163.6,283.37h-327.21M1155.47,1489.24h336.85l168.42-291.72-168.42-291.72h-336.85l-168.42,291.72,168.42,291.72h0Z"/>
              <path class="st1" d="M635.57,1781.65l-162.3-281.11,162.3-281.1h324.59l162.3,281.1-162.3,281.11h-324.59M629.44,1792.26h336.85l168.42-291.72-168.42-291.72h-336.85l-168.43,291.72,168.43,291.72h0Z"/>
              <path class="st1" d="M634.26,1783.91l-163.61-283.37,163.61-283.37h327.21l163.6,283.37-163.6,283.37h-327.21M629.44,1792.26h336.85l168.42-291.72-168.42-291.72h-336.85l-168.43,291.72,168.43,291.72h0Z"/>
              <path class="st1" d="M635.57,1175.94l-162.3-281.1,162.3-281.11h324.59l162.3,281.11-162.3,281.1h-324.59M629.44,1186.56h336.85l168.42-291.72-168.42-291.72h-336.85l-168.43,291.72,168.43,291.72h0Z"/>
              <path class="st1" d="M634.26,1178.21l-163.61-283.37,163.61-283.37h327.21l163.6,283.37-163.6,283.37h-327.21M629.44,1186.56h336.85l168.42-291.72-168.42-291.72h-336.85l-168.43,291.72,168.43,291.72h0Z"/>
              <polygon class="st1" points="434.12 1522.12 596.41 1803.22 591.51 1811.71 603.77 1811.71 608.68 1803.22 440.25 1511.5 103.4 1511.5 -30.02 1742.59 -30.02 1763.82 109.53 1522.12 434.12 1522.12"/>
              <polygon class="st1" points="435.43 1519.85 599.03 1803.22 594.13 1811.71 603.77 1811.71 608.68 1803.22 440.25 1511.5 103.4 1511.5 -30.02 1742.59 -30.02 1759.29 108.22 1519.85 435.43 1519.85"/>
              <path class="st1" d="M1687.64,568.15l-162.3-281.11L1687.64,5.94h324.59l162.29,281.1-162.29,281.11h-324.59M1681.51,578.76h336.85l168.43-291.72L2018.36-4.68h-336.85l-168.43,291.72,168.43,291.72h0Z"/>
              <path class="st1" d="M1686.33,570.41l-163.61-283.37L1686.33,3.67h327.21l163.6,283.37-163.6,283.37h-327.21M1681.51,578.76h336.85l168.43-291.72L2018.36-4.68h-336.85l-168.43,291.72,168.43,291.72h0Z"/>
              <polygon class="st1" points="2027.88 -64.68 2012.23 -37.56 1687.64 -37.56 1671.98 -64.68 1659.72 -64.68 1681.51 -26.94 2018.36 -26.94 2040.14 -64.68 2027.88 -64.68"/>
              <polygon class="st1" points="2030.5 -64.68 2013.54 -35.29 1686.33 -35.29 1669.36 -64.68 1659.72 -64.68 1681.51 -26.94 2018.36 -26.94 2040.14 -64.68 2030.5 -64.68"/>
              <path class="st1" d="M1161.6,870.83l-162.3-281.1,162.3-281.11h324.59l162.3,281.11-162.3,281.1h-324.59M1155.47,881.44h336.85l168.42-291.72-168.42-291.72h-336.85l-168.42,291.72,168.42,291.72h0Z"/>
              <path class="st1" d="M1160.29,873.09l-163.6-283.37,163.6-283.37h327.21l163.6,283.37-163.6,283.37h-327.21M1155.47,881.44h336.85l168.42-291.72-168.42-291.72h-336.85l-168.42,291.72,168.42,291.72h0Z"/>
              <polygon class="st1" points="1620.38 -64.68 1648.49 -15.99 1486.19 265.12 1161.6 265.12 999.31 -15.99 1027.42 -64.68 1015.16 -64.68 987.05 -15.99 1155.47 275.73 1492.32 275.73 1660.75 -15.99 1632.64 -64.68 1620.38 -64.68"/>
              <polygon class="st1" points="1622.99 -64.68 1651.11 -15.99 1487.5 267.38 1160.29 267.38 996.69 -15.99 1024.8 -64.68 1015.16 -64.68 987.05 -15.99 1155.47 275.73 1492.32 275.73 1660.75 -15.99 1632.64 -64.68 1622.99 -64.68"/>
              <path class="st1" d="M635.57,568.15l-162.3-281.11L635.57,5.94h324.59l162.3,281.1-162.3,281.11h-324.59M629.44,578.76h336.85l168.42-291.72L966.29-4.68h-336.85l-168.43,291.72,168.43,291.72h0Z"/>
              <path class="st1" d="M634.26,570.41l-163.61-283.37L634.26,3.67h327.21l163.6,283.37-163.6,283.37h-327.21M629.44,578.76h336.85l168.42-291.72L966.29-4.68h-336.85l-168.43,291.72,168.43,291.72h0Z"/>
              <polygon class="st1" points="2634.21 1594.67 2326.71 1594.67 2164.41 1313.57 2326.71 1032.46 2634.21 1032.46 2634.21 1021.85 2320.58 1021.85 2152.15 1313.57 2320.58 1605.29 2634.21 1605.29 2634.21 1594.67"/>
              <polygon class="st1" points="2634.21 1596.94 2325.4 1596.94 2161.79 1313.57 2325.4 1030.2 2634.21 1030.2 2634.21 1021.85 2320.58 1021.85 2152.15 1313.57 2320.58 1605.29 2634.21 1605.29 2634.21 1596.94"/>
              <polygon class="st1" points="2634.21 988.96 2326.71 988.96 2164.41 707.86 2326.71 426.75 2634.21 426.75 2634.21 416.14 2320.58 416.14 2152.15 707.86 2320.58 999.58 2634.21 999.58 2634.21 988.96"/>
              <polygon class="st1" points="2634.21 991.23 2325.4 991.23 2161.79 707.86 2325.4 424.49 2634.21 424.49 2634.21 416.14 2320.58 416.14 2152.15 707.86 2320.58 999.58 2634.21 999.58 2634.21 991.23"/>
              <path class="st1" d="M1800.67,1291.99l-162.3-281.11,162.3-281.1h324.59l162.3,281.1-162.3,281.11h-324.59M1794.54,1302.61h336.85l168.43-291.72-168.43-291.72h-336.85l-168.43,291.72,168.43,291.72h0Z"/>
              <path class="st1" d="M1799.36,1294.26l-163.61-283.37,163.61-283.37h327.21l163.6,283.37-163.6,283.37h-327.21M1794.54,1302.61h336.85l168.43-291.72-168.43-291.72h-336.85l-168.43,291.72,168.43,291.72h0Z"/>
              <path class="st1" d="M1800.67,686.28l-162.3-281.1,162.3-281.11h324.59l162.3,281.11-162.3,281.1h-324.59M1794.54,696.9h336.85l168.43-291.72-168.43-291.72h-336.85l-168.43,291.72,168.43,291.72h0Z"/>
              <path class="st1" d="M1799.36,688.55l-163.61-283.37,163.61-283.37h327.21l163.6,283.37-163.6,283.37h-327.21M1794.54,696.9h336.85l168.43-291.72-168.43-291.72h-336.85l-168.43,291.72,168.43,291.72h0Z"/>
              <path class="st1" d="M1274.63,1594.67l-162.29-281.11,162.29-281.11h324.59l162.3,281.11-162.3,281.11h-324.59M1268.5,1605.29h336.85l168.43-291.72-168.43-291.72h-336.85l-168.42,291.72,168.42,291.72h0Z"/>
              <path class="st1" d="M1273.33,1596.94l-163.6-283.37,163.6-283.37h327.21l163.61,283.37-163.61,283.37h-327.21M1268.5,1605.29h336.85l168.43-291.72-168.43-291.72h-336.85l-168.42,291.72,168.42,291.72h0Z"/>
              <polygon class="st1" points="2634.21 381.17 2326.71 381.17 2164.41 100.07 2259.53 -64.68 2247.27 -64.68 2152.15 100.07 2320.58 391.79 2634.21 391.79 2634.21 381.17"/>
              <polygon class="st1" points="2634.21 383.44 2325.4 383.44 2161.79 100.07 2256.91 -64.68 2247.27 -64.68 2152.15 100.07 2320.58 391.79 2634.21 391.79 2634.21 383.44"/>
              <polygon class="st1" points="2207.92 -64.68 2125.26 78.49 1800.67 78.49 1718.01 -64.68 1705.75 -64.68 1794.54 89.11 2131.39 89.11 2220.18 -64.68 2207.92 -64.68"/>
              <polygon class="st1" points="2210.54 -64.68 2126.57 80.76 1799.36 80.76 1715.4 -64.68 1705.75 -64.68 1794.54 89.11 2131.39 89.11 2220.18 -64.68 2210.54 -64.68"/>
              <polygon class="st1" points="225.93 -64.68 218.99 -64.68 225.92 -52.68 133.98 106.57 -30.02 106.57 -30.02 112.58 137.45 112.58 232.86 -52.68 225.93 -64.68"/>
              <polygon class="st1" points="225.93 -64.68 220.47 -64.68 227.4 -52.68 134.72 107.85 -30.02 107.85 -30.02 112.58 137.45 112.58 232.86 -52.68 225.93 -64.68"/>
              <polygon class="st1" points="137.45 125.19 -30.02 125.19 -30.02 131.21 133.98 131.21 225.92 290.45 133.98 449.7 -30.02 449.7 -30.02 455.71 137.45 455.71 232.86 290.45 137.45 125.19"/>
              <polygon class="st1" points="137.45 125.19 -30.02 125.19 -30.02 129.92 134.72 129.92 227.4 290.45 134.72 450.98 -30.02 450.98 -30.02 455.71 137.45 455.71 232.86 290.45 137.45 125.19"/>
              <path class="st1" d="M431.97-40.45l91.94,159.24-91.94,159.24h-183.88l-91.94-159.24L248.1-40.45h183.88M435.45-46.47h-190.82l-95.41,165.26,95.41,165.26h190.82l95.41-165.26-95.41-165.26h0Z"/>
              <path class="st1" d="M432.72-41.74l92.68,160.53-92.68,160.53h-185.36l-92.68-160.53L247.35-41.74h185.36M435.45-46.47h-190.82l-95.41,165.26,95.41,165.26h190.82l95.41-165.26-95.41-165.26h0Z"/>
              <path class="st1" d="M431.97,302.67l91.94,159.24-91.94,159.24h-183.88l-91.94-159.24,91.94-159.24h183.88M435.45,296.66h-190.82l-95.41,165.26,95.41,165.26h190.82l95.41-165.26-95.41-165.26h0Z"/>
              <path class="st1" d="M432.72,301.39l92.68,160.53-92.68,160.53h-185.36l-92.68-160.53,92.68-160.53h185.36M435.45,296.66h-190.82l-95.41,165.26,95.41,165.26h190.82l95.41-165.26-95.41-165.26h0Z"/>
              <polygon class="st1" points="814.98 -64.68 821.91 -52.68 729.97 106.57 546.09 106.57 454.15 -52.68 461.08 -64.68 454.14 -64.68 447.21 -52.68 542.62 112.58 733.44 112.58 828.85 -52.68 821.93 -64.68 814.98 -64.68"/>
              <polygon class="st1" points="816.46 -64.68 823.39 -52.68 730.71 107.85 545.35 107.85 452.67 -52.68 459.6 -64.68 454.14 -64.68 447.21 -52.68 542.62 112.58 733.44 112.58 828.85 -52.68 821.93 -64.68 816.46 -64.68"/>
              <polygon class="st1" points="137.45 469.51 -30.02 469.51 -30.02 475.52 133.98 475.52 225.92 634.76 133.98 794.01 -30.02 794.01 -30.02 800.02 137.45 800.02 232.86 634.76 137.45 469.51"/>
              <polygon class="st1" points="137.45 469.51 -30.02 469.51 -30.02 474.24 134.72 474.24 227.4 634.76 134.72 795.29 -30.02 795.29 -30.02 800.02 137.45 800.02 232.86 634.76 137.45 469.51"/>
              <polygon class="st1" points="137.45 812.64 -30.02 812.64 -30.02 818.65 133.98 818.65 225.92 977.89 133.98 1137.14 -30.02 1137.14 -30.02 1143.15 137.45 1143.15 232.86 977.89 137.45 812.64"/>
              <polygon class="st1" points="137.45 812.64 -30.02 812.64 -30.02 817.37 134.72 817.37 227.4 977.89 134.72 1138.42 -30.02 1138.42 -30.02 1143.15 137.45 1143.15 232.86 977.89 137.45 812.64"/>
              <path class="st1" d="M431.97,646.99l91.94,159.24-91.94,159.24h-183.88l-91.94-159.24,91.94-159.24h183.88M435.45,640.97h-190.82l-95.41,165.26,95.41,165.26h190.82l95.41-165.26-95.41-165.26h0Z"/>
              <path class="st1" d="M432.72,645.7l92.68,160.53-92.68,160.53h-185.36l-92.68-160.53,92.68-160.53h185.36M435.45,640.97h-190.82l-95.41,165.26,95.41,165.26h190.82l95.41-165.26-95.41-165.26h0Z"/>
              <polygon class="st1" points="137.45 1156.95 -30.02 1156.95 -30.02 1162.96 133.98 1162.96 225.92 1322.21 133.98 1481.45 -30.02 1481.45 -30.02 1487.46 137.45 1487.46 232.86 1322.21 137.45 1156.95"/>
              <polygon class="st1" points="137.45 1156.95 -30.02 1156.95 -30.02 1161.68 134.72 1161.68 227.4 1322.21 134.72 1482.73 -30.02 1482.73 -30.02 1487.46 137.45 1487.46 232.86 1322.21 137.45 1156.95"/>
              <path class="st1" d="M435.22,1200.92l-134.74-233.37,134.74-233.37h269.47l134.74,233.37-134.74,233.37h-269.47M430.13,1209.73h279.65l139.83-242.19-139.83-242.19h-279.65l-139.83,242.19,139.83,242.19h0Z"/>
              <path class="st1" d="M434.14,1202.8l-135.83-235.25,135.83-235.25h271.65l135.82,235.25-135.82,235.25h-271.65M430.13,1209.73h279.65l139.83-242.19-139.83-242.19h-279.65l-139.83,242.19,139.83,242.19h0Z"/>
              <path class="st1" d="M435.22,698.06l-134.74-233.37,134.74-233.37h269.47l134.74,233.37-134.74,233.37h-269.47M430.13,706.87h279.65l139.83-242.19-139.83-242.19h-279.65l-139.83,242.19,139.83,242.19h0Z"/>
              <path class="st1" d="M434.14,699.94l-135.83-235.25,135.83-235.25h271.65l135.82,235.25-135.82,235.25h-271.65M430.13,706.87h279.65l139.83-242.19-139.83-242.19h-279.65l-139.83,242.19,139.83,242.19h0Z"/>
              <polygon class="st1" points="273.07 976.64 -6.58 976.64 -30.02 1017.24 -30.02 1034.87 -1.49 985.45 267.98 985.45 402.72 1218.83 267.98 1452.2 -1.49 1452.2 -30.02 1402.78 -30.02 1420.41 -6.58 1461.01 273.07 1461.01 412.9 1218.83 273.07 976.64"/>
              <polygon class="st1" points="273.07 976.64 -6.58 976.64 -30.02 1017.24 -30.02 1031.1 -2.58 983.57 269.07 983.57 404.89 1218.83 269.07 1454.08 -2.58 1454.08 -30.02 1406.55 -30.02 1420.41 -6.58 1461.01 273.07 1461.01 412.9 1218.83 273.07 976.64"/>
              <polygon class="st1" points="273.07 473.79 -6.58 473.79 -30.02 514.39 -30.02 532.01 -1.49 482.6 267.98 482.6 402.72 715.97 267.98 949.34 -1.49 949.34 -30.02 899.93 -30.02 917.56 -6.58 958.16 273.07 958.16 412.9 715.97 273.07 473.79"/>
              <polygon class="st1" points="273.07 473.79 -6.58 473.79 -30.02 514.39 -30.02 528.25 -2.58 480.72 269.07 480.72 404.89 715.97 269.07 951.22 -2.58 951.22 -30.02 903.69 -30.02 917.56 -6.58 958.16 273.07 958.16 412.9 715.97 273.07 473.79"/>
              <polygon class="st1" points="-30.02 956.8 -30.02 978.29 -23.82 967.54 -30.02 956.8"/>
              <polygon class="st1" points="-30.02 956.8 -30.02 978.29 -23.82 967.54 -30.02 956.8"/>
              <polygon class="st1" points="-30.02 453.94 -30.02 475.44 -23.82 464.69 -30.02 453.94"/>
              <polygon class="st1" points="-30.02 453.94 -30.02 475.44 -23.82 464.69 -30.02 453.94"/>
              <polygon class="st1" points="825.13 -64.68 839.43 -39.9 704.7 193.47 435.22 193.47 300.48 -39.9 314.79 -64.68 304.61 -64.68 290.31 -39.9 430.13 202.28 709.79 202.28 849.61 -39.9 835.31 -64.68 825.13 -64.68"/>
              <polygon class="st1" points="827.3 -64.68 841.61 -39.9 705.78 195.35 434.14 195.35 298.31 -39.9 312.62 -64.68 304.61 -64.68 290.31 -39.9 430.13 202.28 709.79 202.28 849.61 -39.9 835.31 -64.68 827.3 -64.68"/>
              <polygon class="st1" points="273.07 -30.8 -6.58 -30.8 -30.02 9.8 -30.02 27.43 -1.49 -21.99 267.98 -21.99 402.72 211.38 267.98 444.75 -1.49 444.75 -30.02 395.34 -30.02 412.97 -6.58 453.57 273.07 453.57 412.9 211.38 273.07 -30.8"/>
              <polygon class="st1" points="273.07 -30.8 -6.58 -30.8 -30.02 9.8 -30.02 23.66 -2.58 -23.87 269.07 -23.87 404.89 211.38 269.07 446.64 -2.58 446.64 -30.02 399.1 -30.02 412.97 -6.58 453.57 273.07 453.57 412.9 211.38 273.07 -30.8"/>
              <polygon class="st1" points="271.78 -64.68 267.98 -58.1 -1.49 -58.1 -5.29 -64.68 -15.46 -64.68 -6.58 -49.29 273.07 -49.29 281.96 -64.68 271.78 -64.68"/>
              <polygon class="st1" points="273.95 -64.68 269.07 -56.22 -2.58 -56.22 -7.46 -64.68 -15.46 -64.68 -6.58 -49.29 273.07 -49.29 281.96 -64.68 273.95 -64.68"/>
              <polygon class="st1" points="-30.02 -50.65 -30.02 -29.15 -23.82 -39.9 -30.02 -50.65"/>
              <polygon class="st1" points="-30.02 -50.65 -30.02 -29.15 -23.82 -39.9 -30.02 -50.65"/>
              <path class="st1" d="M1402.49,794.41l-134.74-233.37,134.74-233.37h269.47l134.74,233.37-134.74,233.37h-269.47M1397.4,803.22h279.65l139.83-242.19-139.83-242.19h-279.65l-139.83,242.19,139.83,242.19h0Z"/>
              <path class="st1" d="M1401.4,796.29l-135.83-235.25,135.83-235.25h271.65l135.82,235.25-135.82,235.25h-271.65M1397.4,803.22h279.65l139.83-242.19-139.83-242.19h-279.65l-139.83,242.19,139.83,242.19h0Z"/>
              <polygon class="st1" points="1735.77 -64.68 1806.7 58.18 1671.96 291.55 1402.49 291.55 1267.75 58.18 1338.68 -64.68 1328.5 -64.68 1257.57 58.18 1397.4 300.36 1677.05 300.36 1816.88 58.18 1745.95 -64.68 1735.77 -64.68"/>
              <polygon class="st1" points="1737.94 -64.68 1808.87 58.18 1673.05 293.43 1401.4 293.43 1265.58 58.18 1336.51 -64.68 1328.5 -64.68 1257.57 58.18 1397.4 300.36 1677.05 300.36 1816.88 58.18 1745.95 -64.68 1737.94 -64.68"/>
              <path class="st1" d="M965.78,1045.69l-134.74-233.37,134.74-233.37h269.48l134.74,233.37-134.74,233.37h-269.48M960.69,1054.5h279.65l139.83-242.19-139.83-242.19h-279.65l-139.83,242.19,139.83,242.19h0Z"/>
              <path class="st1" d="M964.69,1047.57l-135.82-235.25,135.82-235.25h271.65l135.82,235.25-135.82,235.25h-271.65M960.69,1054.5h279.65l139.83-242.19-139.83-242.19h-279.65l-139.83,242.19,139.83,242.19h0Z"/>
              <path class="st1" d="M965.78,542.83l-134.74-233.37,134.74-233.37h269.48l134.74,233.37-134.74,233.37h-269.48M960.69,551.65h279.65l139.83-242.19-139.83-242.19h-279.65l-139.83,242.19,139.83,242.19h0Z"/>
              <path class="st1" d="M964.69,544.71l-135.82-235.25,135.82-235.25h271.65l135.82,235.25-135.82,235.25h-271.65M960.69,551.65h279.65l139.83-242.19-139.83-242.19h-279.65l-139.83,242.19,139.83,242.19h0Z"/>
              <path class="st1" d="M529.06,794.41l-134.74-233.37,134.74-233.37h269.47l134.74,233.37-134.74,233.37h-269.47M523.97,803.22h279.65l139.83-242.19-139.83-242.19h-279.65l-139.83,242.19,139.83,242.19h0Z"/>
              <path class="st1" d="M527.98,796.29l-135.83-235.25,135.83-235.25h271.65l135.82,235.25-135.82,235.25h-271.65M523.97,803.22h279.65l139.83-242.19-139.83-242.19h-279.65l-139.83,242.19,139.83,242.19h0Z"/>
              <polygon class="st1" points="862.34 -64.68 933.27 58.18 798.54 291.55 529.06 291.55 394.33 58.18 465.26 -64.68 455.08 -64.68 384.15 58.18 523.97 300.36 803.63 300.36 943.45 58.18 872.52 -64.68 862.34 -64.68"/>
              <polygon class="st1" points="864.52 -64.68 935.45 58.18 799.62 293.43 527.98 293.43 392.15 58.18 463.08 -64.68 455.08 -64.68 384.15 58.18 523.97 300.36 803.63 300.36 943.45 58.18 872.52 -64.68 864.52 -64.68"/>
              <polygon class="st1" points="366.91 570.13 87.26 570.13 -30.02 773.27 -30.02 790.9 92.35 578.94 361.82 578.94 496.56 812.32 361.82 1045.69 92.35 1045.69 -30.02 833.74 -30.02 851.36 87.26 1054.5 366.91 1054.5 506.74 812.32 366.91 570.13"/>
              <polygon class="st1" points="366.91 570.13 87.26 570.13 -30.02 773.27 -30.02 787.13 91.26 577.06 362.91 577.06 498.73 812.32 362.91 1047.57 91.26 1047.57 -30.02 837.5 -30.02 851.36 87.26 1054.5 366.91 1054.5 506.74 812.32 366.91 570.13"/>
              <polygon class="st1" points="1294.67 -64.68 1235.25 38.25 965.77 38.25 906.35 -64.68 896.18 -64.68 960.69 47.06 1240.34 47.06 1304.85 -64.68 1294.67 -64.68"/>
              <polygon class="st1" points="1296.85 -64.68 1236.34 40.13 964.69 40.13 904.18 -64.68 896.18 -64.68 960.69 47.06 1240.34 47.06 1304.85 -64.68 1296.85 -64.68"/>
              <polygon class="st1" points="2634.21 1568.14 2622.47 1568.14 2557.89 1456.28 2622.47 1344.43 2634.21 1344.43 2634.21 1340.2 2620.03 1340.2 2553.01 1456.28 2620.03 1572.36 2634.21 1572.36 2634.21 1568.14"/>
              <polygon class="st1" points="2634.21 1569.04 2621.94 1569.04 2556.84 1456.28 2621.94 1343.53 2634.21 1343.53 2634.21 1340.2 2620.03 1340.2 2553.01 1456.28 2620.03 1572.36 2634.21 1572.36 2634.21 1569.04"/>
              <polygon class="st1" points="2634.21 1327.12 2622.47 1327.12 2557.89 1215.27 2622.47 1103.41 2634.21 1103.41 2634.21 1099.19 2620.03 1099.19 2553.01 1215.27 2620.03 1331.35 2634.21 1331.35 2634.21 1327.12"/>
              <polygon class="st1" points="2634.21 1328.02 2621.94 1328.02 2556.84 1215.27 2621.94 1102.51 2634.21 1102.51 2634.21 1099.19 2620.03 1099.19 2553.01 1215.27 2620.03 1331.35 2634.21 1331.35 2634.21 1328.02"/>
              <path class="st1" d="M2413.15,1688.57l-64.58-111.85,64.58-111.85h129.16l64.58,111.85-64.58,111.85h-129.16M2410.71,1692.8h134.04l67.02-116.08-67.02-116.08h-134.04l-67.02,116.08,67.02,116.08h0Z"/>
              <path class="st1" d="M2412.63,1689.48l-65.1-112.76,65.1-112.76h130.2l65.1,112.76-65.1,112.76h-130.2M2410.71,1692.8h134.04l67.02-116.08-67.02-116.08h-134.04l-67.02,116.08,67.02,116.08h0Z"/>
              <path class="st1" d="M2413.15,1447.56l-64.58-111.85,64.58-111.85h129.16l64.58,111.85-64.58,111.85h-129.16M2410.71,1451.78h134.04l67.02-116.08-67.02-116.08h-134.04l-67.02,116.08,67.02,116.08h0Z"/>
              <path class="st1" d="M2412.63,1448.46l-65.1-112.76,65.1-112.76h130.2l65.1,112.76-65.1,112.76h-130.2M2410.71,1451.78h134.04l67.02-116.08-67.02-116.08h-134.04l-67.02,116.08,67.02,116.08h0Z"/>
              <path class="st1" d="M2203.84,1568.14l-64.58-111.85,64.58-111.85h129.16l64.58,111.85-64.58,111.85h-129.16M2201.4,1572.36h134.03l67.02-116.08-67.02-116.08h-134.03l-67.02,116.08,67.02,116.08h0Z"/>
              <path class="st1" d="M2203.32,1569.04l-65.1-112.76,65.1-112.76h130.2l65.1,112.76-65.1,112.76h-130.2M2201.4,1572.36h134.03l67.02-116.08-67.02-116.08h-134.03l-67.02,116.08,67.02,116.08h0Z"/>
              <path class="st1" d="M2203.84,1327.12l-64.58-111.85,64.58-111.85h129.16l64.58,111.85-64.58,111.85h-129.16M2201.4,1331.35h134.03l67.02-116.08-67.02-116.08h-134.03l-67.02,116.08,67.02,116.08h0Z"/>
              <path class="st1" d="M2203.32,1328.02l-65.1-112.76,65.1-112.76h130.2l65.1,112.76-65.1,112.76h-130.2M2201.4,1331.35h134.03l67.02-116.08-67.02-116.08h-134.03l-67.02,116.08,67.02,116.08h0Z"/>
              <path class="st1" d="M1994.53,1688.57l-64.58-111.85,64.58-111.85h129.16l64.58,111.85-64.58,111.85h-129.16M1992.09,1692.8h134.03l67.02-116.08-67.02-116.08h-134.03l-67.02,116.08,67.02,116.08h0Z"/>
              <path class="st1" d="M1994,1689.48l-65.1-112.76,65.1-112.76h130.2l65.1,112.76-65.1,112.76h-130.2M1992.09,1692.8h134.03l67.02-116.08-67.02-116.08h-134.03l-67.02,116.08,67.02,116.08h0Z"/>
              <polygon class="st1" points="2634.21 1085.27 2622.47 1085.27 2557.89 973.42 2622.47 861.57 2634.21 861.57 2634.21 857.34 2620.03 857.34 2553.01 973.42 2620.03 1089.5 2634.21 1089.5 2634.21 1085.27"/>
              <polygon class="st1" points="2634.21 1086.18 2621.94 1086.18 2556.84 973.42 2621.94 860.67 2634.21 860.67 2634.21 857.34 2620.03 857.34 2553.01 973.42 2620.03 1089.5 2634.21 1089.5 2634.21 1086.18"/>
              <polygon class="st1" points="2634.21 844.26 2622.47 844.26 2557.89 732.41 2622.47 620.55 2634.21 620.55 2634.21 616.33 2620.03 616.33 2553.01 732.41 2620.03 848.48 2634.21 848.48 2634.21 844.26"/>
              <polygon class="st1" points="2634.21 845.16 2621.94 845.16 2556.84 732.41 2621.94 619.65 2634.21 619.65 2634.21 616.33 2620.03 616.33 2553.01 732.41 2620.03 848.48 2634.21 848.48 2634.21 845.16"/>
              <path class="st1" d="M2413.15,1205.71l-64.58-111.85,64.58-111.85h129.16l64.58,111.85-64.58,111.85h-129.16M2410.71,1209.94h134.04l67.02-116.08-67.02-116.08h-134.04l-67.02,116.08,67.02,116.08h0Z"/>
              <path class="st1" d="M2412.63,1206.62l-65.1-112.76,65.1-112.76h130.2l65.1,112.76-65.1,112.76h-130.2M2410.71,1209.94h134.04l67.02-116.08-67.02-116.08h-134.04l-67.02,116.08,67.02,116.08h0Z"/>
              <path class="st1" d="M2413.15,964.7l-64.58-111.85,64.58-111.85h129.16l64.58,111.85-64.58,111.85h-129.16M2410.71,968.92h134.04l67.02-116.08-67.02-116.08h-134.04l-67.02,116.08,67.02,116.08h0Z"/>
              <path class="st1" d="M2412.63,965.6l-65.1-112.76,65.1-112.76h130.2l65.1,112.76-65.1,112.76h-130.2M2410.71,968.92h134.04l67.02-116.08-67.02-116.08h-134.04l-67.02,116.08,67.02,116.08h0Z"/>
              <path class="st1" d="M2203.84,1085.28l-64.58-111.85,64.58-111.85h129.16l64.58,111.85-64.58,111.85h-129.16M2201.4,1089.5h134.03l67.02-116.08-67.02-116.08h-134.03l-67.02,116.08,67.02,116.08h0Z"/>
              <path class="st1" d="M2203.32,1086.18l-65.1-112.76,65.1-112.76h130.2l65.1,112.76-65.1,112.76h-130.2M2201.4,1089.5h134.03l67.02-116.08-67.02-116.08h-134.03l-67.02,116.08,67.02,116.08h0Z"/>
              <path class="st1" d="M2413.15,722.85l-64.58-111.85,64.58-111.85h129.16l64.58,111.85-64.58,111.85h-129.16M2410.71,727.08h134.04l67.02-116.08-67.02-116.08h-134.04l-67.02,116.08,67.02,116.08h0Z"/>
              <path class="st1" d="M2412.63,723.75l-65.1-112.76,65.1-112.76h130.2l65.1,112.76-65.1,112.76h-130.2M2410.71,727.08h134.04l67.02-116.08-67.02-116.08h-134.04l-67.02,116.08,67.02,116.08h0Z"/>
              <path class="st1" d="M2201.56,696.19l94.64,163.92-94.64,163.92h-189.28l-94.64-163.92,94.64-163.92h189.28M2205.13,690h-196.43l-98.21,170.11,98.21,170.11h196.43l98.22-170.11-98.22-170.11h0Z"/>
              <path class="st1" d="M2202.32,694.87l95.4,165.24-95.4,165.24h-190.81l-95.4-165.24,95.4-165.24h190.81M2205.13,690h-196.43l-98.21,170.11,98.21,170.11h196.43l98.22-170.11-98.22-170.11h0Z"/>
              <path class="st1" d="M2201.56,1049.4l94.64,163.92-94.64,163.92h-189.28l-94.64-163.92,94.64-163.92h189.28M2205.13,1043.21h-196.43l-98.21,170.11,98.21,170.11h196.43l98.22-170.11-98.22-170.11h0Z"/>
              <path class="st1" d="M2202.32,1048.08l95.4,165.24-95.4,165.24h-190.81l-95.4-165.24,95.4-165.24h190.81M2205.13,1043.21h-196.43l-98.21,170.11,98.21,170.11h196.43l98.22-170.11-98.22-170.11h0Z"/>
              <path class="st1" d="M2508.3,519.69l94.64,163.92-94.64,163.92h-189.28l-94.64-163.92,94.64-163.92h189.28M2511.88,513.5h-196.43l-98.21,170.11,98.21,170.11h196.43l98.21-170.11-98.21-170.11h0Z"/>
              <path class="st1" d="M2509.07,518.37l95.4,165.24-95.4,165.24h-190.81l-95.4-165.24,95.4-165.24h190.81M2511.88,513.5h-196.43l-98.21,170.11,98.21,170.11h196.43l98.21-170.11-98.21-170.11h0Z"/>
              <path class="st1" d="M2508.3,872.9l94.64,163.92-94.64,163.92h-189.28l-94.64-163.92,94.64-163.92h189.28M2511.88,866.71h-196.43l-98.21,170.11,98.21,170.11h196.43l98.21-170.11-98.21-170.11h0Z"/>
              <path class="st1" d="M2509.07,871.58l95.4,165.24-95.4,165.24h-190.81l-95.4-165.24,95.4-165.24h190.81M2511.88,866.71h-196.43l-98.21,170.11,98.21,170.11h196.43l98.21-170.11-98.21-170.11h0Z"/>
              <polygon class="st1" points="2634.21 1024.04 2625.77 1024.04 2531.13 860.12 2625.77 696.19 2634.21 696.19 2634.21 690 2622.2 690 2523.99 860.12 2622.2 1030.23 2634.21 1030.23 2634.21 1024.04"/>
              <polygon class="st1" points="2634.21 1025.36 2625.01 1025.36 2529.61 860.12 2625.01 694.87 2634.21 694.87 2634.21 690 2622.2 690 2523.99 860.12 2622.2 1030.23 2634.21 1030.23 2634.21 1025.36"/>
              <polygon class="st1" points="2634.21 1377.24 2625.77 1377.24 2531.13 1213.32 2625.77 1049.4 2634.21 1049.4 2634.21 1043.21 2622.2 1043.21 2523.99 1213.32 2622.2 1383.43 2634.21 1383.43 2634.21 1377.24"/>
              <polygon class="st1" points="2634.21 1378.57 2625.01 1378.57 2529.61 1213.32 2625.01 1048.08 2634.21 1048.08 2634.21 1043.21 2622.2 1043.21 2523.99 1213.32 2622.2 1383.43 2634.21 1383.43 2634.21 1378.57"/>
              <path class="st1" d="M2201.56,1403.83l94.64,163.92-94.64,163.92h-189.28l-94.64-163.92,94.64-163.92h189.28M2205.13,1397.64h-196.43l-98.21,170.11,98.21,170.11h196.43l98.22-170.11-98.22-170.11h0Z"/>
              <path class="st1" d="M2202.32,1402.5l95.4,165.24-95.4,165.24h-190.81l-95.4-165.24,95.4-165.24h190.81M2205.13,1397.64h-196.43l-98.21,170.11,98.21,170.11h196.43l98.22-170.11-98.22-170.11h0Z"/>
              <polygon class="st1" points="1980.71 1811.71 2012.28 1757.03 2201.56 1757.03 2233.12 1811.71 2240.27 1811.71 2205.13 1750.84 2008.7 1750.84 1973.56 1811.71 1980.71 1811.71"/>
              <polygon class="st1" points="1979.18 1811.71 2011.51 1755.71 2202.32 1755.71 2234.65 1811.71 2240.27 1811.71 2205.13 1750.84 2008.7 1750.84 1973.56 1811.71 1979.18 1811.71"/>
              <path class="st1" d="M2508.3,1227.32l94.64,163.92-94.64,163.92h-189.28l-94.64-163.92,94.64-163.92h189.28M2511.88,1221.13h-196.43l-98.21,170.11,98.21,170.11h196.43l98.21-170.11-98.21-170.11h0Z"/>
              <path class="st1" d="M2509.07,1226l95.4,165.24-95.4,165.24h-190.81l-95.4-165.24,95.4-165.24h190.81M2511.88,1221.13h-196.43l-98.21,170.11,98.21,170.11h196.43l98.21-170.11-98.21-170.11h0Z"/>
              <polygon class="st1" points="2263.22 1811.71 2224.39 1744.45 2319.02 1580.53 2508.3 1580.53 2602.94 1744.45 2564.11 1811.71 2571.26 1811.71 2610.09 1744.45 2511.88 1574.34 2315.45 1574.34 2217.24 1744.45 2256.07 1811.71 2263.22 1811.71"/>
              <polygon class="st1" points="2261.69 1811.71 2222.86 1744.45 2318.26 1579.21 2509.07 1579.21 2604.47 1744.45 2565.64 1811.71 2571.26 1811.71 2610.09 1744.45 2511.88 1574.34 2315.45 1574.34 2217.24 1744.45 2256.07 1811.71 2261.69 1811.71"/>
              <polygon class="st1" points="2634.21 1731.67 2625.77 1731.67 2531.13 1567.75 2625.77 1403.83 2634.21 1403.83 2634.21 1397.63 2622.2 1397.63 2523.99 1567.75 2622.2 1737.86 2634.21 1737.86 2634.21 1731.67"/>
              <polygon class="st1" points="2634.21 1732.99 2625.01 1732.99 2529.61 1567.75 2625.01 1402.5 2634.21 1402.5 2634.21 1397.63 2622.2 1397.63 2523.99 1567.75 2622.2 1737.86 2634.21 1737.86 2634.21 1732.99"/>
              <path class="st1" d="M1522.15,981.73l94.64,163.92-94.64,163.92h-189.28l-94.64-163.92,94.64-163.92h189.28M1525.72,975.54h-196.43l-98.21,170.11,98.21,170.11h196.43l98.22-170.11-98.22-170.11h0Z"/>
              <path class="st1" d="M1522.91,980.41l95.4,165.24-95.4,165.24h-190.81l-95.4-165.24,95.4-165.24h190.81M1525.72,975.54h-196.43l-98.21,170.11,98.21,170.11h196.43l98.22-170.11-98.22-170.11h0Z"/>
              <path class="st1" d="M1522.15,1334.93l94.64,163.92-94.64,163.92h-189.28l-94.64-163.92,94.64-163.92h189.28M1525.72,1328.74h-196.43l-98.21,170.11,98.21,170.11h196.43l98.22-170.11-98.22-170.11h0Z"/>
              <path class="st1" d="M1522.91,1333.61l95.4,165.24-95.4,165.24h-190.81l-95.4-165.24,95.4-165.24h190.81M1525.72,1328.74h-196.43l-98.21,170.11,98.21,170.11h196.43l98.22-170.11-98.22-170.11h0Z"/>
              <path class="st1" d="M1828.89,805.23l94.64,163.92-94.64,163.92h-189.28l-94.64-163.92,94.64-163.92h189.28M1832.47,799.04h-196.43l-98.21,170.11,98.21,170.11h196.43l98.21-170.11-98.21-170.11h0Z"/>
              <path class="st1" d="M1829.66,803.9l95.4,165.24-95.4,165.24h-190.81l-95.4-165.24,95.4-165.24h190.81M1832.47,799.04h-196.43l-98.21,170.11,98.21,170.11h196.43l98.21-170.11-98.21-170.11h0Z"/>
              <path class="st1" d="M1828.89,1158.43l94.64,163.92-94.64,163.92h-189.28l-94.64-163.92,94.64-163.92h189.28M1832.47,1152.24h-196.43l-98.21,170.11,98.21,170.11h196.43l98.21-170.11-98.21-170.11h0Z"/>
              <path class="st1" d="M1829.66,1157.11l95.4,165.24-95.4,165.24h-190.81l-95.4-165.24,95.4-165.24h190.81M1832.47,1152.24h-196.43l-98.21,170.11,98.21,170.11h196.43l98.21-170.11-98.21-170.11h0Z"/>
              <path class="st1" d="M2135.64,981.73l94.64,163.92-94.64,163.92h-189.28l-94.64-163.92,94.64-163.92h189.28M2139.22,975.54h-196.43l-98.21,170.11,98.21,170.11h196.43l98.22-170.11-98.22-170.11h0Z"/>
              <path class="st1" d="M2136.41,980.41l95.4,165.24-95.4,165.24h-190.81l-95.4-165.24,95.4-165.24h190.81M2139.22,975.54h-196.43l-98.21,170.11,98.21,170.11h196.43l98.22-170.11-98.22-170.11h0Z"/>
              <path class="st1" d="M2135.64,1334.93l94.64,163.92-94.64,163.92h-189.28l-94.64-163.92,94.64-163.92h189.28M2139.22,1328.74h-196.43l-98.21,170.11,98.21,170.11h196.43l98.22-170.11-98.22-170.11h0Z"/>
              <path class="st1" d="M2136.41,1333.61l95.4,165.24-95.4,165.24h-190.81l-95.4-165.24,95.4-165.24h190.81M2139.22,1328.74h-196.43l-98.21,170.11,98.21,170.11h196.43l98.22-170.11-98.22-170.11h0Z"/>
              <path class="st1" d="M2442.39,805.23l94.64,163.92-94.64,163.92h-189.28l-94.64-163.92,94.64-163.92h189.28M2445.97,799.04h-196.43l-98.22,170.11,98.22,170.11h196.43l98.21-170.11-98.21-170.11h0Z"/>
              <path class="st1" d="M2443.15,803.9l95.4,165.24-95.4,165.24h-190.81l-95.4-165.24,95.4-165.24h190.81M2445.97,799.04h-196.43l-98.22,170.11,98.22,170.11h196.43l98.21-170.11-98.21-170.11h0Z"/>
              <polygon class="st1" points="1262.23 1811.71 1332.87 1689.36 1522.15 1689.36 1592.79 1811.71 1599.94 1811.71 1525.72 1683.17 1329.29 1683.17 1255.08 1811.71 1262.23 1811.71"/>
              <polygon class="st1" points="1260.7 1811.71 1332.1 1688.04 1522.91 1688.04 1594.31 1811.71 1599.94 1811.71 1525.72 1683.17 1329.29 1683.17 1255.08 1811.71 1260.7 1811.71"/>
              <polygon class="st1" points="1622.88 1811.71 1544.98 1676.78 1639.61 1512.86 1828.89 1512.86 1923.53 1676.78 1845.63 1811.71 1852.78 1811.71 1930.68 1676.78 1832.47 1506.67 1636.04 1506.67 1537.83 1676.78 1615.73 1811.71 1622.88 1811.71"/>
              <polygon class="st1" points="1621.35 1811.71 1543.45 1676.78 1638.85 1511.53 1829.66 1511.53 1925.06 1676.78 1847.16 1811.71 1852.78 1811.71 1930.68 1676.78 1832.47 1506.67 1636.04 1506.67 1537.83 1676.78 1615.73 1811.71 1621.35 1811.71"/>
              <polygon class="st1" points="1875.72 1811.71 1946.36 1689.36 2135.64 1689.36 2206.28 1811.71 2213.43 1811.71 2139.22 1683.17 1942.79 1683.17 1868.57 1811.71 1875.72 1811.71"/>
              <polygon class="st1" points="1874.2 1811.71 1945.6 1688.04 2136.41 1688.04 2207.81 1811.71 2213.43 1811.71 2139.22 1683.17 1942.79 1683.17 1868.57 1811.71 1874.2 1811.71"/>
            </g>
          </g>
        </g>
        <rect class="st0" width="2598.08" height="1732.05"/>
      </g>
    </g>
  </g>
</svg>