<?xml version="1.0" encoding="UTF-8"?>
<svg id="BG" xmlns="http://www.w3.org/2000/svg" version="1.1" xmlns:xlink="http://www.w3.org/1999/xlink" viewBox="0 0 3840 2160">
  <!-- Generator: Adobe Illustrator 29.7.1, SVG Export Plug-In . SVG Version: 2.1.1 Build 8)  -->
  <defs>
    <clipPath id="clippath">
      <rect x="-30.044" y="-1148.099" width="4134.253" height="4134.253" fill="none"/>
    </clipPath>
    <linearGradient id="linear-gradient" x1="-532.262" y1="1640.511" x2="-45.864" y2="1640.511" gradientUnits="userSpaceOnUse">
      <stop offset="0" stop-color="#597180"/>
      <stop offset="1" stop-color="#221f1f"/>
    </linearGradient>
    <linearGradient id="linear-gradient1" x1="-529.476" y1="1744.01" x2="-166.767" y2="1744.01" xlink:href="#linear-gradient"/>
    <linearGradient id="linear-gradient2" x1="-291.152" y1="1536.407" x2="-166.767" y2="1536.407" gradientTransform="translate(1216.088 966.49) rotate(60)" xlink:href="#linear-gradient"/>
    <linearGradient id="linear-gradient3" x1="191.556" y1="2056.92" x2="677.954" y2="2056.92" xlink:href="#linear-gradient"/>
    <linearGradient id="linear-gradient4" x1="194.342" y1="2161.022" x2="1016.765" y2="2161.022" xlink:href="#linear-gradient"/>
    <linearGradient id="linear-gradient5" x1="-48.857" y1="2473.329" x2="437.551" y2="2473.329" xlink:href="#linear-gradient"/>
    <linearGradient id="linear-gradient6" x1="-46.071" y1="2576.829" x2="316.638" y2="2576.829" xlink:href="#linear-gradient"/>
    <linearGradient id="linear-gradient7" x1="192.253" y1="2369.225" x2="316.638" y2="2369.225" gradientTransform="translate(2179.03 964.254) rotate(60)" xlink:href="#linear-gradient"/>
    <linearGradient id="linear-gradient8" x1="672.392" y1="2889.739" x2="1158.784" y2="2889.739" xlink:href="#linear-gradient"/>
    <linearGradient id="linear-gradient9" x1="675.173" y1="2993.238" x2="1037.882" y2="2993.238" xlink:href="#linear-gradient"/>
    <linearGradient id="linear-gradient10" x1="913.505" y1="2785.637" x2="1037.882" y2="2785.637" gradientTransform="translate(2900.276 547.84) rotate(60)" xlink:href="#linear-gradient"/>
    <linearGradient id="linear-gradient11" y1="2056.92" y2="2056.92" xlink:href="#linear-gradient"/>
    <linearGradient id="linear-gradient12" x1="-291.152" y1="2161.022" x2="-166.767" y2="2161.022" gradientTransform="translate(1048.83 403.27) rotate(29.967)" xlink:href="#linear-gradient"/>
    <linearGradient id="linear-gradient13" x1="-291.152" y1="1952.818" x2="-166.767" y2="1952.818" gradientTransform="translate(1576.712 1174.696) rotate(60)" xlink:href="#linear-gradient"/>
    <linearGradient id="linear-gradient14" x1="-171.642" y1="1848.714" x2="314.756" y2="1848.714" xlink:href="#linear-gradient"/>
    <linearGradient id="linear-gradient15" y1="2473.329" y2="2473.329" xlink:href="#linear-gradient"/>
    <linearGradient id="linear-gradient16" x1="311.763" y1="2681.533" x2="798.165" y2="2681.533" xlink:href="#linear-gradient"/>
    <linearGradient id="linear-gradient17" x1="-291.849" y1="2889.739" x2="194.549" y2="2889.739" xlink:href="#linear-gradient"/>
    <linearGradient id="linear-gradient18" x1="191.556" x2="677.954" xlink:href="#linear-gradient"/>
    <linearGradient id="linear-gradient19" x1="431.861" y1="2996.906" x2="795.095" y2="2996.906" xlink:href="#linear-gradient"/>
    <linearGradient id="linear-gradient20" x1="309.912" y1="3104.364" x2="553.809" y2="3104.364" xlink:href="#linear-gradient"/>
    <linearGradient id="linear-gradient21" x1="917.347" y1="2267.618" x2="1132.654" y2="2267.618" xlink:href="#linear-gradient"/>
    <linearGradient id="linear-gradient22" x1="-49.228" y1="2163.802" x2="314.293" y2="2163.802" xlink:href="#linear-gradient"/>
    <linearGradient id="linear-gradient23" x1="-171.177" y1="2270.976" x2="72.72" y2="2270.976" xlink:href="#linear-gradient"/>
    <linearGradient id="linear-gradient24" x1="-48.649" y1="1744.612" x2="314.553" y2="1744.612" xlink:href="#linear-gradient"/>
    <linearGradient id="linear-gradient25" x1="194.347" y1="1952.817" x2="554.968" y2="1952.817" xlink:href="#linear-gradient"/>
    <linearGradient id="linear-gradient26" x1="314.553" y1="2577.431" x2="795.381" y2="2577.431" xlink:href="#linear-gradient"/>
    <linearGradient id="linear-gradient27" x1="-289.063" y1="2993.841" x2="71.559" y2="2993.841" xlink:href="#linear-gradient"/>
    <linearGradient id="linear-gradient28" x1="-529.477" y1="1744.612" x2="-168.856" y2="1744.612" xlink:href="#linear-gradient"/>
    <linearGradient id="linear-gradient29" x1="-409.27" y1="1848.715" x2="-168.856" y2="1848.715" xlink:href="#linear-gradient"/>
    <linearGradient id="linear-gradient30" x1="314.553" y1="1536.407" x2="675.175" y2="1536.407" xlink:href="#linear-gradient"/>
    <linearGradient id="linear-gradient31" x1="918.602" y1="2889.549" x2="1152.626" y2="2889.549" xlink:href="#linear-gradient"/>
    <linearGradient id="linear-gradient32" x1="72.72" y1="3211.528" x2="429.645" y2="3211.528" xlink:href="#linear-gradient"/>
    <linearGradient id="linear-gradient33" x1="770.96" y1="803.14" x2="1257.358" y2="803.14" xlink:href="#linear-gradient"/>
    <linearGradient id="linear-gradient34" x1="773.746" y1="906.64" x2="1136.455" y2="906.64" xlink:href="#linear-gradient"/>
    <linearGradient id="linear-gradient35" x1="1012.069" y1="699.036" x2="1136.455" y2="699.036" gradientTransform="translate(1142.511 -580.821) rotate(60)" xlink:href="#linear-gradient"/>
    <linearGradient id="linear-gradient36" x1="1494.778" y1="1219.55" x2="1981.176" y2="1219.55" xlink:href="#linear-gradient"/>
    <linearGradient id="linear-gradient37" x1="1497.564" y1="1323.652" x2="2319.987" y2="1323.652" xlink:href="#linear-gradient"/>
    <linearGradient id="linear-gradient38" x1="1254.365" y1="1635.959" x2="1740.772" y2="1635.959" xlink:href="#linear-gradient"/>
    <linearGradient id="linear-gradient39" x1="1257.151" y1="1739.458" x2="1619.86" y2="1739.458" xlink:href="#linear-gradient"/>
    <linearGradient id="linear-gradient40" x1="1495.475" y1="1531.855" x2="1619.86" y2="1531.855" gradientTransform="translate(2105.462 -583.051) rotate(60)" xlink:href="#linear-gradient"/>
    <linearGradient id="linear-gradient41" x1="1975.613" y1="2052.368" x2="2462.006" y2="2052.368" xlink:href="#linear-gradient"/>
    <linearGradient id="linear-gradient42" x1="1978.395" y1="2155.867" x2="2341.104" y2="2155.867" xlink:href="#linear-gradient"/>
    <linearGradient id="linear-gradient43" x1="2216.727" y1="1948.267" x2="2341.104" y2="1948.267" gradientTransform="translate(2826.709 -999.465) rotate(60)" xlink:href="#linear-gradient"/>
    <linearGradient id="linear-gradient44" x1="770.96" y1="1219.55" x2="1257.358" y2="1219.55" xlink:href="#linear-gradient"/>
    <linearGradient id="linear-gradient45" x1="1012.069" y1="1323.651" x2="1136.455" y2="1323.651" gradientTransform="translate(804.785 -359.642) rotate(29.967)" xlink:href="#linear-gradient"/>
    <linearGradient id="linear-gradient46" x1="1012.069" y1="1115.448" x2="1136.455" y2="1115.448" gradientTransform="translate(1503.133 -372.616) rotate(60)" xlink:href="#linear-gradient"/>
    <linearGradient id="linear-gradient47" x1="1131.58" y1="1011.344" x2="1617.977" y2="1011.344" xlink:href="#linear-gradient"/>
    <linearGradient id="linear-gradient48" x1="770.96" y1="1635.959" x2="1257.358" y2="1635.959" xlink:href="#linear-gradient"/>
    <linearGradient id="linear-gradient49" x1="1614.984" y1="1844.162" x2="2101.387" y2="1844.162" xlink:href="#linear-gradient"/>
    <linearGradient id="linear-gradient50" x1="1011.373" y1="2052.368" x2="1497.771" y2="2052.368" xlink:href="#linear-gradient"/>
    <linearGradient id="linear-gradient51" x1="1494.778" y1="803.14" x2="1981.176" y2="803.14" xlink:href="#linear-gradient"/>
    <linearGradient id="linear-gradient52" x1="1735.082" y1="2159.535" x2="2098.317" y2="2159.535" xlink:href="#linear-gradient"/>
    <linearGradient id="linear-gradient53" x1="1613.134" y1="2266.993" x2="1857.03" y2="2266.993" xlink:href="#linear-gradient"/>
    <linearGradient id="linear-gradient54" x1="2220.569" y1="1430.247" x2="2435.875" y2="1430.247" xlink:href="#linear-gradient"/>
    <linearGradient id="linear-gradient55" x1="1253.993" y1="1326.432" x2="1617.515" y2="1326.432" xlink:href="#linear-gradient"/>
    <linearGradient id="linear-gradient56" x1="1132.045" y1="1433.605" x2="1375.942" y2="1433.605" xlink:href="#linear-gradient"/>
    <linearGradient id="linear-gradient57" x1="1254.573" y1="907.242" x2="1617.775" y2="907.242" xlink:href="#linear-gradient"/>
    <linearGradient id="linear-gradient58" x1="1497.568" y1="1115.446" x2="1858.189" y2="1115.446" xlink:href="#linear-gradient"/>
    <linearGradient id="linear-gradient59" x1="1617.775" y1="1740.061" x2="2098.603" y2="1740.061" xlink:href="#linear-gradient"/>
    <linearGradient id="linear-gradient60" x1="1014.159" y1="2156.47" x2="1374.78" y2="2156.47" xlink:href="#linear-gradient"/>
    <linearGradient id="linear-gradient61" x1="773.745" y1="907.242" x2="1134.366" y2="907.242" xlink:href="#linear-gradient"/>
    <linearGradient id="linear-gradient62" x1="893.952" y1="1011.344" x2="1134.366" y2="1011.344" xlink:href="#linear-gradient"/>
    <linearGradient id="linear-gradient63" x1="1617.775" y1="699.037" x2="1978.397" y2="699.037" xlink:href="#linear-gradient"/>
    <linearGradient id="linear-gradient64" x1="2221.824" y1="2052.178" x2="2455.848" y2="2052.178" xlink:href="#linear-gradient"/>
    <linearGradient id="linear-gradient65" x1="1375.942" y1="2374.158" x2="1732.866" y2="2374.158" xlink:href="#linear-gradient"/>
    <linearGradient id="linear-gradient66" x1="3880.578" y1="172.785" x2="4366.977" y2="172.785" xlink:href="#linear-gradient"/>
    <linearGradient id="linear-gradient67" x1="4001.482" y1="69.286" x2="4364.191" y2="69.286" xlink:href="#linear-gradient"/>
    <linearGradient id="linear-gradient68" x1="4001.482" y1="276.889" x2="4125.867" y2="276.889" gradientTransform="translate(2271.635 -3380.803) rotate(60)" xlink:href="#linear-gradient"/>
    <linearGradient id="linear-gradient69" x1="3156.761" y1="-243.624" x2="3643.159" y2="-243.624" xlink:href="#linear-gradient"/>
    <linearGradient id="linear-gradient70" x1="2817.95" y1="-347.726" x2="3640.373" y2="-347.726" xlink:href="#linear-gradient"/>
    <linearGradient id="linear-gradient71" x1="3397.164" y1="-660.033" x2="3883.571" y2="-660.033" xlink:href="#linear-gradient"/>
    <linearGradient id="linear-gradient72" x1="3518.077" y1="-763.532" x2="3880.786" y2="-763.532" xlink:href="#linear-gradient"/>
    <linearGradient id="linear-gradient73" x1="3518.077" y1="-555.929" x2="3642.462" y2="-555.929" gradientTransform="translate(1308.682 -3378.566) rotate(60)" xlink:href="#linear-gradient"/>
    <linearGradient id="linear-gradient74" x1="2675.931" y1="-1076.443" x2="3162.323" y2="-1076.443" xlink:href="#linear-gradient"/>
    <linearGradient id="linear-gradient75" x1="2796.833" y1="-1179.942" x2="3159.542" y2="-1179.942" xlink:href="#linear-gradient"/>
    <linearGradient id="linear-gradient76" x1="2796.833" y1="-972.341" x2="2921.21" y2="-972.341" gradientTransform="translate(587.437 -2962.153) rotate(60)" xlink:href="#linear-gradient"/>
    <linearGradient id="linear-gradient77" x1="3880.578" y1="-243.624" x2="4366.977" y2="-243.624" xlink:href="#linear-gradient"/>
    <linearGradient id="linear-gradient78" x1="4001.482" y1="-347.726" x2="4125.867" y2="-347.726" gradientTransform="translate(369.576 -2076.308) rotate(29.967)" xlink:href="#linear-gradient"/>
    <linearGradient id="linear-gradient79" x1="4001.482" y1="-139.522" x2="4125.867" y2="-139.522" gradientTransform="translate(1911.011 -3589.009) rotate(60)" xlink:href="#linear-gradient"/>
    <linearGradient id="linear-gradient80" x1="3519.959" y1="-35.418" x2="4006.357" y2="-35.418" xlink:href="#linear-gradient"/>
    <linearGradient id="linear-gradient81" x1="3880.578" y1="-660.033" x2="4366.977" y2="-660.033" xlink:href="#linear-gradient"/>
    <linearGradient id="linear-gradient82" x1="3036.55" y1="-868.237" x2="3522.952" y2="-868.237" xlink:href="#linear-gradient"/>
    <linearGradient id="linear-gradient83" x1="3640.166" y1="-1076.443" x2="4126.564" y2="-1076.443" xlink:href="#linear-gradient"/>
    <linearGradient id="linear-gradient84" x1="3156.761" y1="172.785" x2="3643.159" y2="172.785" xlink:href="#linear-gradient"/>
    <linearGradient id="linear-gradient85" x1="3039.62" y1="-1183.61" x2="3402.854" y2="-1183.61" xlink:href="#linear-gradient"/>
    <linearGradient id="linear-gradient86" x1="3280.906" y1="-1291.068" x2="3524.803" y2="-1291.068" xlink:href="#linear-gradient"/>
    <linearGradient id="linear-gradient87" x1="2702.061" y1="-454.322" x2="2917.368" y2="-454.322" xlink:href="#linear-gradient"/>
    <linearGradient id="linear-gradient88" x1="3520.422" y1="-350.506" x2="3883.943" y2="-350.506" xlink:href="#linear-gradient"/>
    <linearGradient id="linear-gradient89" x1="3761.995" y1="-457.68" x2="4005.892" y2="-457.68" xlink:href="#linear-gradient"/>
    <linearGradient id="linear-gradient90" x1="3520.162" y1="68.684" x2="3883.364" y2="68.684" xlink:href="#linear-gradient"/>
    <linearGradient id="linear-gradient91" x1="3279.747" y1="-139.521" x2="3640.368" y2="-139.521" xlink:href="#linear-gradient"/>
    <linearGradient id="linear-gradient92" x1="3039.334" y1="-764.135" x2="3520.162" y2="-764.135" xlink:href="#linear-gradient"/>
    <linearGradient id="linear-gradient93" x1="3763.156" y1="-1180.545" x2="4123.778" y2="-1180.545" xlink:href="#linear-gradient"/>
    <linearGradient id="linear-gradient94" x1="4003.571" y1="68.684" x2="4364.192" y2="68.684" xlink:href="#linear-gradient"/>
    <linearGradient id="linear-gradient95" x1="4003.571" y1="-35.418" x2="4243.985" y2="-35.418" xlink:href="#linear-gradient"/>
    <linearGradient id="linear-gradient96" x1="3159.54" y1="276.889" x2="3520.162" y2="276.889" xlink:href="#linear-gradient"/>
    <linearGradient id="linear-gradient97" x1="2682.089" y1="-1076.253" x2="2916.113" y2="-1076.253" xlink:href="#linear-gradient"/>
    <linearGradient id="linear-gradient98" x1="3405.07" y1="-1398.232" x2="3761.995" y2="-1398.232" xlink:href="#linear-gradient"/>
    <linearGradient id="linear-gradient99" x1="3040.619" y1="1220.23" x2="3527.016" y2="1220.23" xlink:href="#linear-gradient"/>
    <linearGradient id="linear-gradient100" x1="3161.521" y1="1116.731" x2="3524.23" y2="1116.731" xlink:href="#linear-gradient"/>
    <linearGradient id="linear-gradient101" x1="3161.521" y1="1324.334" x2="3285.907" y2="1324.334" gradientTransform="translate(2758.768 -2129.652) rotate(60)" xlink:href="#linear-gradient"/>
    <linearGradient id="linear-gradient102" x1="2316.8" y1="803.82" x2="2803.199" y2="803.82" xlink:href="#linear-gradient"/>
    <linearGradient id="linear-gradient103" x1="1977.99" y1="699.719" x2="2800.412" y2="699.719" xlink:href="#linear-gradient"/>
    <linearGradient id="linear-gradient104" x1="2557.204" y1="387.411" x2="3043.612" y2="387.411" xlink:href="#linear-gradient"/>
    <linearGradient id="linear-gradient105" x1="2678.116" y1="283.912" x2="3040.825" y2="283.912" xlink:href="#linear-gradient"/>
    <linearGradient id="linear-gradient106" x1="2678.116" y1="491.515" x2="2802.502" y2="491.515" gradientTransform="translate(1795.812 -2127.417) rotate(60)" xlink:href="#linear-gradient"/>
    <linearGradient id="linear-gradient107" x1="1835.97" y1="-28.998" x2="2322.363" y2="-28.998" xlink:href="#linear-gradient"/>
    <linearGradient id="linear-gradient108" x1="1956.873" y1="-132.498" x2="2319.582" y2="-132.498" xlink:href="#linear-gradient"/>
    <linearGradient id="linear-gradient109" x1="1956.873" y1="75.104" x2="2081.249" y2="75.104" gradientTransform="translate(1074.567 -1711.004) rotate(60)" xlink:href="#linear-gradient"/>
    <linearGradient id="linear-gradient110" x1="3040.619" y1="803.82" x2="3527.016" y2="803.82" xlink:href="#linear-gradient"/>
    <linearGradient id="linear-gradient111" x1="3161.521" y1="699.719" x2="3285.907" y2="699.719" gradientTransform="translate(780.485 -1516.714) rotate(29.967)" xlink:href="#linear-gradient"/>
    <linearGradient id="linear-gradient112" x1="3161.521" y1="907.922" x2="3285.907" y2="907.922" gradientTransform="translate(2398.145 -2337.858) rotate(60)" xlink:href="#linear-gradient"/>
    <linearGradient id="linear-gradient113" x1="2679.999" y1="1012.026" x2="3166.397" y2="1012.026" xlink:href="#linear-gradient"/>
    <linearGradient id="linear-gradient114" x1="3040.619" y1="387.411" x2="3527.016" y2="387.411" xlink:href="#linear-gradient"/>
    <linearGradient id="linear-gradient115" x1="2196.589" y1="179.208" x2="2682.992" y2="179.208" xlink:href="#linear-gradient"/>
    <linearGradient id="linear-gradient116" x1="2800.206" y1="-28.998" x2="3286.603" y2="-28.998" xlink:href="#linear-gradient"/>
    <linearGradient id="linear-gradient117" x1="2316.8" y1="1220.23" x2="2803.199" y2="1220.23" xlink:href="#linear-gradient"/>
    <linearGradient id="linear-gradient118" x1="2199.66" y1="-136.165" x2="2562.894" y2="-136.165" xlink:href="#linear-gradient"/>
    <linearGradient id="linear-gradient119" x1="2440.946" y1="-243.623" x2="2684.843" y2="-243.623" xlink:href="#linear-gradient"/>
    <linearGradient id="linear-gradient120" x1="1862.101" y1="593.122" x2="2077.408" y2="593.122" xlink:href="#linear-gradient"/>
    <linearGradient id="linear-gradient121" x1="2680.462" y1="696.938" x2="3043.983" y2="696.938" xlink:href="#linear-gradient"/>
    <linearGradient id="linear-gradient122" x1="2922.034" y1="589.765" x2="3165.931" y2="589.765" xlink:href="#linear-gradient"/>
    <linearGradient id="linear-gradient123" x1="2680.201" y1="1116.129" x2="3043.404" y2="1116.129" xlink:href="#linear-gradient"/>
    <linearGradient id="linear-gradient124" x1="2439.787" y1="907.924" x2="2800.408" y2="907.924" xlink:href="#linear-gradient"/>
    <linearGradient id="linear-gradient125" x1="2199.373" y1="283.309" x2="2680.201" y2="283.309" xlink:href="#linear-gradient"/>
    <linearGradient id="linear-gradient126" x1="2923.196" y1="-133.1" x2="3283.817" y2="-133.1" xlink:href="#linear-gradient"/>
    <linearGradient id="linear-gradient127" x1="3163.611" y1="1116.129" x2="3524.232" y2="1116.129" xlink:href="#linear-gradient"/>
    <linearGradient id="linear-gradient128" x1="3163.611" y1="1012.026" x2="3404.025" y2="1012.026" xlink:href="#linear-gradient"/>
    <linearGradient id="linear-gradient129" x1="2319.58" y1="1324.333" x2="2680.201" y2="1324.333" xlink:href="#linear-gradient"/>
    <linearGradient id="linear-gradient130" x1="1842.128" y1="-28.808" x2="2076.152" y2="-28.808" xlink:href="#linear-gradient"/>
    <linearGradient id="linear-gradient131" x1="2565.11" y1="-350.788" x2="2922.034" y2="-350.788" xlink:href="#linear-gradient"/>
  </defs>
  <rect x="-1.786" y="-283.34" width="3866.374" height="3088.917" fill="#111217"/>
  <g clip-path="url(#clippath)">
    <g>
      <g>
        <g>
          <path d="M-532.262,1640.508l121.599-210.613h243.199l121.6,210.613-121.6,210.618h-243.199l-121.599-210.618ZM-407.876,1434.715l-118.813,205.793,118.813,205.799h237.627l118.813-205.799-118.813-205.793h-237.627Z" fill="url(#linear-gradient)"/>
          <polygon points="-529.476 1642.918 -529.476 1638.099 -287.67 1638.099 -166.767 1847.512 -170.946 1849.921 -290.456 1642.918 -529.476 1642.918" fill="url(#linear-gradient1)"/>
          <rect x="-349.166" y="1533.995" width="240.413" height="4.824" transform="translate(-1445.048 569.92) rotate(-60)" fill="url(#linear-gradient2)"/>
        </g>
        <g>
          <path d="M191.556,2056.92l121.599-210.613h243.204l.692,1.204,120.903,209.408-121.595,210.613h-243.204l-121.599-210.613ZM315.942,1851.126l-118.814,205.793,118.814,205.794h237.631l118.818-205.794-118.818-205.793h-237.631Z" fill="url(#linear-gradient3)"/>
          <polygon points="194.342 2059.329 194.342 2054.51 436.158 2054.51 556.359 2262.714 914.056 2262.714 1009.188 2059.329 675.173 2059.329 675.173 2054.51 1016.765 2054.51 917.124 2267.533 553.573 2267.533 552.881 2266.328 433.371 2059.329 194.342 2059.329" fill="url(#linear-gradient4)"/>
        </g>
        <g>
          <path d="M-48.857,2473.327l121.6-210.613h243.199l121.609,210.613-121.609,210.617H72.743l-121.6-210.617ZM75.529,2267.533l-118.813,205.794,118.813,205.798h237.627l118.823-205.798-118.823-205.794H75.529Z" fill="url(#linear-gradient5)"/>
          <polygon points="-46.071 2475.737 -46.071 2470.918 195.735 2470.918 316.638 2680.33 312.459 2682.74 192.949 2475.737 -46.071 2475.737" fill="url(#linear-gradient6)"/>
          <rect x="134.239" y="2366.813" width="240.413" height="4.824" transform="translate(-1924.585 1404.966) rotate(-60)" fill="url(#linear-gradient7)"/>
        </g>
        <g>
          <path d="M672.392,2889.739l121.599-210.613h243.199l.692,1.204,120.903,209.409-121.595,210.613h-243.199l-.692-1.204-120.908-209.408ZM796.777,2683.945l-118.823,205.794,118.823,205.793h237.627l118.818-205.793-118.818-205.794h-237.627Z" fill="url(#linear-gradient8)"/>
          <polygon points="675.173 2892.149 675.173 2887.329 916.984 2887.329 917.675 2888.534 1037.882 3096.738 1033.712 3099.147 914.197 2892.149 675.173 2892.149" fill="url(#linear-gradient9)"/>
          <rect x="855.487" y="2783.229" width="240.413" height="4.816" transform="translate(-1924.585 2237.79) rotate(-60)" fill="url(#linear-gradient10)"/>
        </g>
        <g>
          <path d="M-532.262,2056.92l121.599-210.613h243.199l121.6,210.613-121.6,210.613h-243.199l-121.599-210.613ZM-407.876,1851.126l-118.813,205.793,118.813,205.794h237.627l118.813-205.794-118.813-205.793h-237.627Z" fill="url(#linear-gradient11)"/>
          <rect x="-231.371" y="2040.816" width="4.824" height="240.412" transform="translate(-1110.048 174.537) rotate(-29.967)" fill="url(#linear-gradient12)"/>
          <rect x="-349.166" y="1950.406" width="240.413" height="4.824" transform="translate(-1805.671 778.126) rotate(-60)" fill="url(#linear-gradient13)"/>
        </g>
        <path d="M-171.642,1848.717l121.6-210.618h243.199l121.599,210.618-121.599,210.613H-50.043l-121.6-210.613ZM-47.257,1642.918l-118.813,205.799,118.813,205.793h237.627l118.814-205.793-118.814-205.799H-47.257Z" fill="url(#linear-gradient14)"/>
        <path d="M-532.262,2473.327l121.599-210.613h243.199l121.6,210.613-121.6,210.617h-243.199l-121.599-210.617ZM-407.876,2267.533l-118.813,205.794,118.813,205.798h237.627l118.813-205.798-118.813-205.794h-237.627Z" fill="url(#linear-gradient15)"/>
        <path d="M311.763,2681.535l121.608-210.617h243.195l.692,1.204,120.908,209.413-121.599,210.613h-243.195l-121.608-210.613ZM436.158,2475.737l-118.823,205.798,118.823,205.794h237.622l118.823-205.794-118.823-205.798h-237.622Z" fill="url(#linear-gradient16)"/>
        <path d="M-291.849,2889.739l121.599-210.613H72.95l121.599,210.613-121.599,210.613h-243.199l-121.599-210.613ZM-167.463,2683.945l-118.813,205.794,118.813,205.793H70.164l118.813-205.793-118.813-205.794h-237.627Z" fill="url(#linear-gradient17)"/>
        <path d="M191.556,1640.508l121.599-210.613h243.204l.692,1.204,120.903,209.408-121.595,210.618h-243.204l-121.599-210.618ZM315.942,1434.715l-118.814,205.793,118.814,205.799h237.631l118.818-205.799-118.818-205.793h-237.631Z" fill="url(#linear-gradient18)"/>
        <polygon points="675.175 2889.738 431.861 2890.307 553.809 3104.073 795.095 3100.606 675.175 2889.738" fill="url(#linear-gradient19)"/>
        <polygon points="553.809 3104.073 429.645 3318.42 309.912 3104.636 431.861 2890.307 553.809 3104.073" fill="url(#linear-gradient20)"/>
        <polygon points="1132.654 2267.473 1038.399 2481.529 917.347 2267.618 1017.797 2053.706 1132.654 2267.473" fill="url(#linear-gradient21)"/>
        <polygon points="189.727 2056.919 -49.228 2056.919 72.72 2270.686 314.293 2268.004 189.727 2056.919" fill="url(#linear-gradient22)"/>
        <polygon points="72.72 2270.686 -51.444 2485.033 -171.177 2271.249 -49.228 2056.919 72.72 2270.686" fill="url(#linear-gradient23)"/>
        <polygon points="314.553 1848.715 71.559 1848.715 -48.649 1640.51 194.347 1640.51 314.553 1848.715" fill="url(#linear-gradient24)"/>
        <polygon points="554.968 1848.715 434.76 2056.919 194.347 2056.919 314.553 1848.715 554.968 1848.715" fill="url(#linear-gradient25)"/>
        <polygon points="795.381 2681.533 675.175 2473.329 434.76 2473.329 314.553 2681.533 795.381 2681.533" fill="url(#linear-gradient26)"/>
        <polygon points="71.559 3097.943 -49.228 2889.738 -289.063 2889.738 -168.856 3097.943 71.559 3097.943" fill="url(#linear-gradient27)"/>
        <polygon points="-168.856 1848.715 -289.642 1640.51 -529.477 1640.51 -409.27 1848.715 -168.856 1848.715" fill="url(#linear-gradient28)"/>
        <line x1="-168.856" y1="1848.715" x2="-409.27" y2="1848.715" fill="url(#linear-gradient29)"/>
        <polygon points="675.175 1640.51 431.861 1640.51 314.553 1432.305 554.968 1432.305 675.175 1640.51" fill="url(#linear-gradient30)"/>
        <polygon points="1152.626 2889.738 1035.796 2685.738 918.602 2889.738 1035.796 3093.36 1152.626 2889.738" fill="url(#linear-gradient31)"/>
        <polygon points="309.912 3104.636 72.72 3104.636 191.316 3318.42 429.645 3318.42 309.912 3104.636" fill="url(#linear-gradient32)"/>
      </g>
      <g>
        <g>
          <path d="M770.96,803.138l121.599-210.613h243.199l121.599,210.613-121.599,210.617h-243.199l-121.599-210.617ZM895.346,597.344l-118.814,205.794,118.814,205.798h237.627l118.813-205.798-118.813-205.794h-237.627Z" fill="url(#linear-gradient33)"/>
          <polygon points="773.746 805.548 773.746 800.728 1015.553 800.728 1136.455 1010.141 1132.276 1012.551 1012.766 805.548 773.746 805.548" fill="url(#linear-gradient34)"/>
          <rect x="954.056" y="696.624" width="240.413" height="4.824" transform="translate(-68.253 1279.853) rotate(-60)" fill="url(#linear-gradient35)"/>
        </g>
        <g>
          <path d="M1494.778,1219.55l121.599-210.613h243.204l.692,1.205,120.903,209.408-121.595,210.613h-243.204l-121.599-210.613ZM1619.164,1013.755l-118.814,205.794,118.814,205.793h237.631l118.818-205.793-118.818-205.794h-237.631Z" fill="url(#linear-gradient36)"/>
          <polygon points="1497.564 1221.959 1497.564 1217.14 1739.38 1217.14 1859.581 1425.343 2217.278 1425.343 2312.41 1221.959 1978.395 1221.959 1978.395 1217.14 2319.987 1217.14 2220.346 1430.163 1856.795 1430.163 1856.103 1428.958 1736.593 1221.959 1497.564 1221.959" fill="url(#linear-gradient37)"/>
        </g>
        <g>
          <path d="M1254.365,1635.956l121.599-210.613h243.2l121.608,210.613-121.608,210.618h-243.2l-121.599-210.618ZM1378.751,1430.163l-118.814,205.793,118.814,205.799h237.626l118.823-205.799-118.823-205.793h-237.626Z" fill="url(#linear-gradient38)"/>
          <polygon points="1257.151 1638.366 1257.151 1633.547 1498.957 1633.547 1619.86 1842.96 1615.681 1845.369 1496.171 1638.366 1257.151 1638.366" fill="url(#linear-gradient39)"/>
          <rect x="1437.461" y="1529.443" width="240.413" height="4.824" transform="translate(-547.791 2114.91) rotate(-60)" fill="url(#linear-gradient40)"/>
        </g>
        <g>
          <path d="M1975.613,2052.368l121.599-210.613h243.2l.692,1.204,120.903,209.408-121.595,210.613h-243.2l-.692-1.205-120.908-209.408ZM2099.999,1846.575l-118.823,205.793,118.823,205.794h237.626l118.818-205.794-118.818-205.793h-237.626Z" fill="url(#linear-gradient41)"/>
          <polygon points="1978.395 2054.778 1978.395 2049.958 2220.205 2049.958 2220.897 2051.164 2341.104 2259.367 2336.934 2261.776 2217.419 2054.778 1978.395 2054.778" fill="url(#linear-gradient42)"/>
          <rect x="2158.709" y="1945.859" width="240.413" height="4.816" transform="translate(-547.789 2947.735) rotate(-60)" fill="url(#linear-gradient43)"/>
        </g>
        <g>
          <path d="M770.96,1219.55l121.599-210.613h243.199l121.599,210.613-121.599,210.613h-243.199l-121.599-210.613ZM895.346,1013.755l-118.814,205.794,118.814,205.793h237.627l118.813-205.793-118.813-205.794h-237.627Z" fill="url(#linear-gradient44)"/>
          <rect x="1071.85" y="1203.445" width="4.824" height="240.413" transform="translate(-517.553 713.555) rotate(-29.967)" fill="url(#linear-gradient45)"/>
          <rect x="954.056" y="1113.036" width="240.413" height="4.824" transform="translate(-428.876 1488.058) rotate(-60)" fill="url(#linear-gradient46)"/>
        </g>
        <path d="M1131.58,1011.346l121.599-210.617h243.199l121.599,210.617-121.599,210.613h-243.199l-121.599-210.613ZM1255.965,805.548l-118.813,205.798,118.813,205.794h237.627l118.813-205.794-118.813-205.798h-237.627Z" fill="url(#linear-gradient47)"/>
        <path d="M770.96,1635.956l121.599-210.613h243.199l121.599,210.613-121.599,210.618h-243.199l-121.599-210.618ZM895.346,1430.163l-118.814,205.793,118.814,205.799h237.627l118.813-205.799-118.813-205.793h-237.627Z" fill="url(#linear-gradient48)"/>
        <path d="M1614.984,1844.165l121.609-210.618h243.195l.692,1.205,120.908,209.413-121.599,210.613h-243.195l-121.609-210.613ZM1739.38,1638.366l-118.823,205.799,118.823,205.793h237.622l118.823-205.793-118.823-205.799h-237.622Z" fill="url(#linear-gradient49)"/>
        <path d="M1011.373,2052.368l121.6-210.613h243.199l121.599,210.613-121.599,210.613h-243.199l-121.6-210.613ZM1135.759,1846.575l-118.814,205.793,118.814,205.794h237.627l118.814-205.794-118.814-205.793h-237.627Z" fill="url(#linear-gradient50)"/>
        <path d="M1494.778,803.138l121.599-210.613h243.204l.692,1.205,120.903,209.408-121.595,210.617h-243.204l-121.599-210.617ZM1619.164,597.344l-118.814,205.794,118.814,205.798h237.631l118.818-205.798-118.818-205.794h-237.631Z" fill="url(#linear-gradient51)"/>
        <polygon points="1978.397 2052.367 1735.082 2052.937 1857.03 2266.703 2098.317 2263.236 1978.397 2052.367" fill="url(#linear-gradient52)"/>
        <polygon points="1857.03 2266.703 1732.866 2481.05 1613.134 2267.266 1735.082 2052.937 1857.03 2266.703" fill="url(#linear-gradient53)"/>
        <polygon points="2435.875 1430.102 2341.621 1644.159 2220.569 1430.247 2321.019 1216.336 2435.875 1430.102" fill="url(#linear-gradient54)"/>
        <polygon points="1492.949 1219.549 1253.993 1219.549 1375.942 1433.315 1617.515 1430.634 1492.949 1219.549" fill="url(#linear-gradient55)"/>
        <polygon points="1375.942 1433.315 1251.778 1647.662 1132.045 1433.878 1253.993 1219.549 1375.942 1433.315" fill="url(#linear-gradient56)"/>
        <polygon points="1617.775 1011.344 1374.78 1011.344 1254.573 803.139 1497.568 803.139 1617.775 1011.344" fill="url(#linear-gradient57)"/>
        <polygon points="1858.189 1011.344 1737.982 1219.549 1497.568 1219.549 1617.775 1011.344 1858.189 1011.344" fill="url(#linear-gradient58)"/>
        <polygon points="2098.603 1844.163 1978.397 1635.959 1737.982 1635.959 1617.775 1844.163 2098.603 1844.163" fill="url(#linear-gradient59)"/>
        <polygon points="1374.78 2260.573 1253.993 2052.367 1014.159 2052.367 1134.366 2260.573 1374.78 2260.573" fill="url(#linear-gradient60)"/>
        <polygon points="1134.366 1011.344 1013.58 803.139 773.745 803.139 893.952 1011.344 1134.366 1011.344" fill="url(#linear-gradient61)"/>
        <line x1="1134.366" y1="1011.344" x2="893.952" y2="1011.344" fill="url(#linear-gradient62)"/>
        <polygon points="1978.397 803.139 1735.082 803.139 1617.775 594.934 1858.189 594.934 1978.397 803.139" fill="url(#linear-gradient63)"/>
        <polygon points="2455.848 2052.367 2339.018 1848.367 2221.824 2052.367 2339.018 2255.989 2455.848 2052.367" fill="url(#linear-gradient64)"/>
        <polygon points="1613.134 2267.266 1375.942 2267.266 1494.538 2481.05 1732.866 2481.05 1613.134 2267.266" fill="url(#linear-gradient65)"/>
      </g>
      <g>
        <g>
          <path d="M4366.977,172.788l-121.599,210.613h-243.199l-121.6-210.613,121.6-210.618h243.199l121.599,210.618ZM4242.591,378.582l118.814-205.794-118.814-205.798h-237.627l-118.814,205.798,118.814,205.794h237.627Z" fill="url(#linear-gradient66)"/>
          <polygon points="4364.191 170.378 4364.191 175.197 4122.384 175.197 4001.482 -34.216 4005.661 -36.625 4125.17 170.378 4364.191 170.378" fill="url(#linear-gradient67)"/>
          <rect x="3943.468" y="274.477" width="240.413" height="4.824" transform="translate(1792.048 3657.692) rotate(-60)" fill="url(#linear-gradient68)"/>
        </g>
        <g>
          <path d="M3643.159-243.624l-121.6,210.613h-243.204l-.692-1.205-120.903-209.408,121.595-210.613h243.204l121.6,210.613ZM3518.773-37.83l118.814-205.793-118.814-205.794h-237.631l-118.818,205.794,118.818,205.793h237.631Z" fill="url(#linear-gradient69)"/>
          <polygon points="3640.373 -246.033 3640.373 -241.214 3398.557 -241.214 3278.355 -449.418 2920.659 -449.418 2825.527 -246.033 3159.542 -246.033 3159.542 -241.214 2817.95 -241.214 2917.59 -454.237 3281.142 -454.237 3281.834 -453.032 3401.343 -246.033 3640.373 -246.033" fill="url(#linear-gradient70)"/>
        </g>
        <g>
          <path d="M3883.571-660.031l-121.599,210.613h-243.199l-121.609-210.613,121.609-210.618h243.199l121.599,210.618ZM3759.186-454.237l118.814-205.793-118.814-205.799h-237.627l-118.822,205.799,118.822,205.793h237.627Z" fill="url(#linear-gradient71)"/>
          <polygon points="3880.786 -662.44 3880.786 -657.621 3638.979 -657.621 3518.077 -867.034 3522.256 -869.444 3641.766 -662.44 3880.786 -662.44" fill="url(#linear-gradient72)"/>
          <rect x="3460.063" y="-558.341" width="240.413" height="4.824" transform="translate(2271.579 2822.638) rotate(-60)" fill="url(#linear-gradient73)"/>
        </g>
        <g>
          <path d="M3162.323-1076.442l-121.599,210.613h-243.199l-.692-1.204-120.903-209.408,121.595-210.613h243.199l.692,1.204,120.908,209.409ZM3037.938-870.649l118.823-205.793-118.823-205.794h-237.627l-118.818,205.794,118.818,205.793h237.627Z" fill="url(#linear-gradient74)"/>
          <polygon points="3159.542 -1078.852 3159.542 -1074.033 2917.731 -1074.033 2917.04 -1075.238 2796.833 -1283.442 2801.003 -1285.851 2920.518 -1078.852 3159.542 -1078.852" fill="url(#linear-gradient75)"/>
          <rect x="2738.815" y="-974.749" width="240.413" height="4.816" transform="translate(2271.579 1989.814) rotate(-60)" fill="url(#linear-gradient76)"/>
        </g>
        <g>
          <path d="M4366.977-243.624l-121.599,210.613h-243.199l-121.6-210.613,121.6-210.613h243.199l121.599,210.613ZM4242.591-37.83l118.814-205.793-118.814-205.794h-237.627l-118.814,205.794,118.814,205.793h237.627Z" fill="url(#linear-gradient77)"/>
          <rect x="4061.262" y="-467.932" width="4.824" height="240.412" transform="translate(716.957 1983.335) rotate(-29.967)" fill="url(#linear-gradient78)"/>
          <rect x="3943.468" y="-141.934" width="240.413" height="4.824" transform="translate(2152.671 3449.486) rotate(-60)" fill="url(#linear-gradient79)"/>
        </g>
        <path d="M4006.357-35.42l-121.599,210.617h-243.199l-121.6-210.617,121.6-210.613h243.199l121.599,210.613ZM3881.971,170.378l118.814-205.798-118.814-205.794h-237.627l-118.814,205.794,118.814,205.798h237.627Z" fill="url(#linear-gradient80)"/>
        <path d="M4366.977-660.031l-121.599,210.613h-243.199l-121.6-210.613,121.6-210.618h243.199l121.599,210.618ZM4242.591-454.237l118.814-205.793-118.814-205.799h-237.627l-118.814,205.799,118.814,205.793h237.627Z" fill="url(#linear-gradient81)"/>
        <path d="M3522.952-868.239l-121.609,210.618h-243.194l-.692-1.205-120.908-209.413,121.599-210.613h243.194l121.609,210.613ZM3398.557-662.44l118.823-205.799-118.823-205.793h-237.622l-118.822,205.793,118.822,205.799h237.622Z" fill="url(#linear-gradient82)"/>
        <path d="M4126.564-1076.442l-121.599,210.613h-243.199l-121.599-210.613,121.599-210.613h243.199l121.599,210.613ZM4002.178-870.649l118.813-205.793-118.813-205.794h-237.627l-118.814,205.794,118.814,205.793h237.627Z" fill="url(#linear-gradient83)"/>
        <path d="M3643.159,172.788l-121.6,210.613h-243.204l-.692-1.205-120.903-209.408,121.595-210.618h243.204l121.6,210.618ZM3518.773,378.582l118.814-205.794-118.814-205.798h-237.631l-118.818,205.798,118.818,205.794h237.631Z" fill="url(#linear-gradient84)"/>
        <polygon points="3159.54 -1076.442 3402.854 -1077.011 3280.906 -1290.777 3039.62 -1287.31 3159.54 -1076.442" fill="url(#linear-gradient85)"/>
        <polygon points="3280.906 -1290.777 3405.07 -1505.124 3524.803 -1291.34 3402.854 -1077.011 3280.906 -1290.777" fill="url(#linear-gradient86)"/>
        <polygon points="2702.061 -454.177 2796.316 -668.233 2917.368 -454.322 2816.918 -240.41 2702.061 -454.177" fill="url(#linear-gradient87)"/>
        <polygon points="3644.988 -243.623 3883.943 -243.623 3761.995 -457.39 3520.422 -454.708 3644.988 -243.623" fill="url(#linear-gradient88)"/>
        <polygon points="3761.995 -457.39 3886.159 -671.736 4005.892 -457.953 3883.943 -243.623 3761.995 -457.39" fill="url(#linear-gradient89)"/>
        <polygon points="3520.162 -35.418 3763.156 -35.418 3883.364 172.786 3640.368 172.786 3520.162 -35.418" fill="url(#linear-gradient90)"/>
        <polygon points="3279.747 -35.418 3399.955 -243.623 3640.368 -243.623 3520.162 -35.418 3279.747 -35.418" fill="url(#linear-gradient91)"/>
        <polygon points="3039.334 -868.237 3159.54 -660.033 3399.955 -660.033 3520.162 -868.237 3039.334 -868.237" fill="url(#linear-gradient92)"/>
        <polygon points="3763.156 -1284.647 3883.943 -1076.442 4123.778 -1076.442 4003.571 -1284.647 3763.156 -1284.647" fill="url(#linear-gradient93)"/>
        <polygon points="4003.571 -35.419 4124.357 172.786 4364.192 172.786 4243.985 -35.419 4003.571 -35.419" fill="url(#linear-gradient94)"/>
        <line x1="4003.571" y1="-35.419" x2="4243.985" y2="-35.418" fill="url(#linear-gradient95)"/>
        <polygon points="3159.54 172.786 3402.854 172.786 3520.162 380.991 3279.747 380.991 3159.54 172.786" fill="url(#linear-gradient96)"/>
        <polygon points="2682.089 -1076.442 2798.919 -872.442 2916.113 -1076.442 2798.919 -1280.064 2682.089 -1076.442" fill="url(#linear-gradient97)"/>
        <polygon points="3524.803 -1291.34 3761.995 -1291.34 3643.399 -1505.124 3405.07 -1505.124 3524.803 -1291.34" fill="url(#linear-gradient98)"/>
      </g>
      <g>
        <g>
          <path d="M3527.016,1220.232l-121.599,210.613h-243.199l-121.599-210.613,121.599-210.618h243.199l121.599,210.618ZM3402.631,1426.026l118.813-205.793-118.813-205.799h-237.627l-118.814,205.799,118.814,205.793h237.627Z" fill="url(#linear-gradient99)"/>
          <polygon points="3524.23 1217.823 3524.23 1222.642 3282.424 1222.642 3161.521 1013.229 3165.7 1010.819 3285.211 1217.823 3524.23 1217.823" fill="url(#linear-gradient100)"/>
          <rect x="3103.508" y="1321.922" width="240.413" height="4.824" transform="translate(464.953 3453.988) rotate(-60)" fill="url(#linear-gradient101)"/>
        </g>
        <g>
          <path d="M2803.199,803.82l-121.599,210.613h-243.204l-.692-1.204-120.903-209.409,121.595-210.613h243.204l121.599,210.613ZM2678.813,1009.614l118.814-205.794-118.814-205.793h-237.631l-118.818,205.793,118.818,205.794h237.631Z" fill="url(#linear-gradient102)"/>
          <polygon points="2800.412 801.411 2800.412 806.23 2558.597 806.23 2438.395 598.027 2080.699 598.027 1985.567 801.411 2319.582 801.411 2319.582 806.23 1977.99 806.23 2077.63 593.208 2441.181 593.208 2441.873 594.412 2561.383 801.411 2800.412 801.411" fill="url(#linear-gradient103)"/>
        </g>
        <g>
          <path d="M3043.612,387.413l-121.6,210.613h-243.199l-121.609-210.613,121.609-210.617h243.199l121.6,210.617ZM2919.226,593.208l118.814-205.794-118.814-205.798h-237.627l-118.823,205.798,118.823,205.794h237.627Z" fill="url(#linear-gradient104)"/>
          <polygon points="3040.825 385.004 3040.825 389.823 2799.02 389.823 2678.116 180.41 2682.295 178 2801.806 385.004 3040.825 385.004" fill="url(#linear-gradient105)"/>
          <rect x="2620.103" y="489.103" width="240.413" height="4.824" transform="translate(944.484 2618.93) rotate(-60)" fill="url(#linear-gradient106)"/>
        </g>
        <g>
          <path d="M2322.363-28.998l-121.599,210.613h-243.199l-.692-1.205-120.903-209.408,121.595-210.613h243.199l.692,1.204,120.908,209.408ZM2197.978,176.796l118.823-205.794-118.823-205.793h-237.627l-118.818,205.793,118.818,205.794h237.627Z" fill="url(#linear-gradient107)"/>
          <polygon points="2319.582 -31.408 2319.582 -26.589 2077.771 -26.589 2077.079 -27.793 1956.873 -235.997 1961.042 -238.406 2080.557 -31.408 2319.582 -31.408" fill="url(#linear-gradient108)"/>
          <rect x="1898.855" y="72.696" width="240.412" height="4.816" transform="translate(944.484 1786.107) rotate(-60)" fill="url(#linear-gradient109)"/>
        </g>
        <g>
          <path d="M3527.016,803.82l-121.599,210.613h-243.199l-121.599-210.613,121.599-210.613h243.199l121.599,210.613ZM3402.631,1009.614l118.813-205.794-118.813-205.793h-237.627l-118.814,205.793,118.814,205.794h237.627Z" fill="url(#linear-gradient110)"/>
          <rect x="3221.302" y="579.512" width="4.824" height="240.413" transform="translate(81.461 1703.802) rotate(-29.967)" fill="url(#linear-gradient111)"/>
          <rect x="3103.508" y="905.51" width="240.413" height="4.824" transform="translate(825.576 3245.782) rotate(-60)" fill="url(#linear-gradient112)"/>
        </g>
        <path d="M3166.397,1012.024l-121.599,210.618h-243.2l-121.599-210.618,121.599-210.613h243.2l121.599,210.613ZM3042.011,1217.823l118.814-205.799-118.814-205.794h-237.627l-118.814,205.794,118.814,205.799h237.627Z" fill="url(#linear-gradient113)"/>
        <path d="M3527.016,387.413l-121.599,210.613h-243.199l-121.599-210.613,121.599-210.617h243.199l121.599,210.617ZM3402.631,593.208l118.813-205.794-118.813-205.798h-237.627l-118.814,205.798,118.814,205.794h237.627Z" fill="url(#linear-gradient114)"/>
        <path d="M2682.992,179.205l-121.609,210.617h-243.194l-.692-1.204-120.908-209.413,121.599-210.613h243.194l121.609,210.613ZM2558.597,385.004l118.823-205.798-118.823-205.794h-237.622l-118.823,205.794,118.823,205.798h237.622Z" fill="url(#linear-gradient115)"/>
        <path d="M3286.603-28.998l-121.599,210.613h-243.199l-121.599-210.613,121.599-210.613h243.199l121.599,210.613ZM3162.218,176.796l118.813-205.794-118.813-205.793h-237.627l-118.813,205.793,118.813,205.794h237.627Z" fill="url(#linear-gradient116)"/>
        <path d="M2803.199,1220.232l-121.599,210.613h-243.204l-.692-1.204-120.903-209.408,121.595-210.618h243.204l121.599,210.618ZM2678.813,1426.026l118.814-205.793-118.814-205.799h-237.631l-118.818,205.799,118.818,205.793h237.631Z" fill="url(#linear-gradient117)"/>
        <polygon points="2319.58 -28.998 2562.894 -29.567 2440.946 -243.332 2199.66 -239.865 2319.58 -28.998" fill="url(#linear-gradient118)"/>
        <polygon points="2440.946 -243.332 2565.11 -457.68 2684.843 -243.896 2562.894 -29.567 2440.946 -243.332" fill="url(#linear-gradient119)"/>
        <polygon points="1862.101 593.268 1956.356 379.211 2077.408 593.123 1976.958 807.034 1862.101 593.268" fill="url(#linear-gradient120)"/>
        <polygon points="2805.027 803.822 3043.983 803.822 2922.034 590.055 2680.462 592.737 2805.027 803.822" fill="url(#linear-gradient121)"/>
        <polygon points="2922.034 590.055 3046.199 375.708 3165.931 589.492 3043.983 803.822 2922.034 590.055" fill="url(#linear-gradient122)"/>
        <polygon points="2680.201 1012.026 2923.196 1012.026 3043.404 1220.231 2800.408 1220.231 2680.201 1012.026" fill="url(#linear-gradient123)"/>
        <polygon points="2439.787 1012.026 2559.994 803.822 2800.408 803.822 2680.201 1012.026 2439.787 1012.026" fill="url(#linear-gradient124)"/>
        <polygon points="2199.373 179.207 2319.58 387.412 2559.994 387.412 2680.201 179.207 2199.373 179.207" fill="url(#linear-gradient125)"/>
        <polygon points="2923.196 -237.203 3043.983 -28.998 3283.817 -28.998 3163.611 -237.203 2923.196 -237.203" fill="url(#linear-gradient126)"/>
        <polygon points="3163.611 1012.026 3284.397 1220.231 3524.232 1220.23 3404.025 1012.026 3163.611 1012.026" fill="url(#linear-gradient127)"/>
        <line x1="3163.611" y1="1012.026" x2="3404.025" y2="1012.026" fill="url(#linear-gradient128)"/>
        <polygon points="2319.58 1220.231 2562.894 1220.231 2680.201 1428.436 2439.787 1428.436 2319.58 1220.231" fill="url(#linear-gradient129)"/>
        <polygon points="1842.128 -28.997 1958.959 175.003 2076.152 -28.997 1958.959 -232.619 1842.128 -28.997" fill="url(#linear-gradient130)"/>
        <polygon points="2684.843 -243.896 2922.034 -243.896 2803.439 -457.68 2565.11 -457.68 2684.843 -243.896" fill="url(#linear-gradient131)"/>
      </g>
    </g>
  </g>
</svg>