<?xml version="1.0" encoding="utf-8"?>
<!-- Generator: Adobe Illustrator 25.4.1, SVG Export Plug-In . SVG Version: 6.00 Build 0)  -->
<svg version="1.1" id="Laag_1" xmlns="http://www.w3.org/2000/svg" xmlns:xlink="http://www.w3.org/1999/xlink" x="0px" y="0px"
	 viewBox="0 0 1500 1261.8" enable-background="new 0 0 1500 1261.8" xml:space="preserve">
<g>
	<g>
		<path fill="#FAFAFA" d="M194.5,919.1v29.4c0,44-21.1,64.5-67.3,64.5H44.8v95.6H0V854.7h127.1C173.3,854.7,194.5,875.1,194.5,919.1
			z M114.6,974.3c26.1,0,35.1-8.2,35.1-32.6v-15.8c0-24.4-9-32.6-35.1-32.6H44.8v80.9H114.6z"/>
		<path fill="#FAFAFA" d="M254.8,854.7h127.8c45.8,0,67.3,20.4,67.3,64.5v27.6c0,39-17.2,59.4-53,63.4l74.8,98.5h-52.6l-76.3-97.8
			h-43.3v97.8h-44.8V854.7z M369.7,972.1c26.5,0,35.5-7.9,35.5-32.2v-14c0-24.4-9-32.6-35.5-32.6h-70.2v78.8H369.7z"/>
		<path fill="#FAFAFA" d="M721.5,915.6v132.5c0,43.7-21.1,64.1-67.3,64.1h-68c-46.2,0-67.7-20.4-67.7-64.1V915.6
			c0-44,21.5-64.5,67.7-64.5h68C700.3,851.1,721.5,871.5,721.5,915.6z M641.6,889.8h-43c-26.5,0-35.5,8.2-35.5,32.6v118.9
			c0,24.4,9,32.6,35.5,32.6h43c26.5,0,35.1-8.2,35.1-32.6V922.4C676.7,898,668.1,889.8,641.6,889.8z"/>
		<path fill="#FAFAFA" d="M786.8,1048.1V915.6c0-44,21.5-64.5,67.7-64.5h68c46.2,0,67.3,20.4,67.3,63.7v3.9l-44.8,5.4v-2.5
			c0-23.6-8.6-31.9-35.1-31.9h-43c-26.5,0-35.5,8.2-35.5,32.6v118.9c0,24.4,9,32.6,35.5,32.6h43c26.5,0,35.1-8.2,35.1-32.2v-2.5
			l44.8,5.4v3.9c0,43.3-21.1,63.7-67.3,63.7h-68C808.2,1112.2,786.8,1091.8,786.8,1048.1z"/>
		<path fill="#FAFAFA" d="M1185.4,1112.2h-63c-46.2,0-67.7-20.4-67.7-64.1V854.7h44.8v186.6c0,24.4,9,32.6,35.5,32.6h38
			c26.1,0,35.1-8.2,35.1-32.6V854.7h44.8v193.4C1252.7,1091.8,1231.6,1112.2,1185.4,1112.2z"/>
		<path fill="#FAFAFA" d="M1366.4,893.4v65.5H1485v38.3h-118.5v73.1H1500v38.3h-178.3V854.7H1500v38.7H1366.4z"/>
	</g>
	<g>
		<g>
			<path fill="#FAFAFA" d="M0,1247.2c0-0.6,0-0.7,0.1-0.9l10.1-1.2v0.6c0,5.5,2,7.3,8.1,7.3h9.9c6,0,8-1.9,8-7.4v-1.4
				c0-4.5-1.5-5.8-7.9-6.7l-14.1-2c-10.2-1.5-13.9-5-13.9-13.5v-5.1c0-10,4.9-14.7,15.3-14.7h15.1c10.5,0,15.3,4.6,15.3,14.5v0.9
				l-10.2,1.2v-0.6c0-5.4-2-7.3-8-7.3h-9.2c-6,0-8.2,1.9-8.2,7.4v1c0,4.6,1.4,5.7,8,6.7l14.1,2c10.3,1.5,13.8,5,13.8,13.5v5.4
				c0,9.9-4.8,14.6-15.3,14.6H15.4C4.9,1261.8,0,1257.1,0,1247.2z"/>
			<path fill="#FAFAFA" d="M64.8,1203.1h10.2v57.8H64.8V1203.1z"/>
			<path fill="#FAFAFA" d="M151,1203.1v57.8h-10.2v-41.1l-16.3,25.2h-3.9l-16.4-25.4v41.3H94v-57.8h10.1l18.4,28.5l18.4-28.5H151z"
				/>
			<path fill="#FAFAFA" d="M200,1261.8h-14.4c-10.5,0-15.4-4.6-15.4-14.6v-44h10.2v42.5c0,5.5,2,7.4,8.1,7.4h8.6c6,0,8-1.9,8-7.4
				v-42.5h10.2v44C215.4,1257.1,210.6,1261.8,200,1261.8z"/>
			<path fill="#FAFAFA" d="M234.5,1203.1h10.2v49.1h29.2v8.7h-39.4V1203.1z"/>
			<path fill="#FAFAFA" d="M308.1,1203.1h14.8l19.9,57.8h-10.5l-5.1-15.3h-23.2l-5.1,15.3h-10.4L308.1,1203.1z M324.1,1236.9
				l-8.6-25.7l-8.6,25.7H324.1z"/>
			<path fill="#FAFAFA" d="M366.8,1211.9h-18.3v-8.8h46.8v8.8H377v49h-10.2V1211.9z"/>
			<path fill="#FAFAFA" d="M457.7,1217v30.2c0,9.9-4.8,14.6-15.3,14.6h-15.5c-10.5,0-15.4-4.6-15.4-14.6V1217
				c0-10,4.9-14.7,15.4-14.7h15.5C452.9,1202.3,457.7,1207,457.7,1217z M439.5,1211.1h-9.8c-6,0-8.1,1.9-8.1,7.4v27.1
				c0,5.5,2,7.4,8.1,7.4h9.8c6,0,8-1.9,8-7.4v-27.1C447.5,1213,445.6,1211.1,439.5,1211.1z"/>
			<path fill="#FAFAFA" d="M476.5,1203.1h29.1c10.4,0,15.3,4.6,15.3,14.7v6.3c0,8.9-3.9,13.5-12.1,14.4l17,22.4h-12l-17.4-22.3h-9.9
				v22.3h-10.2V1203.1z M502.7,1229.9c6,0,8.1-1.8,8.1-7.3v-3.2c0-5.5-2-7.4-8.1-7.4h-16v17.9H502.7z"/>
			<path fill="#FAFAFA" d="M623.7,1203.1v57.8h-10.2v-41.1l-16.3,25.2h-3.9l-16.4-25.4v41.3h-10.2v-57.8h10.1l18.4,28.5l18.4-28.5
				H623.7z"/>
			<path fill="#FAFAFA" d="M688.7,1217v30.2c0,9.9-4.8,14.6-15.3,14.6h-15.5c-10.5,0-15.4-4.6-15.4-14.6V1217
				c0-10,4.9-14.7,15.4-14.7h15.5C683.9,1202.3,688.7,1207,688.7,1217z M670.5,1211.1h-9.8c-6,0-8.1,1.9-8.1,7.4v27.1
				c0,5.5,2,7.4,8.1,7.4h9.8c6,0,8-1.9,8-7.4v-27.1C678.5,1213,676.6,1211.1,670.5,1211.1z"/>
			<path fill="#FAFAFA" d="M723.2,1211.9h-18.3v-8.8h46.8v8.8h-18.3v49h-10.2V1211.9z"/>
			<path fill="#FAFAFA" d="M768.4,1203.1h10.2v57.8h-10.2V1203.1z"/>
			<path fill="#FAFAFA" d="M843.5,1217v30.2c0,9.9-4.8,14.6-15.3,14.6h-15.5c-10.5,0-15.4-4.6-15.4-14.6V1217
				c0-10,4.9-14.7,15.4-14.7h15.5C838.7,1202.3,843.5,1207,843.5,1217z M825.3,1211.1h-9.8c-6,0-8.1,1.9-8.1,7.4v27.1
				c0,5.5,2,7.4,8.1,7.4h9.8c6,0,8-1.9,8-7.4v-27.1C833.3,1213,831.3,1211.1,825.3,1211.1z"/>
			<path fill="#FAFAFA" d="M862.2,1203.1h10.1l26.1,41.1v-41.1h10.2v57.8h-10l-26.2-41.3v41.3h-10.2V1203.1z"/>
			<path fill="#FAFAFA" d="M949.3,1203.1h10.3l12,48.3l11.9-48.3h13.7l12,48.3l11.9-48.3h10.4l-15.2,57.8h-14l-11.8-47.5l-11.7,47.5
				h-14L949.3,1203.1z"/>
			<path fill="#FAFAFA" d="M1092.8,1217v30.2c0,9.9-4.8,14.6-15.3,14.6H1062c-10.5,0-15.4-4.6-15.4-14.6V1217
				c0-10,4.9-14.7,15.4-14.7h15.5C1088,1202.3,1092.8,1207,1092.8,1217z M1074.6,1211.1h-9.8c-6,0-8.1,1.9-8.1,7.4v27.1
				c0,5.5,2,7.4,8.1,7.4h9.8c6,0,8-1.9,8-7.4v-27.1C1082.6,1213,1080.6,1211.1,1074.6,1211.1z"/>
			<path fill="#FAFAFA" d="M1111.6,1203.1h29.1c10.4,0,15.3,4.6,15.3,14.7v6.3c0,8.9-3.9,13.5-12.1,14.4l17,22.4h-12l-17.4-22.3
				h-9.9v22.3h-10.2V1203.1z M1137.7,1229.9c6,0,8.1-1.8,8.1-7.3v-3.2c0-5.5-2-7.4-8.1-7.4h-16v17.9H1137.7z"/>
			<path fill="#FAFAFA" d="M1177.7,1203.1h10.2v24.1h7.4l17.7-24.1h12l-20.7,28.4l22.3,29.4h-12l-19.2-25h-7.5v25h-10.2V1203.1z"/>
			<path fill="#FAFAFA" d="M1253.5,1211.9v16.4h27v8.8h-27v23.8h-10.2v-57.8h40.6v8.8H1253.5z"/>
			<path fill="#FAFAFA" d="M1301,1203.1h10.2v49.1h29.2v8.7H1301V1203.1z"/>
			<path fill="#FAFAFA" d="M1402.8,1217v30.2c0,9.9-4.8,14.6-15.3,14.6H1372c-10.5,0-15.4-4.6-15.4-14.6V1217
				c0-10,4.9-14.7,15.4-14.7h15.5C1398,1202.3,1402.8,1207,1402.8,1217z M1384.6,1211.1h-9.8c-6,0-8.1,1.9-8.1,7.4v27.1
				c0,5.5,2,7.4,8.1,7.4h9.8c6,0,8-1.9,8-7.4v-27.1C1392.6,1213,1390.6,1211.1,1384.6,1211.1z"/>
			<path fill="#FAFAFA" d="M1417.9,1203.1h10.3l12,48.3l11.9-48.3h13.7l12,48.3l11.9-48.3h10.4l-15.2,57.8h-14l-11.8-47.5
				l-11.7,47.5h-14L1417.9,1203.1z"/>
		</g>
	</g>
	<path fill="#FAFAFA" d="M1017.6,492.7l-41-360.3c15.8-12.1,24.7-25.7,24.7-40C1001.3,41.4,888.8,0,750,0
		C611.2,0,498.7,41.4,498.7,92.5c0,14.3,8.9,27.9,24.7,40l-41,360.3c-42.4,20.2-67.5,45.4-67.5,72.7c0,66.7,150,120.9,335.1,120.9
		c185.1,0,335.1-54.1,335.1-120.9C1085.1,538.2,1059.9,513,1017.6,492.7z M932.9,111.5c0,18.6-31.4,35.1-79.3,44.9l9.2,18.5
		c31.2-5.8,58.7-13.8,80.8-23.6l32.5,285.9l0.7,5.9L784.5,58C869,62.8,932.9,84.9,932.9,111.5z M524.2,434.1l32.1-282.7
		c22,9.8,49.5,17.8,80.6,23.6l9.2-18.5c-47.7-9.8-79-26.2-79-44.8c0-26.6,63.8-48.7,148.2-53.5l-192,384.5L524.2,434.1z M750,605.5
		c-117.3,0-213.8-27.2-226-62c-0.8-2.4-0.6-5.1,0.5-7.4l25-53.4l0,0L748.1,58.8c0.7-1.5,2.9-1.5,3.6,0l220.1,469.7c0,0,0,0,0,0
		l3.7,7.8c1.1,2.3,1.4,5.1,0.5,7.5C963.3,578.5,867,605.5,750,605.5z"/>
</g>
</svg>
