<svg width="320" height="61" viewBox="0 0 320 61" fill="none" xmlns="http://www.w3.org/2000/svg">
<g clip-path="url(#clip0_92_596)">
<path d="M80 50.5V12.76L82.66 11.5H96.1C101.96 11.5 104.9 14.44 104.9 20.3V27.84C104.9 33.7 101.96 36.64 96.1 36.64H85.02V48.22L80.24 50.48H79.98L80 50.5ZM85.04 16.04V32.14H96.12C98.64 32.14 99.9 30.72 99.9 27.86V20.32C99.9 17.46 98.64 16.04 96.12 16.04H85.04Z" fill="white"/>
<path d="M123.02 50.5V12.76L125.68 11.5H139.12C144.98 11.5 147.92 14.44 147.92 20.32V27.88C147.92 33.36 145.38 36.28 140.28 36.64L148.52 48.42L144.1 50.5H143.84L134.16 36.66H128.04V48.24L123.26 50.5H123H123.02ZM128.04 16.04V32.14H139.12C141.64 32.14 142.9 30.72 142.9 27.86V20.32C142.9 17.46 141.64 16.04 139.12 16.04H128.04Z" fill="white"/>
<path d="M175.44 49.5C169.58 49.5 166.64 46.56 166.64 40.7V20.32C166.64 14.46 169.58 11.52 175.44 11.52H183.24C189.1 11.52 192.04 14.46 192.04 20.32V40.7C192.04 46.56 189.1 49.5 183.24 49.5H175.44ZM175.44 44.96H183.24C185.76 44.96 187.02 43.54 187.02 40.68V20.3C187.02 17.44 185.76 16.02 183.24 16.02H175.44C172.92 16.02 171.66 17.44 171.66 20.3V40.68C171.66 43.54 172.92 44.96 175.44 44.96Z" fill="white"/>
<path d="M218.96 49.5C213.1 49.5 210.16 46.56 210.16 40.7V20.32C210.16 14.46 213.1 11.52 218.96 11.52H226.76C232.62 11.52 235.56 14.46 235.56 20.32V23.08L230.78 25.34H230.52V20.3C230.52 17.44 229.26 16.02 226.74 16.02H218.94C216.42 16.02 215.16 17.44 215.16 20.3V40.68C215.16 43.54 216.42 44.96 218.94 44.96H226.74C229.26 44.96 230.52 43.54 230.52 40.68V37.92L235.3 35.66H235.54V40.7C235.54 46.56 232.6 49.5 226.74 49.5H218.94H218.96Z" fill="white"/>
<path d="M262.48 49.5C256.62 49.5 253.68 46.56 253.68 40.7V12.76L258.46 10.5H258.7V40.68C258.7 43.54 259.96 44.96 262.48 44.96H270.28C272.8 44.96 274.06 43.54 274.06 40.68V12.76L278.84 10.5H279.08V40.68C279.08 46.54 276.14 49.48 270.28 49.48H262.48V49.5Z" fill="white"/>
<path d="M297.18 49.5V12.76L299.84 11.5H315.8V11.76L313.76 16.08H302.22V28.2H315.8V28.46L313.76 32.78H302.22V44.9H320V45.16L317.96 49.48H297.18V49.5Z" fill="white"/>
<path d="M30 50.5C33.48 50.5 36.74 50.66 39.5 50.92C43.44 50.52 46.12 49.94 47.08 49.42C45.46 48.56 39.14 47.48 30 47.48C20.86 47.48 14.54 48.54 12.92 49.42C13.9 49.94 16.56 50.52 20.5 50.92C23.28 50.66 26.52 50.5 30 50.5ZM30 57.5C20.7 57.5 4.2 56.4 0 52.48V54.5C0 57.82 13.44 60.5 30 60.5C46.56 60.5 60 57.82 60 54.5V52.48C55.8 56.4 39.3 57.5 30 57.5Z" fill="white"/>
<path d="M30 44.5C13.44 44.5 0 47.18 0 50.5C0 53.82 13.44 56.5 30 56.5C46.56 56.5 60 53.82 60 50.5C60 47.18 46.56 44.5 30 44.5ZM30 52.36C19.86 52.36 11.64 51.04 11.64 49.42C11.64 47.8 19.86 46.48 30 46.48C40.14 46.48 48.36 47.8 48.36 49.42C48.36 51.04 40.14 52.36 30 52.36Z" fill="white"/>
<path d="M30 3.5C38.52 3.5 47.14 5.1 50 8.2V6.5C50 3.18 41.04 0.5 30 0.5C18.96 0.5 10 3.18 10 6.5V8.2C12.86 5.1 21.48 3.5 30 3.5Z" fill="white"/>
<path d="M30 4.5C18.96 4.5 10 7.18 10 10.5C10 13.82 18.96 16.5 30 16.5C41.04 16.5 50 13.82 50 10.5C50 7.18 41.04 4.5 30 4.5ZM30 13.98C23.22 13.98 17.74 12.88 17.74 11.52C17.74 10.16 23.22 9.06 30 9.06C36.78 9.06 42.26 10.16 42.26 11.52C42.26 12.88 36.78 13.98 30 13.98Z" fill="white"/>
<path d="M48.0999 9.55998C47.9799 7.53998 45.0199 7.05998 44.2799 8.97998L39.6999 20.14L41.5399 24.26L44.9199 17.08L47.0799 36.68L52.4199 48.68L48.1199 9.59998L48.0999 9.55998ZM30.4199 42.72C29.9599 41.62 27.2199 34.94 24.2799 27.8L22.6599 31.42L28.9999 44.94C29.2999 45.56 29.9199 45.66 30.3999 45.44C30.8799 45.66 31.5199 45.56 31.7999 44.94L38.1399 31.42L36.5199 27.8L30.3799 42.72H30.4199ZM12.7399 9.55998C12.7399 9.55998 9.59994 38.16 8.43994 48.66L13.7799 36.66L15.9399 17.06L19.3199 24.24L21.1599 20.12C18.6199 13.96 16.5799 8.95998 16.5799 8.95998C15.8399 7.05998 12.8999 7.49998 12.7599 9.53998L12.7399 9.55998Z" fill="white"/>
<path d="M12.28 52.32L30.42 11.58L48.56 52.32H52.8C52.78 52.1 52.76 51.9 52.66 51.7L32.84 7.17999H28L8.18004 51.68C8.08004 51.88 8.06004 52.1 8.04004 52.3H12.28V52.32Z" fill="white"/>
</g>
<defs>
<clipPath id="clip0_92_596">
<rect width="320" height="60" fill="white" transform="translate(0 0.5)"/>
</clipPath>
</defs>
</svg>
