<svg width="48" height="48" viewBox="0 0 48 48" fill="none" xmlns="http://www.w3.org/2000/svg">
<path d="M19.4164 34.0539H10.9521C9.9663 34.0539 9.16968 33.2548 9.16968 32.266C9.16968 31.2771 9.9663 30.4781 10.9521 30.4781H19.4164C20.4023 30.4781 21.1989 31.2771 21.1989 32.266C21.1989 33.2548 20.4023 34.0539 19.4164 34.0539Z" fill="#95F4DE"/>
<path d="M10.9521 27.5315H24.6244C25.6103 27.5315 26.4069 26.7324 26.4069 25.7435C26.4069 24.7547 25.6103 23.9556 24.6244 23.9556H10.9521C9.9663 23.9556 9.16968 24.7547 9.16968 25.7435C9.16968 26.7324 9.9663 27.5315 10.9521 27.5315Z" fill="#95F4DE"/>
<path d="M37.3109 13.5977H23.6386C22.6527 13.5977 21.8561 12.7986 21.8561 11.8097C21.8561 10.8209 22.6527 10.0218 23.6386 10.0218H37.3109C38.2967 10.0218 39.0933 10.8209 39.0933 11.8097C39.0933 12.7986 38.2967 13.5977 37.3109 13.5977Z" fill="#95F4DE"/>
<path fill-rule="evenodd" clip-rule="evenodd" d="M17.5344 3H45.1578C46.1735 3 47 3.82904 47 4.84786V24.8246C47 25.8434 46.1735 26.6725 45.1578 26.6725H43.226L36.6238 32.3459C36.2852 32.6355 35.857 32.7854 35.4289 32.7854C35.1699 32.7854 34.911 32.7254 34.6621 32.6156C34.0049 32.3159 33.5866 31.6567 33.5866 30.9375V26.6725H31.4556V39.0481C31.4556 40.0369 30.659 40.836 29.6731 40.836H27.1936V44.2121C27.1936 44.8413 26.865 45.4207 26.3372 45.7403C26.0584 45.9101 25.7298 46 25.4112 46C25.1323 46 24.8535 45.9301 24.5946 45.8002L14.9752 40.836H3.78245C2.79662 40.836 2 40.0369 2 39.0481V19.0713C2 18.0825 2.79662 17.2834 3.78245 17.2834H15.6922V4.84786C15.6922 3.82904 16.5187 3 17.5344 3ZM25.4112 37.2602H27.8907V20.8592H5.56496V37.2602H15.4133C15.7022 37.2602 15.9809 37.3301 16.2299 37.4599L23.6286 41.2855V39.0481C23.6286 38.5686 23.8179 38.1192 24.1465 37.7796C24.4851 37.4499 24.9431 37.2602 25.4112 37.2602ZM42.5389 22.9768H43.3056V6.6957H19.3766V17.2734H29.6731C30.659 17.2734 31.4556 18.0725 31.4556 19.0613V22.9668H35.4189C36.4346 22.9668 37.2611 23.7958 37.2611 24.8146V26.9222L41.3439 23.4163C41.6725 23.1366 42.1007 22.9768 42.5389 22.9768Z" fill="#95F4DE"/>
</svg>
