<svg width="48" height="48" viewBox="0 0 48 48" fill="none" xmlns="http://www.w3.org/2000/svg">
<path fill-rule="evenodd" clip-rule="evenodd" d="M22.9445 3.93934C23.5303 3.35355 24.48 3.35355 25.0658 3.93934L28.0361 6.90969C28.6219 7.49547 28.6219 8.44522 28.0361 9.03101C27.4504 9.6168 26.5006 9.6168 25.9148 9.03101L25.5052 8.62137V11.8123L37.3165 18.6038C37.7819 18.8714 38.0688 19.3673 38.0688 19.9042V34.4797L41.6182 36.5292L41.4695 35.9719C41.2559 35.1715 41.7316 34.3495 42.5321 34.1359C43.3325 33.9223 44.1545 34.3981 44.3681 35.1985L45.4449 39.2338C45.4633 39.3002 45.4773 39.3678 45.4866 39.4361C45.4973 39.5157 45.5018 39.5962 45.4997 39.677C45.4989 39.7066 45.4973 39.7362 45.4947 39.7658C45.4765 39.9781 45.4126 40.1899 45.2989 40.3867C45.1931 40.5701 45.0543 40.7226 44.8944 40.8412C44.7464 40.9512 44.5756 41.0355 44.3866 41.0859L40.3352 42.167C39.5347 42.3806 38.7127 41.9049 38.4991 41.1044C38.2856 40.304 38.7613 39.482 39.5617 39.2684L40.1095 39.1223L36.5783 37.0833L24.7533 44.2769C24.6954 44.3121 24.6357 44.343 24.5746 44.3698C24.1471 44.5568 23.6521 44.5353 23.2386 44.3029C23.2237 44.2945 23.2088 44.2858 23.1941 44.2769L11.3963 37.0998L7.89143 39.1226L8.43804 39.2684C9.23846 39.482 9.71419 40.304 9.5006 41.1044C9.28702 41.9049 8.46501 42.3806 7.66459 42.167L3.61315 41.0859C3.40229 41.0297 3.21396 40.9312 3.05482 40.802C2.93585 40.7055 2.83002 40.5893 2.74264 40.4548C2.71471 40.4118 2.68898 40.3675 2.66556 40.3219C2.58629 40.1679 2.53626 40.0059 2.51369 39.8425C2.48874 39.663 2.49614 39.4763 2.54046 39.2901C2.54394 39.2754 2.54764 39.2608 2.55156 39.2463L3.63142 35.1889C3.84449 34.3884 4.6662 33.9121 5.46676 34.1252C6.26731 34.3382 6.74357 35.1599 6.5305 35.9605L6.37839 36.532L9.87854 34.512V19.9043C9.87854 19.3675 10.1654 18.8714 10.6308 18.6038L22.5052 11.7761V8.62127L22.0954 9.03101C21.5097 9.6168 20.5599 9.6168 19.9741 9.03101C19.3883 8.44522 19.3883 7.49547 19.9741 6.90969L22.9445 3.93934ZM30.6912 33.6839L25.4737 30.6838V40.3271L33.617 35.3733L30.6912 33.6839ZM25.5052 15.2729L33.623 19.9406L25.5052 24.8789V15.2729ZM32.1889 31.0845L35.0688 32.7404V22.5725L26.4879 27.7926L32.1889 31.0845ZM12.8785 22.5725V32.7404L21.4711 27.7997L12.8785 22.5725ZM22.4737 24.8981L14.3244 19.9406L22.4737 15.2548V24.8981ZM22.4737 40.3271L14.3584 35.3903L22.4737 30.7068V40.3271Z" fill="#95F4DE"/>
</svg>
