<svg width="80" height="60" viewBox="0 0 80 60" fill="none" xmlns="http://www.w3.org/2000/svg">
<g clip-path="url(#clip0_94_241)">
<path d="M0 60V47.4266L0.893333 47.0133H5.37333C7.33333 47.0133 8.30667 47.9866 8.30667 49.9466V52.4666C8.30667 54.4266 7.33333 55.4 5.37333 55.4H1.68V59.2533L0.0933333 60.0133H0.0133333L0 60ZM1.68 48.5066V53.88H5.37333C6.21333 53.88 6.62667 53.4 6.62667 52.4533V49.9333C6.62667 48.9866 6.21333 48.5066 5.37333 48.5066H1.68Z" fill="white"/>
<path d="M14.3335 60V47.4266L15.2268 47.0133H19.7068C21.6668 47.0133 22.6402 47.9866 22.6402 49.9466V52.4666C22.6402 54.2933 21.7868 55.2666 20.0935 55.3866L22.8402 59.32L21.3602 60.0133H21.2802L18.0535 55.4H16.0135V59.2533L14.4268 60.0133H14.3468L14.3335 60ZM16.0135 48.5066V53.88H19.7068C20.5468 53.88 20.9602 53.4 20.9602 52.4533V49.9333C20.9602 48.9866 20.5468 48.5066 19.7068 48.5066H16.0135Z" fill="white"/>
<path d="M31.8132 59.6666C29.8532 59.6666 28.8799 58.6933 28.8799 56.7333V49.9466C28.8799 47.9866 29.8532 47.0133 31.8132 47.0133H34.4132C36.3732 47.0133 37.3465 47.9866 37.3465 49.9466V56.7333C37.3465 58.6933 36.3732 59.6666 34.4132 59.6666H31.8132ZM31.8132 58.16H34.4132C35.2532 58.16 35.6665 57.68 35.6665 56.7333V49.9466C35.6665 49 35.2532 48.52 34.4132 48.52H31.8132C30.9732 48.52 30.5599 49 30.5599 49.9466V56.7333C30.5599 57.68 30.9732 58.16 31.8132 58.16Z" fill="white"/>
<path d="M46.3201 59.6666C44.3601 59.6666 43.3867 58.6933 43.3867 56.7333V49.9466C43.3867 47.9866 44.3601 47.0133 46.3201 47.0133H48.92C50.88 47.0133 51.8534 47.9866 51.8534 49.9466V50.8666L50.2667 51.6266H50.1867V49.9466C50.1867 49 49.7734 48.52 48.9334 48.52H46.3334C45.4934 48.52 45.0801 49 45.0801 49.9466V56.7333C45.0801 57.68 45.4934 58.16 46.3334 58.16H48.9334C49.7734 58.16 50.1867 57.68 50.1867 56.7333V55.8133L51.7867 55.0533H51.8667V56.7333C51.8667 58.6933 50.8934 59.6666 48.9334 59.6666H46.3334H46.3201Z" fill="white"/>
<path d="M60.8269 59.6666C58.8669 59.6666 57.8936 58.6933 57.8936 56.7333V47.4266L59.4936 46.6666H59.5736V56.7333C59.5736 57.68 59.9869 58.16 60.8269 58.16H63.4269C64.2669 58.16 64.6802 57.68 64.6802 56.7333V47.4266L66.2802 46.6666H66.3602V56.7333C66.3602 58.6933 65.3869 59.6666 63.4269 59.6666H60.8269Z" fill="white"/>
<path d="M72.3999 59.6666V47.4266L73.2932 47.0133H78.6132V47.0933L77.9332 48.5333H74.0799V52.5733H78.6132V52.6533L77.9332 54.0933H74.0799V58.1333H80.0132V58.2133L79.3332 59.6533H72.3999V59.6666Z" fill="white"/>
<path d="M40 33.3333C42.32 33.3333 44.4933 33.4399 46.3333 33.6133C48.96 33.3466 50.7467 32.9599 51.3867 32.6133C50.3067 32.0399 46.0933 31.3199 40 31.3199C33.9067 31.3199 29.6933 32.0266 28.6133 32.6133C29.2667 32.9599 31.04 33.3466 33.6667 33.6133C35.52 33.4399 37.68 33.3333 40 33.3333ZM40 37.9999C33.8 37.9999 22.8 37.2666 20 34.6533V35.9999C20 38.2133 28.96 39.9999 40 39.9999C51.04 39.9999 60 38.2133 60 35.9999V34.6533C57.2 37.2666 46.2 37.9999 40 37.9999Z" fill="white"/>
<path d="M40 29.3334C28.96 29.3334 20 31.12 20 33.3334C20 35.5467 28.96 37.3334 40 37.3334C51.04 37.3334 60 35.5467 60 33.3334C60 31.12 51.04 29.3334 40 29.3334ZM40 34.5734C33.24 34.5734 27.76 33.6934 27.76 32.6134C27.76 31.5334 33.24 30.6534 40 30.6534C46.76 30.6534 52.24 31.5334 52.24 32.6134C52.24 33.6934 46.76 34.5734 40 34.5734Z" fill="white"/>
<path d="M39.9998 2C45.6798 2 51.4265 3.06667 53.3332 5.13333V4C53.3332 1.78667 47.3598 0 39.9998 0C32.6398 0 26.6665 1.78667 26.6665 4V5.13333C28.5732 3.06667 34.3198 2 39.9998 2Z" fill="white"/>
<path d="M39.9998 2.66663C32.6398 2.66663 26.6665 4.45329 26.6665 6.66663C26.6665 8.87996 32.6398 10.6666 39.9998 10.6666C47.3598 10.6666 53.3332 8.87996 53.3332 6.66663C53.3332 4.45329 47.3598 2.66663 39.9998 2.66663ZM39.9998 8.98663C35.4798 8.98663 31.8265 8.25329 31.8265 7.34663C31.8265 6.43996 35.4798 5.70663 39.9998 5.70663C44.5198 5.70663 48.1732 6.43996 48.1732 7.34663C48.1732 8.25329 44.5198 8.98663 39.9998 8.98663Z" fill="white"/>
<path d="M52.0665 6.03995C51.9865 4.69328 50.0131 4.37328 49.5198 5.65328L46.4665 13.0933L47.6931 15.8399L49.9465 11.0533L51.3865 24.1199L54.9465 32.1199L52.0798 6.06662L52.0665 6.03995ZM40.2798 28.1466C39.9731 27.4133 38.1465 22.9599 36.1865 18.1999L35.1065 20.6133L39.3331 29.6266C39.5331 30.0399 39.9465 30.1066 40.2665 29.9599C40.5865 30.1066 41.0131 30.0399 41.1998 29.6266L45.4265 20.6133L44.3465 18.1999L40.2531 28.1466H40.2798ZM28.4931 6.03995C28.4931 6.03995 26.3998 25.1066 25.6265 32.1066L29.1865 24.1066L30.6265 11.0399L32.8798 15.8266L34.1065 13.0799C32.4131 8.97328 31.0531 5.63995 31.0531 5.63995C30.5598 4.37328 28.5998 4.66661 28.5065 6.02661L28.4931 6.03995Z" fill="white"/>
<path d="M28.1865 34.5467L40.2799 7.3867L52.3732 34.5467H55.1999C55.1865 34.4 55.1732 34.2667 55.1065 34.1334L41.8932 4.45337H38.6665L25.4532 34.12C25.3865 34.2534 25.3732 34.4 25.3599 34.5334H28.1865V34.5467Z" fill="white"/>
</g>
<defs>
<clipPath id="clip0_94_241">
<rect width="80" height="60" fill="white"/>
</clipPath>
</defs>
</svg>
